<?xml version="1.0" encoding="utf-8"?>
<!-- Generator: Adobe Illustrator 24.1.2, SVG Export Plug-In . SVG Version: 6.00 Build 0)  -->
<svg version="1.1" xmlns="http://www.w3.org/2000/svg" xmlns:xlink="http://www.w3.org/1999/xlink" x="0px" y="0px"
	 viewBox="0 0 150 150" style="enable-background:new 0 0 150 150;" xml:space="preserve">
<style type="text/css">
	.st0{fill:#4F76B8;}
	.st1{fill:#E2DAD8;}
	.st2{opacity:0.53;}
	.st3{fill:#3D2A41;}
	.st4{fill:#5188C7;}
	.st5{fill:#B9C5DE;}
	.st6{fill:#457FC1;}
	.st7{opacity:0.07;fill:#FFFFFF;}
	.st8{fill:#3369B2;}
	.st9{fill:#1D458E;}
	.st10{fill:#9CB1D9;}
	.st11{fill:#F2A25F;}
	.st12{fill:#F6B07B;}
	.st13{fill:#A15925;}
</style>
<g id="Layer_2">
</g>
<g id="Layer_1">
	<g>
		<g>
			<path class="st0" d="M278.16,17.8c0,0,5.85-1.77,12.93-1.77c7.08,0,11.8,1.77,11.8,1.77l-11.8,13.87L278.16,17.8z"/>
		</g>
		<g>
			<path class="st1" d="M327.13,138.45c0,0-1.23-11.51-2.41-25.67c-1.18-14.16,1.18-42.48,1.18-42.48s0.88,2.27,2.07,6.59
				l21.88-7.47c-5.31-15.04-10.49-28.85-16.87-34.52c-10.62-9.44-27.73-9.44-27.73-9.44c-1.42-5.01-2.36-7.67-2.36-7.67
				c-0.58,6.33-11.81,12.1-12.36,12.38c-0.55-0.28-11.79-6.05-12.36-12.38c0,0-0.94,2.66-2.36,7.67c0,0-17.11,0-27.73,9.44
				c-6.38,5.67-11.56,19.47-16.87,34.52l21.88,7.47c1.18-4.31,2.07-6.59,2.07-6.59s2.36,28.32,1.18,42.48
				c-1.18,14.16-1.82,25.76-1.82,25.76L327.13,138.45z"/>
		</g>
		<g class="st2">
			<path class="st3" d="M325.95,70.6c-0.15,0-0.27-0.11-0.29-0.26c-1.68-13.96-0.76-26.89,2.74-38.46c0.05-0.16,0.21-0.25,0.37-0.2
				c0.16,0.05,0.24,0.21,0.2,0.37c-3.48,11.48-4.39,24.34-2.72,38.21c0.02,0.16-0.1,0.31-0.26,0.33
				C325.98,70.6,325.97,70.6,325.95,70.6z"/>
		</g>
		<g class="st2">
			<path class="st3" d="M255.1,70.6c-0.01,0-0.02,0-0.04,0c-0.16-0.02-0.28-0.17-0.26-0.33c1.67-13.87,0.76-26.73-2.72-38.21
				c-0.05-0.16,0.04-0.32,0.2-0.37c0.16-0.05,0.32,0.04,0.37,0.2c3.5,11.56,4.42,24.5,2.74,38.46
				C255.38,70.49,255.25,70.6,255.1,70.6z"/>
		</g>
		<g>
			<g>
				<path class="st4" d="M289.62,44.94c0-0.65,0.53-1.18,1.18-1.18s1.18,0.53,1.18,1.18c0,0.65-0.53,1.18-1.18,1.18
					S289.62,45.59,289.62,44.94z"/>
			</g>
			<g>
				<path class="st4" d="M233.11,68.46c0-0.65,0.53-1.18,1.18-1.18c0.65,0,1.18,0.53,1.18,1.18s-0.53,1.18-1.18,1.18
					C233.63,69.64,233.11,69.11,233.11,68.46z"/>
			</g>
			<g>
				<path class="st4" d="M289.62,56.49c0-0.65,0.53-1.18,1.18-1.18s1.18,0.53,1.18,1.18c0,0.65-0.53,1.18-1.18,1.18
					S289.62,57.14,289.62,56.49z"/>
			</g>
			<g>
				<path class="st4" d="M289.62,68.03c0-0.65,0.53-1.18,1.18-1.18s1.18,0.53,1.18,1.18c0,0.65-0.53,1.18-1.18,1.18
					S289.62,68.68,289.62,68.03z"/>
			</g>
			<g>
				<path class="st4" d="M289.62,79.58c0-0.65,0.53-1.18,1.18-1.18s1.18,0.53,1.18,1.18c0,0.65-0.53,1.18-1.18,1.18
					S289.62,80.23,289.62,79.58z"/>
			</g>
			<g>
				<path class="st4" d="M289.62,91.13c0-0.65,0.53-1.18,1.18-1.18s1.18,0.53,1.18,1.18c0,0.65-0.53,1.18-1.18,1.18
					S289.62,91.78,289.62,91.13z"/>
			</g>
			<g>
				<path class="st4" d="M289.62,102.67c0-0.65,0.53-1.18,1.18-1.18s1.18,0.53,1.18,1.18c0,0.65-0.53,1.18-1.18,1.18
					S289.62,103.33,289.62,102.67z"/>
			</g>
			<g>
				<path class="st4" d="M289.62,114.22c0-0.65,0.53-1.18,1.18-1.18s1.18,0.53,1.18,1.18c0,0.65-0.53,1.18-1.18,1.18
					S289.62,114.87,289.62,114.22z"/>
			</g>
			<g>
				<path class="st4" d="M289.62,125.77c0-0.65,0.53-1.18,1.18-1.18s1.18,0.53,1.18,1.18c0,0.65-0.53,1.18-1.18,1.18
					S289.62,126.42,289.62,125.77z"/>
			</g>
		</g>
		<g class="st2">
			<path class="st3" d="M294.02,138.45c-0.16,0-0.3-0.13-0.3-0.3V27.83c0-0.16,0.13-0.3,0.3-0.3c0.16,0,0.3,0.13,0.3,0.3v110.33
				C294.31,138.32,294.18,138.45,294.02,138.45z"/>
		</g>
		<g class="st2">
			<path class="st3" d="M287.53,138.45c-0.16,0-0.3-0.13-0.3-0.3V27.83c0-0.16,0.13-0.3,0.3-0.3s0.3,0.13,0.3,0.3v110.33
				C287.82,138.32,287.69,138.45,287.53,138.45z"/>
		</g>
		<g>
			<path class="st5" d="M302.89,17.8L290.5,30.19l5.95,7.38c0,0,8.55-6.19,9.73-12.09L302.89,17.8z"/>
		</g>
		<g>
			<path class="st5" d="M278.16,17.8l12.39,12.39l-5.95,7.38c0,0-8.55-6.19-9.73-12.09L278.16,17.8z"/>
		</g>
		<g>
			<polygon class="st5" points="327.97,76.89 349.85,69.42 348.45,65.64 326.87,72.99 			"/>
		</g>
		<g>
			<polygon class="st5" points="252.99,76.89 231.11,69.42 232.57,65.64 254.3,73.15 			"/>
		</g>
	</g>
	<g>
		<path class="st6" d="M41.81,86.75c0,0-15.06,8.18-18.77,11.9c-3.72,3.72-3.9,5.95-1.67,6.13c2.23,0.19,9.67-3.35,11.34-4.46
			c1.67-1.12,6.69-3.72,6.69-3.72s6.69-0.74,14.31,3.53c7.62,4.28,16.17,8.55,21.38,9.11c5.2,0.56,16.73-3.53,20.26-5.76
			c3.53-2.23,11.34-11.15,11.34-11.15s-4.46,0.56-7.62,0.19c-3.16-0.37-9.29-2.23-14.87-3.53c-5.58-1.3-19.14-4.09-28.44-4.83
			C46.45,83.41,41.81,86.75,41.81,86.75z"/>
		<path class="st7" d="M55.14,84.28l-2.56-0.23c-7.18,0.12-10.77,2.7-10.77,2.7S29.5,93.44,24.4,97.47l10.16-3.28
			c0,0,2.23-3.16,6.69-5.76C45.71,85.82,55.14,84.28,55.14,84.28z"/>
		<path class="st8" d="M98.79,91.78c-3.16-0.37-9.03-1.5-14.61-2.8c-1.7-0.4-4.14-0.93-6.97-1.5l-1.58,0.2c0,0,8.36,4.09,6.32,7.43
			c-2.04,3.35-11.15,9.85-17.1,7.99c-2.15-0.67-1.65,0.69-0.15,2.71c3.97,1.81,7.63,3.13,10.37,3.43c5.2,0.56,16.73-3.53,20.26-5.76
			c3.53-2.23,11.98-12.38,11.98-12.38S101.95,92.15,98.79,91.78z"/>
		<path class="st9" d="M105.55,92.06c-1.75,1.94-7.12,7.44-9.29,9.27c-2.65,2.23-9.24,5.08-12.86,5.92
			c-3.62,0.84-8.5,0.42-12.69-1.12c-4.18-1.53-14.08-7.11-21.05-10.18C43,93.02,32.4,93.53,26.72,95.77
			c-1.58,1.08-2.89,2.08-3.69,2.88c-3.72,3.72-3.9,5.95-1.67,6.13c2.23,0.19,9.67-3.35,11.34-4.46c1.67-1.12,6.69-3.72,6.69-3.72
			s6.69-0.74,14.31,3.53c7.62,4.28,16.03,8.61,21.18,9.56c6.5,1.19,16.17-2.14,20.45-5.39c3.32-2.53,11.62-12.31,11.62-12.31
			S106.27,91.99,105.55,92.06z"/>
		<path class="st8" d="M39.39,96.6c0,0-7.3-0.65-10.78,1.44c-3.49,2.09-4.88,6.37-7.25,6.74c2.23,0.19,9.67-3.35,11.34-4.46
			C34.37,99.21,39.39,96.6,39.39,96.6z"/>
		<path class="st8" d="M85.7,43.25c0,0,0.25-3.19,4.42-3.19c4.17,0,4.66,3.44,4.66,3.44L85.7,43.25z"/>
		<path class="st10" d="M89.67,42.42c0,0-16.17-0.28-30.39,6.41C45.06,55.53,43.67,68.07,42.83,71.7
			c-0.84,3.62-1.02,15.06-1.02,15.06s5.39-2.97,14.68-2.42c9.29,0.56,34.01,6.88,39.03,7.62c5.02,0.74,14.5-0.37,20.07,0.56
			c5.58,0.93,9.11,3.16,10.59,4.65c1.49,1.49,2.6,0.93,2.6,0.93s0.39-12.28,0.02-14.32c-0.37-2.04-0.39-5.38-0.94-9.47
			c-0.56-4.09-1.3-11.52-9.67-17.84c-8.36-6.32-9.67-6.69-9.67-6.69S103.52,44.37,89.67,42.42z"/>
		<path class="st10" d="M107.98,67.42l-8.83-22.8c-2.55-0.87-5.68-1.67-9.48-2.2c0,0-7.2-0.12-16.21,1.78
			c-2.45,0.89-4.78,2.05-6.37,3.52c-5.02,4.65-9.11,24.72-9.67,27.51c-0.53,2.65-1.4,7.33-2.28,9.05c0.44,0.01,0.89,0.03,1.35,0.06
			c9.29,0.56,34.01,6.88,39.03,7.62c1.62,0.24,3.72,0.29,5.99,0.27L107.98,67.42z"/>
		<path class="st8" d="M100.73,52.37c1.76,5.62-1.46,37.03-1.8,40.39c5.17,0.12,12.23-0.98,16.67-0.24
			c5.58,0.93,9.11,3.16,10.59,4.65c1.49,1.49,2.6,0.93,2.6,0.93s1.13-11.71,1.26-13.79c0.18-2.85-0.51-6.78-1.07-10.87
			c-0.56-4.09-1.6-9.8-8.91-16.57c-7.69-7.13-11.05-8.55-11.05-8.55s-5.52-3.94-19.36-5.89C89.67,42.42,98.87,46.42,100.73,52.37z"
			/>
		<path class="st11" d="M69.65,72.86c-6.13-1.88-12.1-2.28-18.42-1.24c-0.46-2.28-0.7-4.59-1.15-6.87
			c7.81-1.85,14.89-1.31,22.56,1.07C71.64,68.17,70.65,70.51,69.65,72.86z"/>
		<path class="st12" d="M72.64,65.82c-1.94-0.6-3.84-1.08-5.72-1.44c-9.69,1.44-14.59,6.12-15.69,7.24
			c6.33-1.04,12.29-0.64,18.42,1.24C70.65,70.51,71.64,68.17,72.64,65.82z"/>
		<path class="st13" d="M69.79,73.14l-0.2-0.06c-6.06-1.85-12.05-2.26-18.32-1.23l-0.22,0.04L51,71.67
			c-0.23-1.15-0.41-2.32-0.58-3.45c-0.17-1.12-0.35-2.29-0.58-3.42l-0.04-0.22l0.22-0.05c7.54-1.79,14.54-1.45,22.69,1.07l0.24,0.08
			L69.79,73.14z M57.9,70.84c3.9,0,7.75,0.58,11.62,1.74l2.8-6.61c-7.88-2.41-14.68-2.73-21.98-1.04c0.21,1.08,0.38,2.17,0.54,3.23
			c0.16,1.05,0.32,2.14,0.53,3.21C53.61,71.01,55.76,70.84,57.9,70.84z"/>
	</g>
</g>
</svg>
