<?xml version="1.0" encoding="utf-8"?>
<!-- Generator: Adobe Illustrator 24.1.2, SVG Export Plug-In . SVG Version: 6.00 Build 0)  -->
<svg version="1.1" xmlns="http://www.w3.org/2000/svg" xmlns:xlink="http://www.w3.org/1999/xlink" x="0px" y="0px"
	 viewBox="0 0 150 150" style="enable-background:new 0 0 150 150;" xml:space="preserve">
<style type="text/css">
	.st0{fill:#4F76B8;}
	.st1{fill:#E2DAD8;}
	.st2{opacity:0.53;}
	.st3{fill:#3D2A41;}
	.st4{fill:#5188C7;}
	.st5{fill:#B9C5DE;}
	.st6{fill:#F37A8C;}
	.st7{fill:#EE3553;}
	.st8{fill:#E6C121;}
</style>
<g id="Layer_2">
</g>
<g id="Layer_1">
	<g>
		<g>
			<path class="st0" d="M278.16,17.8c0,0,5.85-1.77,12.93-1.77c7.08,0,11.8,1.77,11.8,1.77l-11.8,13.87L278.16,17.8z"/>
		</g>
		<g>
			<path class="st1" d="M327.13,138.45c0,0-1.23-11.51-2.41-25.67c-1.18-14.16,1.18-42.48,1.18-42.48s0.88,2.27,2.07,6.59
				l21.88-7.47c-5.31-15.04-10.49-28.85-16.87-34.52c-10.62-9.44-27.73-9.44-27.73-9.44c-1.42-5.01-2.36-7.67-2.36-7.67
				c-0.58,6.33-11.81,12.1-12.36,12.38c-0.55-0.28-11.79-6.05-12.36-12.38c0,0-0.94,2.66-2.36,7.67c0,0-17.11,0-27.73,9.44
				c-6.38,5.67-11.56,19.47-16.87,34.52l21.88,7.47c1.18-4.31,2.07-6.59,2.07-6.59s2.36,28.32,1.18,42.48
				c-1.18,14.16-1.82,25.76-1.82,25.76L327.13,138.45z"/>
		</g>
		<g class="st2">
			<path class="st3" d="M325.95,70.6c-0.15,0-0.27-0.11-0.29-0.26c-1.68-13.96-0.76-26.89,2.74-38.46c0.05-0.16,0.21-0.25,0.37-0.2
				c0.16,0.05,0.24,0.21,0.2,0.37c-3.48,11.48-4.39,24.34-2.72,38.21c0.02,0.16-0.1,0.31-0.26,0.33
				C325.98,70.6,325.97,70.6,325.95,70.6z"/>
		</g>
		<g class="st2">
			<path class="st3" d="M255.1,70.6c-0.01,0-0.02,0-0.04,0c-0.16-0.02-0.28-0.17-0.26-0.33c1.67-13.87,0.76-26.73-2.72-38.21
				c-0.05-0.16,0.04-0.32,0.2-0.37c0.16-0.05,0.32,0.04,0.37,0.2c3.5,11.56,4.42,24.5,2.74,38.46
				C255.38,70.49,255.25,70.6,255.1,70.6z"/>
		</g>
		<g>
			<g>
				<path class="st4" d="M289.62,44.94c0-0.65,0.53-1.18,1.18-1.18s1.18,0.53,1.18,1.18c0,0.65-0.53,1.18-1.18,1.18
					S289.62,45.59,289.62,44.94z"/>
			</g>
			<g>
				<path class="st4" d="M233.11,68.46c0-0.65,0.53-1.18,1.18-1.18c0.65,0,1.18,0.53,1.18,1.18s-0.53,1.18-1.18,1.18
					C233.63,69.64,233.11,69.11,233.11,68.46z"/>
			</g>
			<g>
				<path class="st4" d="M289.62,56.49c0-0.65,0.53-1.18,1.18-1.18s1.18,0.53,1.18,1.18c0,0.65-0.53,1.18-1.18,1.18
					S289.62,57.14,289.62,56.49z"/>
			</g>
			<g>
				<path class="st4" d="M289.62,68.03c0-0.65,0.53-1.18,1.18-1.18s1.18,0.53,1.18,1.18c0,0.65-0.53,1.18-1.18,1.18
					S289.62,68.68,289.62,68.03z"/>
			</g>
			<g>
				<path class="st4" d="M289.62,79.58c0-0.65,0.53-1.18,1.18-1.18s1.18,0.53,1.18,1.18c0,0.65-0.53,1.18-1.18,1.18
					S289.62,80.23,289.62,79.58z"/>
			</g>
			<g>
				<path class="st4" d="M289.62,91.13c0-0.65,0.53-1.18,1.18-1.18s1.18,0.53,1.18,1.18c0,0.65-0.53,1.18-1.18,1.18
					S289.62,91.78,289.62,91.13z"/>
			</g>
			<g>
				<path class="st4" d="M289.62,102.67c0-0.65,0.53-1.18,1.18-1.18s1.18,0.53,1.18,1.18c0,0.65-0.53,1.18-1.18,1.18
					S289.62,103.33,289.62,102.67z"/>
			</g>
			<g>
				<path class="st4" d="M289.62,114.22c0-0.65,0.53-1.18,1.18-1.18s1.18,0.53,1.18,1.18c0,0.65-0.53,1.18-1.18,1.18
					S289.62,114.87,289.62,114.22z"/>
			</g>
			<g>
				<path class="st4" d="M289.62,125.77c0-0.65,0.53-1.18,1.18-1.18s1.18,0.53,1.18,1.18c0,0.65-0.53,1.18-1.18,1.18
					S289.62,126.42,289.62,125.77z"/>
			</g>
		</g>
		<g class="st2">
			<path class="st3" d="M294.02,138.45c-0.16,0-0.3-0.13-0.3-0.3V27.83c0-0.16,0.13-0.3,0.3-0.3c0.16,0,0.3,0.13,0.3,0.3v110.33
				C294.31,138.32,294.18,138.45,294.02,138.45z"/>
		</g>
		<g class="st2">
			<path class="st3" d="M287.53,138.45c-0.16,0-0.3-0.13-0.3-0.3V27.83c0-0.16,0.13-0.3,0.3-0.3s0.3,0.13,0.3,0.3v110.33
				C287.82,138.32,287.69,138.45,287.53,138.45z"/>
		</g>
		<g>
			<path class="st5" d="M302.89,17.8L290.5,30.19l5.95,7.38c0,0,8.55-6.19,9.73-12.09L302.89,17.8z"/>
		</g>
		<g>
			<path class="st5" d="M278.16,17.8l12.39,12.39l-5.95,7.38c0,0-8.55-6.19-9.73-12.09L278.16,17.8z"/>
		</g>
		<g>
			<polygon class="st5" points="327.97,76.89 349.85,69.42 348.45,65.64 326.87,72.99 			"/>
		</g>
		<g>
			<polygon class="st5" points="252.99,76.89 231.11,69.42 232.57,65.64 254.3,73.15 			"/>
		</g>
	</g>
	<g>
		<g>
			<path class="st6" d="M88.72,26.61c-0.37-2.95,1.98-10.89,1.98-10.89l-3.47-1.98c0,0-0.5,7.92-5.94,12.38
				c-4.24,3.47-6.07,7.83-6.68,9.6c-0.61-1.77-2.45-6.13-6.68-9.6c-5.45-4.46-5.94-12.38-5.94-12.38l-3.47,1.98
				c0,0,2.35,7.94,1.98,10.89c-0.49,3.96-2.97,7.43-2.97,7.43l4.34,29.89h12.49h0.5h12.49l4.34-29.89
				C91.69,34.03,89.22,30.57,88.72,26.61z"/>
		</g>
		<g>
			<path class="st6" d="M91.92,135.55c0,0,4.96-29.07,3.55-44.68c-1.42-15.6-8.12-26.95-8.12-26.95H61.88c0,0-8.25,13.47-6.84,36.17
				c1.42,22.69,5.67,36.17,5.67,36.17L91.92,135.55z"/>
		</g>
		<g>
			<path class="st7" d="M74.9,67.83c-7.82,0-13-3.46-13.22-3.61c-0.16-0.11-0.2-0.33-0.09-0.49c0.11-0.16,0.33-0.2,0.49-0.09
				c0.05,0.03,5.23,3.48,12.82,3.48c7.58,0,12.19-3.44,12.23-3.47c0.16-0.12,0.38-0.09,0.5,0.07c0.12,0.16,0.09,0.38-0.07,0.5
				C87.37,64.36,82.73,67.83,74.9,67.83z"/>
		</g>
		<g>
			<circle class="st8" cx="74.27" cy="39.63" r="1.13"/>
		</g>
		<g>
			<circle class="st8" cx="74.27" cy="46.02" r="1.13"/>
		</g>
		<g>
			<circle class="st8" cx="74.27" cy="52.4" r="1.13"/>
		</g>
		<g>
			<path class="st8" d="M59.69,20.67c-0.05,0-0.1-0.01-0.14-0.04c-0.08-0.04-0.14-0.12-0.15-0.21l-0.47-2.6
				c-0.03-0.14,0.05-0.28,0.19-0.33l3.07-1.18c0.08-0.03,0.16-0.03,0.24,0.01c0.07,0.04,0.13,0.1,0.15,0.18l0.71,2.36
				c0.04,0.14-0.03,0.3-0.17,0.36l-3.31,1.42C59.76,20.66,59.72,20.67,59.69,20.67z M59.55,17.96l0.36,1.99l2.72-1.17l-0.54-1.8
				L59.55,17.96z"/>
		</g>
		<g>
			<path class="st8" d="M89.58,20.55c-0.04,0-0.08-0.01-0.12-0.02l-3.31-1.42c-0.14-0.06-0.21-0.21-0.17-0.36l0.71-2.36
				c0.02-0.08,0.08-0.14,0.15-0.18c0.07-0.04,0.16-0.04,0.24-0.01l3.07,1.18c0.13,0.05,0.21,0.19,0.19,0.33l-0.47,2.6
				c-0.02,0.09-0.07,0.17-0.15,0.21C89.68,20.54,89.63,20.55,89.58,20.55z M86.64,18.67l2.72,1.17l0.36-1.99l-2.54-0.98L86.64,18.67
				z"/>
		</g>
	</g>
</g>
</svg>
