<?xml version="1.0" encoding="utf-8"?>
<!-- Generator: Adobe Illustrator 24.1.2, SVG Export Plug-In . SVG Version: 6.00 Build 0)  -->
<svg version="1.1" xmlns="http://www.w3.org/2000/svg" xmlns:xlink="http://www.w3.org/1999/xlink" x="0px" y="0px"
	 viewBox="0 0 150 150" style="enable-background:new 0 0 150 150;" xml:space="preserve">
<style type="text/css">
	.st0{fill:#4F76B8;}
	.st1{fill:#E2DAD8;}
	.st2{opacity:0.53;}
	.st3{fill:#3D2A41;}
	.st4{fill:#5188C7;}
	.st5{fill:#B9C5DE;}
	.st6{fill:#3E2D46;}
	.st7{fill:#4F476B;}
	.st8{fill:#5E517D;}
	.st9{fill:#CAD5E2;}
</style>
<g id="Layer_2">
</g>
<g id="Layer_1">
	<g>
		<g>
			<path class="st0" d="M278.16,17.8c0,0,5.85-1.77,12.93-1.77c7.08,0,11.8,1.77,11.8,1.77l-11.8,13.87L278.16,17.8z"/>
		</g>
		<g>
			<path class="st1" d="M327.13,138.45c0,0-1.23-11.51-2.41-25.67c-1.18-14.16,1.18-42.48,1.18-42.48s0.88,2.27,2.07,6.59
				l21.88-7.47c-5.31-15.04-10.49-28.85-16.87-34.52c-10.62-9.44-27.73-9.44-27.73-9.44c-1.42-5.01-2.36-7.67-2.36-7.67
				c-0.58,6.33-11.81,12.1-12.36,12.38c-0.55-0.28-11.79-6.05-12.36-12.38c0,0-0.94,2.66-2.36,7.67c0,0-17.11,0-27.73,9.44
				c-6.38,5.67-11.56,19.47-16.87,34.52l21.88,7.47c1.18-4.31,2.07-6.59,2.07-6.59s2.36,28.32,1.18,42.48
				c-1.18,14.16-1.82,25.76-1.82,25.76L327.13,138.45z"/>
		</g>
		<g class="st2">
			<path class="st3" d="M325.95,70.6c-0.15,0-0.27-0.11-0.29-0.26c-1.68-13.96-0.76-26.89,2.74-38.46c0.05-0.16,0.21-0.25,0.37-0.2
				c0.16,0.05,0.24,0.21,0.2,0.37c-3.48,11.48-4.39,24.34-2.72,38.21c0.02,0.16-0.1,0.31-0.26,0.33
				C325.98,70.6,325.97,70.6,325.95,70.6z"/>
		</g>
		<g class="st2">
			<path class="st3" d="M255.1,70.6c-0.01,0-0.02,0-0.04,0c-0.16-0.02-0.28-0.17-0.26-0.33c1.67-13.87,0.76-26.73-2.72-38.21
				c-0.05-0.16,0.04-0.32,0.2-0.37c0.16-0.05,0.32,0.04,0.37,0.2c3.5,11.56,4.42,24.5,2.74,38.46
				C255.38,70.49,255.25,70.6,255.1,70.6z"/>
		</g>
		<g>
			<g>
				<path class="st4" d="M289.62,44.94c0-0.65,0.53-1.18,1.18-1.18s1.18,0.53,1.18,1.18c0,0.65-0.53,1.18-1.18,1.18
					S289.62,45.59,289.62,44.94z"/>
			</g>
			<g>
				<path class="st4" d="M233.11,68.46c0-0.65,0.53-1.18,1.18-1.18c0.65,0,1.18,0.53,1.18,1.18s-0.53,1.18-1.18,1.18
					C233.63,69.64,233.11,69.11,233.11,68.46z"/>
			</g>
			<g>
				<path class="st4" d="M289.62,56.49c0-0.65,0.53-1.18,1.18-1.18s1.18,0.53,1.18,1.18c0,0.65-0.53,1.18-1.18,1.18
					S289.62,57.14,289.62,56.49z"/>
			</g>
			<g>
				<path class="st4" d="M289.62,68.03c0-0.65,0.53-1.18,1.18-1.18s1.18,0.53,1.18,1.18c0,0.65-0.53,1.18-1.18,1.18
					S289.62,68.68,289.62,68.03z"/>
			</g>
			<g>
				<path class="st4" d="M289.62,79.58c0-0.65,0.53-1.18,1.18-1.18s1.18,0.53,1.18,1.18c0,0.65-0.53,1.18-1.18,1.18
					S289.62,80.23,289.62,79.58z"/>
			</g>
			<g>
				<path class="st4" d="M289.62,91.13c0-0.65,0.53-1.18,1.18-1.18s1.18,0.53,1.18,1.18c0,0.65-0.53,1.18-1.18,1.18
					S289.62,91.78,289.62,91.13z"/>
			</g>
			<g>
				<path class="st4" d="M289.62,102.67c0-0.65,0.53-1.18,1.18-1.18s1.18,0.53,1.18,1.18c0,0.65-0.53,1.18-1.18,1.18
					S289.62,103.33,289.62,102.67z"/>
			</g>
			<g>
				<path class="st4" d="M289.62,114.22c0-0.65,0.53-1.18,1.18-1.18s1.18,0.53,1.18,1.18c0,0.65-0.53,1.18-1.18,1.18
					S289.62,114.87,289.62,114.22z"/>
			</g>
			<g>
				<path class="st4" d="M289.62,125.77c0-0.65,0.53-1.18,1.18-1.18s1.18,0.53,1.18,1.18c0,0.65-0.53,1.18-1.18,1.18
					S289.62,126.42,289.62,125.77z"/>
			</g>
		</g>
		<g class="st2">
			<path class="st3" d="M294.02,138.45c-0.16,0-0.3-0.13-0.3-0.3V27.83c0-0.16,0.13-0.3,0.3-0.3c0.16,0,0.3,0.13,0.3,0.3v110.33
				C294.31,138.32,294.18,138.45,294.02,138.45z"/>
		</g>
		<g class="st2">
			<path class="st3" d="M287.53,138.45c-0.16,0-0.3-0.13-0.3-0.3V27.83c0-0.16,0.13-0.3,0.3-0.3s0.3,0.13,0.3,0.3v110.33
				C287.82,138.32,287.69,138.45,287.53,138.45z"/>
		</g>
		<g>
			<path class="st5" d="M302.89,17.8L290.5,30.19l5.95,7.38c0,0,8.55-6.19,9.73-12.09L302.89,17.8z"/>
		</g>
		<g>
			<path class="st5" d="M278.16,17.8l12.39,12.39l-5.95,7.38c0,0-8.55-6.19-9.73-12.09L278.16,17.8z"/>
		</g>
		<g>
			<polygon class="st5" points="327.97,76.89 349.85,69.42 348.45,65.64 326.87,72.99 			"/>
		</g>
		<g>
			<polygon class="st5" points="252.99,76.89 231.11,69.42 232.57,65.64 254.3,73.15 			"/>
		</g>
	</g>
	<g>
		<g>
			<path class="st6" d="M46.92,120.47c0,0,0,8.14,1.44,10.53c1.44,2.39,13.4,5.26,26.8,5.26c13.4,0,22.97-2.39,25.36-4.79
				c2.39-2.39,2.39-10.53,2.39-10.53L46.92,120.47z"/>
		</g>
		<g>
			<path class="st6" d="M54.58,15.66c0,0,8.7-1.92,20.14-1.92c11.44,0,21.1,1.92,21.1,1.92s-0.57,15.79-20.67,17.23
				C55.06,34.32,54.58,15.66,54.58,15.66z"/>
		</g>
		<g>
			<path class="st6" d="M25.86,120.53c0,0,1.06,5.81,1.58,8.45c0.53,2.64,13.99-0.01,13.73-2.64c-0.48-4.91-1.91-12.09-1.91-12.09
				L25.86,120.53z"/>
		</g>
		<g>
			<path class="st7" d="M63.19,25.71c0,0-13.88,0-22.49,7.66c-8.61,7.66-15.31,31.59-17.23,48.34c-1.91,16.75-0.05,38.19,2.39,43.07
				c0.96,1.91,13.4,0,14.36-1.44c3.03-4.54,0.31-13.29,0.96-28.71c0.48-11.49,4.31-22.97,4.31-22.97s1.44,13.4,0.48,24.89
				c-0.96,11.49-3.83,23.45,2.87,28.71c6.7,5.26,26.32,4.31,26.32,4.31V36.24v-6.7L63.19,25.71z"/>
		</g>
		<g>
			<path class="st6" d="M124.14,120.53c0,0-1.06,5.81-1.58,8.45c-0.53,2.64-13.99-0.01-13.73-2.64c0.48-4.91,1.91-12.09,1.91-12.09
				L124.14,120.53z"/>
		</g>
		<g>
			<path class="st7" d="M126.53,81.7c-1.91-16.75-8.61-40.68-17.23-48.34c-8.61-7.66-22.49-7.66-22.49-7.66l-11.96,3.83v6.7v93.32
				c0,0,19.62,0.96,26.32-4.31c6.7-5.26,3.83-17.23,2.87-28.71c-0.96-11.49,0.48-24.89,0.48-24.89s3.83,11.49,4.31,22.97
				c0.64,15.42-2.07,24.17,0.96,28.71c0.96,1.44,13.4,3.35,14.36,1.44C126.58,119.89,128.44,98.45,126.53,81.7z"/>
		</g>
		<g>
			<g>
				<path class="st8" d="M74.75,13.74C74.75,13.74,74.76,13.74,74.75,13.74L74.75,13.74z"/>
			</g>
			<g>
				<path class="st8" d="M74.72,13.74c0.01,0,0.02,0,0.02,0C74.73,13.74,74.72,13.74,74.72,13.74z"/>
			</g>
			<g>
				<path class="st8" d="M74.7,13.74C74.69,13.74,74.69,13.74,74.7,13.74L74.7,13.74z"/>
			</g>
			<g>
				<path class="st8" d="M74.72,13.74c0,0-0.01,0-0.02,0C74.7,13.74,74.71,13.74,74.72,13.74z"/>
			</g>
			<g>
				<path class="st8" d="M100.13,19.97c0-3.35-4.31-4.31-4.31-4.31C94.41,19.9,81.38,28.58,75.2,28.58
					c-6.74,0-19.21-8.68-20.62-12.92c0,0-4.31,0.96-4.31,4.31c0,3.35-5.74,3.83-3.83,8.61c1.81,4.52,26.76,10.15,29.45,10.31
					c2.69-0.16,26.26-5.79,28.06-10.31C105.87,23.8,100.13,23.32,100.13,19.97z"/>
			</g>
		</g>
		<g>
			<path class="st8" d="M101.94,110.21c-15.04-3.5-12.89-22.28-12.89-22.28H75.82h-0.2H62.4c0,0,2.15,18.79-12.89,22.28
				c0,0-1.61,6.99,4.3,10.49c2.82,1.67,11.88,2.34,21.28,2.4l0,0c0.21,0,0.43,0,0.64,0c0.21,0,0.42,0,0.64,0l0,0
				c9.4-0.06,18.46-0.73,21.28-2.4C103.55,117.2,101.94,110.21,101.94,110.21z"/>
		</g>
		<g>
			<path class="st7" d="M75.52,121.66l-0.43,0c-10.66-0.07-18.34-0.89-20.56-2.2c-3.59-2.12-3.91-5.78-3.78-7.76l0.02-0.33l0.32-0.1
				c12.7-3.87,12.95-18.52,12.87-21.42l-0.01-0.49h23.54l-0.01,0.49c-0.08,2.9,0.17,17.55,12.87,21.42l0.32,0.1l0.02,0.33
				c0.13,1.99-0.19,5.64-3.78,7.76c-2.22,1.31-9.9,2.13-20.56,2.2L75.52,121.66z M51.7,112.08c-0.06,1.82,0.36,4.8,3.33,6.55
				c1.53,0.91,7.71,1.99,20.08,2.06h1.25c12.37-0.08,18.55-1.16,20.08-2.06c2.97-1.76,3.38-4.73,3.33-6.55
				c-9.91-3.21-13.34-13.22-13.24-21.77H64.93C65.03,98.86,61.61,108.87,51.7,112.08z"/>
		</g>
		<g>
			<path class="st8" d="M45.96,71.72l-0.95-0.14c0.03-0.22,3.28-22.5-1.41-34.21l0.89-0.36C49.27,48.97,46.1,70.8,45.96,71.72z"/>
		</g>
		<g>
			<path class="st8" d="M104.06,71.72c-0.14-0.92-3.31-22.76,1.46-34.71l0.89,0.36c-4.68,11.71-1.44,33.99-1.41,34.21L104.06,71.72z
				"/>
		</g>
		<g>
			<path class="st9" d="M70.37,34.09c-0.92,0-1.68-0.75-1.68-1.68s0.75-1.68,1.68-1.68c0.92,0,1.68,0.75,1.68,1.68
				S71.29,34.09,70.37,34.09z M70.37,31.21c-0.66,0-1.2,0.54-1.2,1.2s0.54,1.2,1.2,1.2c0.66,0,1.2-0.54,1.2-1.2
				S71.03,31.21,70.37,31.21z"/>
		</g>
		<g>
			<path class="st9" d="M79.94,34.09c-0.92,0-1.68-0.75-1.68-1.68s0.75-1.68,1.68-1.68c0.92,0,1.68,0.75,1.68,1.68
				S80.86,34.09,79.94,34.09z M79.94,31.21c-0.66,0-1.2,0.54-1.2,1.2s0.54,1.2,1.2,1.2c0.66,0,1.2-0.54,1.2-1.2
				S80.6,31.21,79.94,31.21z"/>
		</g>
		<g>
			<path class="st6" d="M70.37,64.12c-0.33,0-0.6-0.27-0.6-0.6V32.41c0-0.33,0.27-0.6,0.6-0.6c0.33,0,0.6,0.27,0.6,0.6v31.11
				C70.97,63.85,70.7,64.12,70.37,64.12z"/>
		</g>
		<g>
			<path class="st6" d="M79.94,58.32c-0.3,0-0.54-0.24-0.54-0.54V32.41c0-0.3,0.24-0.54,0.54-0.54c0.3,0,0.54,0.24,0.54,0.54v25.36
				C80.49,58.08,80.24,58.32,79.94,58.32z"/>
		</g>
		<g>
			<path class="st9" d="M70.37,67.35c-0.26,0-0.48-0.21-0.48-0.48v-6.22c0-0.26,0.21-0.48,0.48-0.48c0.26,0,0.48,0.21,0.48,0.48
				v6.22C70.85,67.13,70.63,67.35,70.37,67.35z"/>
		</g>
		<g>
			<path class="st9" d="M79.94,60.65c-0.26,0-0.48-0.21-0.48-0.48v-6.22c0-0.26,0.21-0.48,0.48-0.48c0.26,0,0.48,0.21,0.48,0.48
				v6.22C80.42,60.43,80.21,60.65,79.94,60.65z"/>
		</g>
		<g>
			<path class="st7" d="M84.76,30.1c-0.19,0-0.36-0.11-0.44-0.29c-0.1-0.24,0.01-0.52,0.25-0.63c4.46-1.92,8.34-5.25,10.91-9.37
				c0.14-0.22,0.44-0.29,0.66-0.15c0.22,0.14,0.29,0.44,0.15,0.66c-2.68,4.28-6.71,7.74-11.35,9.74
				C84.89,30.09,84.83,30.1,84.76,30.1z"/>
		</g>
		<g>
			<path class="st7" d="M85.73,32.93c-0.02,0-0.03,0-0.05,0c-0.26,0-0.48-0.22-0.48-0.48c0-0.26,0.21-0.48,0.48-0.48
				c0.01,0,0.03,0,0.05,0c4.28,0,8.46-1.74,11.47-4.78c0.19-0.19,0.49-0.19,0.68,0c0.19,0.19,0.19,0.49,0,0.68
				C94.69,31.08,90.27,32.93,85.73,32.93z"/>
		</g>
		<g>
			<path class="st7" d="M65.48,30.1c-0.06,0-0.13-0.01-0.19-0.04c-4.64-2-8.67-5.46-11.35-9.74c-0.14-0.22-0.07-0.52,0.15-0.66
				c0.22-0.14,0.52-0.07,0.66,0.15c2.57,4.12,6.45,7.45,10.91,9.37c0.24,0.1,0.35,0.39,0.25,0.63C65.84,29.99,65.67,30.1,65.48,30.1
				z"/>
		</g>
		<g>
			<path class="st7" d="M64.51,32.93c-4.53,0-8.96-1.85-12.15-5.07c-0.19-0.19-0.18-0.49,0-0.68c0.19-0.19,0.49-0.18,0.68,0
				c3.01,3.04,7.19,4.78,11.47,4.78c0.02,0,0.04,0.01,0.05,0c0.26,0,0.48,0.21,0.48,0.48c0,0.26-0.21,0.48-0.48,0.48
				C64.55,32.93,64.53,32.93,64.51,32.93z"/>
		</g>
	</g>
</g>
</svg>
