<?xml version="1.0" encoding="utf-8"?>
<!-- Generator: Adobe Illustrator 24.1.2, SVG Export Plug-In . SVG Version: 6.00 Build 0)  -->
<svg version="1.1" xmlns="http://www.w3.org/2000/svg" xmlns:xlink="http://www.w3.org/1999/xlink" x="0px" y="0px"
	 viewBox="0 0 150 150" style="enable-background:new 0 0 150 150;" xml:space="preserve">
<style type="text/css">
	.st0{fill:#4F76B8;}
	.st1{fill:#E2DAD8;}
	.st2{opacity:0.53;}
	.st3{fill:#3D2A41;}
	.st4{fill:#5188C7;}
	.st5{fill:#B9C5DE;}
	.st6{fill:#D41F3B;}
	.st7{fill:#9C1B3D;}
	.st8{fill:#EE3553;}
</style>
<g id="Layer_2">
</g>
<g id="Layer_1">
	<g>
		<g>
			<path class="st0" d="M278.16,17.8c0,0,5.85-1.77,12.93-1.77c7.08,0,11.8,1.77,11.8,1.77l-11.8,13.87L278.16,17.8z"/>
		</g>
		<g>
			<path class="st1" d="M327.13,138.45c0,0-1.23-11.51-2.41-25.67c-1.18-14.16,1.18-42.48,1.18-42.48s0.88,2.27,2.07,6.59
				l21.88-7.47c-5.31-15.04-10.49-28.85-16.87-34.52c-10.62-9.44-27.73-9.44-27.73-9.44c-1.42-5.01-2.36-7.67-2.36-7.67
				c-0.58,6.33-11.81,12.1-12.36,12.38c-0.55-0.28-11.79-6.05-12.36-12.38c0,0-0.94,2.66-2.36,7.67c0,0-17.11,0-27.73,9.44
				c-6.38,5.67-11.56,19.47-16.87,34.52l21.88,7.47c1.18-4.31,2.07-6.59,2.07-6.59s2.36,28.32,1.18,42.48
				c-1.18,14.16-1.82,25.76-1.82,25.76L327.13,138.45z"/>
		</g>
		<g class="st2">
			<path class="st3" d="M325.95,70.6c-0.15,0-0.27-0.11-0.29-0.26c-1.68-13.96-0.76-26.89,2.74-38.46c0.05-0.16,0.21-0.25,0.37-0.2
				c0.16,0.05,0.24,0.21,0.2,0.37c-3.48,11.48-4.39,24.34-2.72,38.21c0.02,0.16-0.1,0.31-0.26,0.33
				C325.98,70.6,325.97,70.6,325.95,70.6z"/>
		</g>
		<g class="st2">
			<path class="st3" d="M255.1,70.6c-0.01,0-0.02,0-0.04,0c-0.16-0.02-0.28-0.17-0.26-0.33c1.67-13.87,0.76-26.73-2.72-38.21
				c-0.05-0.16,0.04-0.32,0.2-0.37c0.16-0.05,0.32,0.04,0.37,0.2c3.5,11.56,4.42,24.5,2.74,38.46
				C255.38,70.49,255.25,70.6,255.1,70.6z"/>
		</g>
		<g>
			<g>
				<path class="st4" d="M289.62,44.94c0-0.65,0.53-1.18,1.18-1.18s1.18,0.53,1.18,1.18c0,0.65-0.53,1.18-1.18,1.18
					S289.62,45.59,289.62,44.94z"/>
			</g>
			<g>
				<path class="st4" d="M233.11,68.46c0-0.65,0.53-1.18,1.18-1.18c0.65,0,1.18,0.53,1.18,1.18s-0.53,1.18-1.18,1.18
					C233.63,69.64,233.11,69.11,233.11,68.46z"/>
			</g>
			<g>
				<path class="st4" d="M289.62,56.49c0-0.65,0.53-1.18,1.18-1.18s1.18,0.53,1.18,1.18c0,0.65-0.53,1.18-1.18,1.18
					S289.62,57.14,289.62,56.49z"/>
			</g>
			<g>
				<path class="st4" d="M289.62,68.03c0-0.65,0.53-1.18,1.18-1.18s1.18,0.53,1.18,1.18c0,0.65-0.53,1.18-1.18,1.18
					S289.62,68.68,289.62,68.03z"/>
			</g>
			<g>
				<path class="st4" d="M289.62,79.58c0-0.65,0.53-1.18,1.18-1.18s1.18,0.53,1.18,1.18c0,0.65-0.53,1.18-1.18,1.18
					S289.62,80.23,289.62,79.58z"/>
			</g>
			<g>
				<path class="st4" d="M289.62,91.13c0-0.65,0.53-1.18,1.18-1.18s1.18,0.53,1.18,1.18c0,0.65-0.53,1.18-1.18,1.18
					S289.62,91.78,289.62,91.13z"/>
			</g>
			<g>
				<path class="st4" d="M289.62,102.67c0-0.65,0.53-1.18,1.18-1.18s1.18,0.53,1.18,1.18c0,0.65-0.53,1.18-1.18,1.18
					S289.62,103.33,289.62,102.67z"/>
			</g>
			<g>
				<path class="st4" d="M289.62,114.22c0-0.65,0.53-1.18,1.18-1.18s1.18,0.53,1.18,1.18c0,0.65-0.53,1.18-1.18,1.18
					S289.62,114.87,289.62,114.22z"/>
			</g>
			<g>
				<path class="st4" d="M289.62,125.77c0-0.65,0.53-1.18,1.18-1.18s1.18,0.53,1.18,1.18c0,0.65-0.53,1.18-1.18,1.18
					S289.62,126.42,289.62,125.77z"/>
			</g>
		</g>
		<g class="st2">
			<path class="st3" d="M294.02,138.45c-0.16,0-0.3-0.13-0.3-0.3V27.83c0-0.16,0.13-0.3,0.3-0.3c0.16,0,0.3,0.13,0.3,0.3v110.33
				C294.31,138.32,294.18,138.45,294.02,138.45z"/>
		</g>
		<g class="st2">
			<path class="st3" d="M287.53,138.45c-0.16,0-0.3-0.13-0.3-0.3V27.83c0-0.16,0.13-0.3,0.3-0.3s0.3,0.13,0.3,0.3v110.33
				C287.82,138.32,287.69,138.45,287.53,138.45z"/>
		</g>
		<g>
			<path class="st5" d="M302.89,17.8L290.5,30.19l5.95,7.38c0,0,8.55-6.19,9.73-12.09L302.89,17.8z"/>
		</g>
		<g>
			<path class="st5" d="M278.16,17.8l12.39,12.39l-5.95,7.38c0,0-8.55-6.19-9.73-12.09L278.16,17.8z"/>
		</g>
		<g>
			<polygon class="st5" points="327.97,76.89 349.85,69.42 348.45,65.64 326.87,72.99 			"/>
		</g>
		<g>
			<polygon class="st5" points="252.99,76.89 231.11,69.42 232.57,65.64 254.3,73.15 			"/>
		</g>
	</g>
	<g>
		<g>
			<path class="st6" d="M44.22,112.56c0,0,0,8.9,1.57,11.52c1.57,2.62,14.66,5.76,29.33,5.76c14.66,0,25.14-2.62,27.76-5.24
				c2.62-2.62,2.62-11.52,2.62-11.52L44.22,112.56z"/>
		</g>
		<g>
			<path class="st6" d="M23.27,128.79c0,0,0,6.81,3.67,7.33c3.67,0.52,7.33-0.52,8.38-2.09c1.05-1.57,0.52-5.76,0.52-5.76
				L23.27,128.79z"/>
		</g>
		<g>
			<path class="st6" d="M125.52,128.27c0,0,0,6.81-3.67,7.33c-3.67,0.52-7.33-0.52-8.38-2.09c-1.05-1.57-0.52-5.76-0.52-5.76
				L125.52,128.27z"/>
		</g>
		<g>
			<path class="st7" d="M64.02,15.19c0,0,9.86-3.26,22.15,0c0,0-0.03,14.19-11.58,14.63C64.85,30.18,64.02,15.19,64.02,15.19z"/>
		</g>
		<g>
			<path class="st8" d="M130.1,86.9c-2.09-18.33-7.86-48.18-17.28-56.56c-9.43-8.38-24.61-8.38-24.61-8.38
				c0.02-5.81-2.09-6.81-2.09-6.81c-0.52,5.76-11,11-11,11s-10.47-5.24-11-11c0,0-2.36,0.97-2.09,6.81c0,0-15.19,0-24.61,8.38
				c-9.43,8.38-15.19,38.23-17.28,56.56c-2.09,18.33-2.62,37.18,1.05,41.89c3.67,4.71,12.04,3.67,15.19,0.52
				c3.67-3.67-0.52-24.61,1.57-41.37c2.09-16.76,5.76-26.18,5.76-26.18s2.09,25.14,1.05,37.71c-1.05,12.57-5.76,14.14,1.57,19.9
				c7.33,5.76,28.8,4.71,28.8,4.71v-0.06c4.01,0.14,22.29,0.46,28.8-4.65c7.33-5.76,2.62-7.33,1.57-19.9
				c-1.05-12.57,1.05-37.71,1.05-37.71s3.67,9.43,5.76,26.18c2.09,16.76-3.14,37.71,0.52,41.37c3.67,3.67,12.04,3.67,15.71-1.05
				C132.19,123.56,132.19,105.23,130.1,86.9z"/>
		</g>
		<g>
			<path class="st6" d="M106.22,61.6c-1.35-11.24-0.35-22.19,3.07-33.49l0.8,0.24c-3.39,11.18-4.38,22.02-3.04,33.15L106.22,61.6z"
				/>
		</g>
		<g>
			<path class="st6" d="M44.3,62.02l-0.83-0.1c1.43-11.84,0.51-23.62-2.66-34.06l0.8-0.24C44.82,38.17,45.74,50.07,44.3,62.02z"/>
		</g>
		<g>
			<path class="st6" d="M86.11,15.15c-0.52,5.76-11.4,10.72-11.4,10.72s-10.07-4.96-10.59-10.72c0,0-2.52,0.89-2.09,6.81
				c0,0,3.53,9.89,12.55,10.09c9.31,0.21,13.64-10.09,13.64-10.09C88.35,15.87,86.11,15.15,86.11,15.15z"/>
		</g>
		<g>
			<path class="st7" d="M74.52,124.5c-0.23,0-0.42-0.19-0.42-0.42V25.63c0-0.23,0.19-0.42,0.42-0.42c0.23,0,0.42,0.19,0.42,0.42
				v98.45C74.94,124.31,74.75,124.5,74.52,124.5z"/>
		</g>
	</g>
</g>
</svg>
