<?xml version="1.0" encoding="utf-8"?>
<!-- Generator: Adobe Illustrator 24.1.2, SVG Export Plug-In . SVG Version: 6.00 Build 0)  -->
<svg version="1.1" xmlns="http://www.w3.org/2000/svg" xmlns:xlink="http://www.w3.org/1999/xlink" x="0px" y="0px"
	 viewBox="0 0 150 150" style="enable-background:new 0 0 150 150;" xml:space="preserve">
<style type="text/css">
	.st0{fill:#4F76B8;}
	.st1{fill:#E2DAD8;}
	.st2{opacity:0.53;}
	.st3{fill:#3D2A41;}
	.st4{fill:#5188C7;}
	.st5{fill:#B9C5DE;}
	.st6{fill:#1D458E;}
	.st7{fill:#376AB2;}
	.st8{fill:#D86250;}
</style>
<g id="Layer_2">
</g>
<g id="Layer_1">
	<g>
		<g>
			<path class="st0" d="M278.16,17.8c0,0,5.85-1.77,12.93-1.77c7.08,0,11.8,1.77,11.8,1.77l-11.8,13.87L278.16,17.8z"/>
		</g>
		<g>
			<path class="st1" d="M327.13,138.45c0,0-1.23-11.51-2.41-25.67c-1.18-14.16,1.18-42.48,1.18-42.48s0.88,2.27,2.07,6.59
				l21.88-7.47c-5.31-15.04-10.49-28.85-16.87-34.52c-10.62-9.44-27.73-9.44-27.73-9.44c-1.42-5.01-2.36-7.67-2.36-7.67
				c-0.58,6.33-11.81,12.1-12.36,12.38c-0.55-0.28-11.79-6.05-12.36-12.38c0,0-0.94,2.66-2.36,7.67c0,0-17.11,0-27.73,9.44
				c-6.38,5.67-11.56,19.47-16.87,34.52l21.88,7.47c1.18-4.31,2.07-6.59,2.07-6.59s2.36,28.32,1.18,42.48
				c-1.18,14.16-1.82,25.76-1.82,25.76L327.13,138.45z"/>
		</g>
		<g class="st2">
			<path class="st3" d="M325.95,70.6c-0.15,0-0.27-0.11-0.29-0.26c-1.68-13.96-0.76-26.89,2.74-38.46c0.05-0.16,0.21-0.25,0.37-0.2
				c0.16,0.05,0.24,0.21,0.2,0.37c-3.48,11.48-4.39,24.34-2.72,38.21c0.02,0.16-0.1,0.31-0.26,0.33
				C325.98,70.6,325.97,70.6,325.95,70.6z"/>
		</g>
		<g class="st2">
			<path class="st3" d="M255.1,70.6c-0.01,0-0.02,0-0.04,0c-0.16-0.02-0.28-0.17-0.26-0.33c1.67-13.87,0.76-26.73-2.72-38.21
				c-0.05-0.16,0.04-0.32,0.2-0.37c0.16-0.05,0.32,0.04,0.37,0.2c3.5,11.56,4.42,24.5,2.74,38.46
				C255.38,70.49,255.25,70.6,255.1,70.6z"/>
		</g>
		<g>
			<g>
				<path class="st4" d="M289.62,44.94c0-0.65,0.53-1.18,1.18-1.18s1.18,0.53,1.18,1.18c0,0.65-0.53,1.18-1.18,1.18
					S289.62,45.59,289.62,44.94z"/>
			</g>
			<g>
				<path class="st4" d="M233.11,68.46c0-0.65,0.53-1.18,1.18-1.18c0.65,0,1.18,0.53,1.18,1.18s-0.53,1.18-1.18,1.18
					C233.63,69.64,233.11,69.11,233.11,68.46z"/>
			</g>
			<g>
				<path class="st4" d="M289.62,56.49c0-0.65,0.53-1.18,1.18-1.18s1.18,0.53,1.18,1.18c0,0.65-0.53,1.18-1.18,1.18
					S289.62,57.14,289.62,56.49z"/>
			</g>
			<g>
				<path class="st4" d="M289.62,68.03c0-0.65,0.53-1.18,1.18-1.18s1.18,0.53,1.18,1.18c0,0.65-0.53,1.18-1.18,1.18
					S289.62,68.68,289.62,68.03z"/>
			</g>
			<g>
				<path class="st4" d="M289.62,79.58c0-0.65,0.53-1.18,1.18-1.18s1.18,0.53,1.18,1.18c0,0.65-0.53,1.18-1.18,1.18
					S289.62,80.23,289.62,79.58z"/>
			</g>
			<g>
				<path class="st4" d="M289.62,91.13c0-0.65,0.53-1.18,1.18-1.18s1.18,0.53,1.18,1.18c0,0.65-0.53,1.18-1.18,1.18
					S289.62,91.78,289.62,91.13z"/>
			</g>
			<g>
				<path class="st4" d="M289.62,102.67c0-0.65,0.53-1.18,1.18-1.18s1.18,0.53,1.18,1.18c0,0.65-0.53,1.18-1.18,1.18
					S289.62,103.33,289.62,102.67z"/>
			</g>
			<g>
				<path class="st4" d="M289.62,114.22c0-0.65,0.53-1.18,1.18-1.18s1.18,0.53,1.18,1.18c0,0.65-0.53,1.18-1.18,1.18
					S289.62,114.87,289.62,114.22z"/>
			</g>
			<g>
				<path class="st4" d="M289.62,125.77c0-0.65,0.53-1.18,1.18-1.18s1.18,0.53,1.18,1.18c0,0.65-0.53,1.18-1.18,1.18
					S289.62,126.42,289.62,125.77z"/>
			</g>
		</g>
		<g class="st2">
			<path class="st3" d="M294.02,138.45c-0.16,0-0.3-0.13-0.3-0.3V27.83c0-0.16,0.13-0.3,0.3-0.3c0.16,0,0.3,0.13,0.3,0.3v110.33
				C294.31,138.32,294.18,138.45,294.02,138.45z"/>
		</g>
		<g class="st2">
			<path class="st3" d="M287.53,138.45c-0.16,0-0.3-0.13-0.3-0.3V27.83c0-0.16,0.13-0.3,0.3-0.3s0.3,0.13,0.3,0.3v110.33
				C287.82,138.32,287.69,138.45,287.53,138.45z"/>
		</g>
		<g>
			<path class="st5" d="M302.89,17.8L290.5,30.19l5.95,7.38c0,0,8.55-6.19,9.73-12.09L302.89,17.8z"/>
		</g>
		<g>
			<path class="st5" d="M278.16,17.8l12.39,12.39l-5.95,7.38c0,0-8.55-6.19-9.73-12.09L278.16,17.8z"/>
		</g>
		<g>
			<polygon class="st5" points="327.97,76.89 349.85,69.42 348.45,65.64 326.87,72.99 			"/>
		</g>
		<g>
			<polygon class="st5" points="252.99,76.89 231.11,69.42 232.57,65.64 254.3,73.15 			"/>
		</g>
	</g>
	<g>
		<g>
			<path class="st6" d="M91.06,13.74c0,0-11.61,0.8-17.1,0.8c-5.59,0-16.59-0.8-16.59-0.8s-4.14,18.03-3.92,38.37
				c0.21,19.8,0,84.16,0,84.16l14.89-0.41l6.73-91.06l6.58,91.06l14.89,0.41c0,0-0.29-64.36,0-84.16
				C96.83,31.95,91.06,13.74,91.06,13.74z"/>
		</g>
		<g>
			<path class="st7" d="M74.29,18.38c-9.12,0-17.29-1.38-17.37-1.4c-0.11-0.02-0.18-0.12-0.16-0.23c0.02-0.11,0.12-0.18,0.23-0.16
				c0.08,0.01,8.22,1.39,17.3,1.39c9.08,0,17.32-1.27,17.4-1.29c0.11-0.02,0.21,0.06,0.23,0.17c0.02,0.11-0.06,0.21-0.17,0.23
				C91.67,17.1,83.4,18.38,74.29,18.38z"/>
		</g>
		<g>
			<g>
				<g>
					<path class="st7" d="M72.33,15.53c-0.11,0-0.2-0.09-0.2-0.2v-0.6c0-0.11,0.09-0.2,0.2-0.2c0.11,0,0.2,0.09,0.2,0.2v0.6
						C72.53,15.44,72.44,15.53,72.33,15.53z"/>
				</g>
				<g>
					<path class="st7" d="M73.32,33.7c-0.03,0-0.06-0.01-0.08-0.02c-0.39-0.18-0.71-0.5-0.91-0.89c-0.05-0.1-0.01-0.22,0.09-0.27
						c0.1-0.05,0.22-0.01,0.27,0.09c0.15,0.31,0.41,0.56,0.71,0.71c0.1,0.05,0.14,0.17,0.1,0.27C73.47,33.66,73.4,33.7,73.32,33.7z
						 M72.33,31.77c-0.11,0-0.2-0.09-0.2-0.2v-1.16c0-0.11,0.09-0.2,0.2-0.2c0.11,0,0.2,0.09,0.2,0.2v1.16
						C72.53,31.68,72.44,31.77,72.33,31.77z M72.33,29.45c-0.11,0-0.2-0.09-0.2-0.2v-1.16c0-0.11,0.09-0.2,0.2-0.2
						c0.11,0,0.2,0.09,0.2,0.2v1.16C72.53,29.36,72.44,29.45,72.33,29.45z M72.33,27.13c-0.11,0-0.2-0.09-0.2-0.2v-1.16
						c0-0.11,0.09-0.2,0.2-0.2c0.11,0,0.2,0.09,0.2,0.2v1.16C72.53,27.04,72.44,27.13,72.33,27.13z M72.33,24.81
						c-0.11,0-0.2-0.09-0.2-0.2v-1.16c0-0.11,0.09-0.2,0.2-0.2c0.11,0,0.2,0.09,0.2,0.2v1.16C72.53,24.72,72.44,24.81,72.33,24.81z
						 M72.33,22.49c-0.11,0-0.2-0.09-0.2-0.2v-1.16c0-0.11,0.09-0.2,0.2-0.2c0.11,0,0.2,0.09,0.2,0.2v1.16
						C72.53,22.4,72.44,22.49,72.33,22.49z M72.33,20.17c-0.11,0-0.2-0.09-0.2-0.2v-1.16c0-0.11,0.09-0.2,0.2-0.2
						c0.11,0,0.2,0.09,0.2,0.2v1.16C72.53,20.08,72.44,20.17,72.33,20.17z M72.33,17.85c-0.11,0-0.2-0.09-0.2-0.2v-1.16
						c0-0.11,0.09-0.2,0.2-0.2c0.11,0,0.2,0.09,0.2,0.2v1.16C72.53,17.76,72.44,17.85,72.33,17.85z"/>
				</g>
				<g>
					<path class="st7" d="M75.07,33.85h-0.6c-0.11,0-0.2-0.09-0.2-0.2s0.09-0.2,0.2-0.2h0.6c0.11,0,0.2,0.09,0.2,0.2
						S75.18,33.85,75.07,33.85z"/>
				</g>
			</g>
		</g>
		<g>
			<path class="st7" d="M54.9,30.55c-0.08,0-0.16-0.05-0.19-0.14c-0.03-0.11,0.02-0.22,0.13-0.25c0,0,0.28-0.1,0.72-0.35
				c0.1-0.05,0.22-0.02,0.27,0.08c0.05,0.1,0.02,0.22-0.08,0.27c-0.48,0.27-0.78,0.37-0.79,0.38C54.94,30.55,54.92,30.55,54.9,30.55
				z M56.65,29.52c-0.06,0-0.12-0.03-0.16-0.08c-0.07-0.09-0.05-0.21,0.04-0.28c0.3-0.23,0.6-0.5,0.89-0.78
				c0.08-0.08,0.21-0.08,0.28,0c0.08,0.08,0.08,0.21,0,0.28c-0.3,0.29-0.61,0.56-0.93,0.81C56.74,29.5,56.7,29.52,56.65,29.52z
				 M58.38,27.84c-0.05,0-0.09-0.02-0.13-0.05c-0.09-0.07-0.1-0.2-0.03-0.28c0.25-0.3,0.49-0.62,0.72-0.95
				c0.06-0.09,0.19-0.11,0.28-0.05c0.09,0.06,0.11,0.19,0.05,0.28c-0.23,0.34-0.48,0.67-0.74,0.98
				C58.49,27.81,58.43,27.84,58.38,27.84z M59.74,25.85c-0.03,0-0.07-0.01-0.1-0.03c-0.1-0.05-0.13-0.18-0.08-0.27
				c0.19-0.33,0.37-0.69,0.53-1.06c0.05-0.1,0.16-0.15,0.27-0.1c0.1,0.05,0.15,0.16,0.1,0.27c-0.17,0.38-0.36,0.75-0.55,1.09
				C59.88,25.81,59.81,25.85,59.74,25.85z M60.73,23.66c-0.02,0-0.05,0-0.07-0.01c-0.1-0.04-0.16-0.15-0.12-0.26
				c0.13-0.36,0.26-0.74,0.37-1.13c0.03-0.11,0.14-0.17,0.25-0.14c0.11,0.03,0.17,0.14,0.14,0.25c-0.12,0.4-0.24,0.79-0.38,1.16
				C60.89,23.61,60.82,23.66,60.73,23.66z M61.42,21.34c-0.01,0-0.03,0-0.05-0.01c-0.11-0.02-0.18-0.13-0.15-0.24
				c0.09-0.38,0.17-0.78,0.24-1.17c0.02-0.11,0.12-0.18,0.23-0.16c0.11,0.02,0.18,0.12,0.16,0.23c-0.07,0.4-0.15,0.8-0.24,1.19
				C61.59,21.28,61.51,21.34,61.42,21.34z M61.84,18.97c-0.01,0-0.02,0-0.02,0c-0.11-0.01-0.19-0.11-0.17-0.22
				c0.09-0.73,0.11-1.18,0.11-1.19c0-0.11,0.09-0.2,0.21-0.19c0.11,0,0.2,0.1,0.19,0.21c0,0.02-0.02,0.48-0.11,1.22
				C62.02,18.89,61.94,18.97,61.84,18.97z"/>
		</g>
		<g>
			<path class="st7" d="M55.09,28.33c-0.07,0-0.15-0.04-0.18-0.11C54.86,28.12,54.9,28,55,27.95c0.02-0.01,2.35-1.17,3.82-4.29
				c1.14-2.41,1.16-6.27,1.16-6.31c0-0.11,0.09-0.2,0.2-0.2c0.11,0,0.2,0.09,0.2,0.2c0,0.16-0.01,3.99-1.19,6.48
				c-1.54,3.25-3.91,4.43-4.01,4.48C55.15,28.33,55.12,28.33,55.09,28.33z"/>
		</g>
		<g>
			<path class="st7" d="M75.07,46.43c-0.11,0-0.2-0.09-0.2-0.2v-31.5c0-0.11,0.09-0.2,0.2-0.2c0.11,0,0.2,0.09,0.2,0.2v31.5
				C75.27,46.34,75.18,46.43,75.07,46.43z"/>
		</g>
		<g>
			<path class="st8" d="M72.91,16.32c0-0.46,0.35-0.82,0.78-0.82s0.78,0.37,0.78,0.82c0,0.46-0.35,0.82-0.78,0.82
				S72.91,16.78,72.91,16.32z"/>
		</g>
		<g>
			<polygon class="st7" points="66.75,14.3 66.5,17.92 67.75,17.9 68,14.39 			"/>
		</g>
		<g>
			<polygon class="st7" points="79.65,14.37 79.82,18.02 81.14,17.87 80.88,14.32 			"/>
		</g>
		<g>
			<path class="st7" d="M55.09,135.5c-0.11,0-0.2-0.09-0.2-0.2v-1.21c0-0.11,0.09-0.2,0.2-0.2c0.11,0,0.2,0.09,0.2,0.2v1.21
				C55.29,135.41,55.2,135.5,55.09,135.5z M55.09,133.09c-0.11,0-0.2-0.09-0.2-0.2v-1.21c0-0.11,0.09-0.2,0.2-0.2
				c0.11,0,0.2,0.09,0.2,0.2v1.21C55.29,132.99,55.2,133.09,55.09,133.09z M55.09,130.67c-0.11,0-0.2-0.09-0.2-0.2v-1.21
				c0-0.11,0.09-0.2,0.2-0.2c0.11,0,0.2,0.09,0.2,0.2v1.21C55.29,130.58,55.2,130.67,55.09,130.67z M55.09,128.25
				c-0.11,0-0.2-0.09-0.2-0.2v-1.21c0-0.11,0.09-0.2,0.2-0.2c0.11,0,0.2,0.09,0.2,0.2v1.21C55.29,128.16,55.2,128.25,55.09,128.25z
				 M55.09,125.84c-0.11,0-0.2-0.09-0.2-0.2v-1.21c0-0.11,0.09-0.2,0.2-0.2c0.11,0,0.2,0.09,0.2,0.2v1.21
				C55.29,125.75,55.2,125.84,55.09,125.84z M55.09,123.42c-0.11,0-0.2-0.09-0.2-0.2v-1.21c0-0.11,0.09-0.2,0.2-0.2
				c0.11,0,0.2,0.09,0.2,0.2v1.21C55.29,123.33,55.2,123.42,55.09,123.42z M55.09,121.01c-0.11,0-0.2-0.09-0.2-0.2v-1.21
				c0-0.11,0.09-0.2,0.2-0.2c0.11,0,0.2,0.09,0.2,0.2v1.21C55.29,120.92,55.2,121.01,55.09,121.01z M55.09,118.59
				c-0.11,0-0.2-0.09-0.2-0.2v-1.21c0-0.11,0.09-0.2,0.2-0.2c0.11,0,0.2,0.09,0.2,0.2v1.21C55.29,118.5,55.2,118.59,55.09,118.59z
				 M55.09,116.18c-0.11,0-0.2-0.09-0.2-0.2v-1.21c0-0.11,0.09-0.2,0.2-0.2c0.11,0,0.2,0.09,0.2,0.2v1.21
				C55.29,116.09,55.2,116.18,55.09,116.18z M55.09,113.76c-0.11,0-0.2-0.09-0.2-0.2l0-1.21c0-0.11,0.09-0.2,0.2-0.2h0
				c0.11,0,0.2,0.09,0.2,0.2l0,1.21C55.29,113.67,55.2,113.76,55.09,113.76z M55.09,111.35C55.09,111.35,55.09,111.35,55.09,111.35
				c-0.11,0-0.2-0.09-0.2-0.2l0-1.21c0-0.11,0.09-0.2,0.2-0.2c0,0,0,0,0,0c0.11,0,0.2,0.09,0.2,0.2l0,1.21
				C55.29,111.26,55.2,111.35,55.09,111.35z M55.1,108.93C55.1,108.93,55.1,108.93,55.1,108.93c-0.11,0-0.2-0.09-0.2-0.2l0-1.21
				c0-0.11,0.09-0.2,0.2-0.2c0,0,0,0,0,0c0.11,0,0.2,0.09,0.2,0.2l0,1.21C55.3,108.84,55.21,108.93,55.1,108.93z M55.11,106.52
				C55.11,106.52,55.11,106.52,55.11,106.52c-0.11,0-0.2-0.09-0.2-0.2l0-1.21c0-0.11,0.08-0.21,0.2-0.2c0.11,0,0.2,0.09,0.2,0.2
				l0,1.21C55.31,106.43,55.22,106.52,55.11,106.52z M55.12,104.1C55.12,104.1,55.11,104.1,55.12,104.1c-0.11,0-0.2-0.09-0.2-0.2
				l0-1.21c0-0.11,0.09-0.2,0.2-0.2c0,0,0,0,0,0c0.11,0,0.2,0.09,0.2,0.2l0,1.21C55.32,104.01,55.23,104.1,55.12,104.1z
				 M55.12,101.69C55.12,101.69,55.12,101.69,55.12,101.69c-0.11,0-0.2-0.09-0.2-0.2l0-1.21c0-0.11,0.09-0.2,0.2-0.2c0,0,0,0,0,0
				c0.11,0,0.2,0.09,0.2,0.2l0,1.21C55.32,101.6,55.23,101.69,55.12,101.69z M55.13,99.28C55.13,99.28,55.13,99.28,55.13,99.28
				c-0.11,0-0.2-0.09-0.2-0.2l0-1.21c0-0.11,0.09-0.2,0.2-0.2c0,0,0,0,0,0c0.11,0,0.2,0.09,0.2,0.2l0,1.21
				C55.33,99.19,55.24,99.28,55.13,99.28z M55.14,96.86C55.14,96.86,55.14,96.86,55.14,96.86c-0.11,0-0.2-0.09-0.2-0.2l0-1.21
				c0-0.11,0.09-0.2,0.2-0.2c0,0,0,0,0,0c0.11,0,0.2,0.09,0.2,0.2l0,1.21C55.34,96.77,55.25,96.86,55.14,96.86z M55.15,94.45
				C55.15,94.45,55.15,94.45,55.15,94.45c-0.11,0-0.2-0.09-0.2-0.2l0-1.21c0-0.11,0.09-0.2,0.2-0.2c0,0,0,0,0,0
				c0.11,0,0.2,0.09,0.2,0.2l0,1.21C55.35,94.36,55.26,94.45,55.15,94.45z M55.15,92.04C55.15,92.04,55.15,92.04,55.15,92.04
				c-0.11,0-0.2-0.09-0.2-0.2l0-1.21c0-0.11,0.09-0.2,0.2-0.2c0,0,0,0,0,0c0.11,0,0.2,0.09,0.2,0.2l0,1.21
				C55.35,91.95,55.26,92.04,55.15,92.04z M55.16,89.62C55.16,89.62,55.16,89.62,55.16,89.62c-0.11,0-0.2-0.09-0.2-0.2l0-1.21
				c0-0.11,0.09-0.2,0.2-0.2c0,0,0,0,0,0c0.11,0,0.2,0.09,0.2,0.2l0,1.21C55.36,89.53,55.27,89.62,55.16,89.62z M55.17,87.2
				C55.17,87.2,55.17,87.2,55.17,87.2c-0.11,0-0.2-0.09-0.2-0.2l0-1.2l0.2,0l0.2,0l0,1.2C55.37,87.11,55.28,87.2,55.17,87.2z
				 M55.17,84.79C55.17,84.79,55.17,84.79,55.17,84.79c-0.11,0-0.2-0.09-0.2-0.2l0-1.21c0-0.11,0.09-0.2,0.2-0.2c0,0,0,0,0,0
				c0.11,0,0.2,0.09,0.2,0.2l0,1.21C55.37,84.7,55.28,84.79,55.17,84.79z M55.17,82.37C55.17,82.37,55.17,82.37,55.17,82.37
				c-0.11,0-0.2-0.08-0.2-0.2l0-1.21c0-0.11,0.09-0.2,0.2-0.2h0c0.11,0,0.2,0.09,0.2,0.2l0,1.19
				C55.38,82.28,55.29,82.37,55.17,82.37z M55.18,79.97L55.18,79.97c-0.11,0-0.2-0.09-0.2-0.2l0-1.21c0-0.11,0.09-0.2,0.2-0.2
				c0,0,0,0,0,0c0.11,0,0.2,0.09,0.2,0.2l0,1.21C55.38,79.88,55.29,79.97,55.18,79.97z M55.18,77.55c-0.11,0-0.2-0.09-0.2-0.2
				l0-1.21c0-0.11,0.09-0.2,0.2-0.2c0.11,0,0.2,0.09,0.2,0.2l0,1.21C55.38,77.46,55.29,77.55,55.18,77.55z M55.18,75.14
				c-0.11,0-0.2-0.09-0.2-0.2l0-1.21c0-0.11,0.09-0.2,0.2-0.2c0,0,0,0,0,0c0.11,0,0.2,0.09,0.2,0.2l0,1.21
				C55.38,75.05,55.29,75.14,55.18,75.14L55.18,75.14z M55.17,72.73c-0.11,0-0.2-0.09-0.2-0.2l0-1.21c0-0.11,0.09-0.2,0.2-0.2
				c0,0,0,0,0,0c0.11,0,0.2,0.09,0.2,0.2l0,1.21C55.38,72.64,55.29,72.73,55.17,72.73L55.17,72.73z M55.17,70.32
				c-0.11,0-0.2-0.09-0.2-0.2l0-1.21c0-0.11,0.09-0.2,0.2-0.2c0,0,0,0,0,0c0.11,0,0.2,0.09,0.2,0.2l0,1.21
				C55.37,70.23,55.28,70.32,55.17,70.32C55.17,70.32,55.17,70.32,55.17,70.32z M55.16,67.9c-0.11,0-0.2-0.09-0.2-0.2l-0.01-1.21
				c0-0.11,0.09-0.2,0.2-0.2c0,0,0,0,0,0c0.11,0,0.2,0.09,0.2,0.2l0.01,1.21C55.36,67.81,55.27,67.9,55.16,67.9
				C55.16,67.9,55.16,67.9,55.16,67.9z M55.15,65.49c-0.11,0-0.2-0.09-0.2-0.2l-0.01-1.21c0-0.11,0.09-0.2,0.2-0.2c0,0,0,0,0,0
				c0.11,0,0.2,0.09,0.2,0.2l0.01,1.21C55.35,65.4,55.26,65.49,55.15,65.49C55.15,65.49,55.15,65.49,55.15,65.49z M55.12,63.08
				c-0.11,0-0.2-0.09-0.2-0.2c0-0.42-0.01-0.83-0.02-1.21c0-0.11,0.09-0.2,0.2-0.2c0,0,0,0,0,0c0.11,0,0.2,0.09,0.2,0.2
				c0.01,0.38,0.01,0.78,0.02,1.21C55.33,62.99,55.24,63.08,55.12,63.08C55.12,63.08,55.12,63.08,55.12,63.08z M55.09,60.67
				c-0.11,0-0.2-0.09-0.2-0.2c-0.01-0.39-0.01-0.79-0.01-1.21c0-0.11,0.09-0.2,0.2-0.2c0,0,0,0,0,0c0.11,0,0.2,0.09,0.2,0.2
				c0,0.42,0.01,0.82,0.01,1.2C55.29,60.57,55.2,60.67,55.09,60.67C55.09,60.67,55.09,60.67,55.09,60.67z M55.07,58.25
				c-0.11,0-0.2-0.08-0.2-0.2c0-0.4,0-0.8,0-1.21c0-0.11,0.09-0.2,0.2-0.2c0,0,0,0,0,0c0.11,0,0.2,0.09,0.2,0.2
				c0,0.41,0,0.81,0,1.19C55.27,58.16,55.18,58.25,55.07,58.25z M55.08,55.84C55.08,55.84,55.08,55.84,55.08,55.84
				c-0.11,0-0.2-0.09-0.2-0.2c0-0.4,0.01-0.8,0.02-1.21c0-0.11,0.09-0.2,0.2-0.2c0,0,0,0,0,0c0.11,0,0.2,0.09,0.2,0.2
				c-0.01,0.41-0.01,0.81-0.02,1.21C55.28,55.75,55.19,55.84,55.08,55.84z M55.12,53.43C55.12,53.43,55.11,53.43,55.12,53.43
				c-0.11,0-0.2-0.09-0.2-0.2c0.01-0.4,0.02-0.8,0.02-1.21c0-0.11,0.09-0.2,0.2-0.2c0,0,0,0,0,0c0.11,0,0.2,0.09,0.2,0.21
				c-0.01,0.41-0.02,0.81-0.02,1.21C55.32,53.34,55.23,53.43,55.12,53.43z M55.17,51.01C55.17,51.01,55.17,51.01,55.17,51.01
				c-0.12,0-0.2-0.09-0.2-0.21c0.01-0.4,0.02-0.8,0.03-1.21c0-0.11,0.09-0.2,0.2-0.2c0,0,0,0,0.01,0c0.11,0,0.2,0.1,0.2,0.21
				c-0.01,0.4-0.02,0.81-0.03,1.21C55.37,50.93,55.28,51.01,55.17,51.01z M55.23,48.6C55.23,48.6,55.23,48.6,55.23,48.6
				c-0.12,0-0.2-0.1-0.2-0.21l0.04-1.21c0-0.11,0.11-0.2,0.21-0.19c0.11,0,0.2,0.1,0.19,0.21l-0.04,1.21
				C55.43,48.51,55.34,48.6,55.23,48.6z M55.3,46.18C55.3,46.18,55.3,46.18,55.3,46.18c-0.12,0-0.2-0.1-0.2-0.21l0.04-1.21
				c0-0.11,0.09-0.19,0.21-0.19c0.11,0,0.2,0.1,0.19,0.21l-0.04,1.2C55.5,46.1,55.41,46.18,55.3,46.18z M55.39,43.77
				C55.38,43.77,55.38,43.77,55.39,43.77c-0.12,0-0.2-0.1-0.2-0.21l0.04-1.21c0-0.11,0.1-0.2,0.21-0.19c0.11,0,0.2,0.1,0.19,0.21
				l-0.04,1.21C55.58,43.68,55.49,43.77,55.39,43.77z M55.48,41.36C55.47,41.36,55.47,41.36,55.48,41.36c-0.12,0-0.21-0.1-0.2-0.21
				l0.05-1.21c0-0.11,0.09-0.19,0.21-0.19c0.11,0,0.2,0.1,0.19,0.21l-0.05,1.21C55.67,41.27,55.58,41.36,55.48,41.36z M55.57,38.94
				C55.57,38.94,55.57,38.94,55.57,38.94c-0.12,0-0.21-0.1-0.2-0.21l0.05-1.21c0-0.11,0.1-0.2,0.21-0.19c0.11,0,0.2,0.1,0.19,0.21
				l-0.05,1.21C55.77,38.86,55.68,38.94,55.57,38.94z M55.67,36.53C55.67,36.53,55.67,36.53,55.67,36.53c-0.12,0-0.21-0.1-0.2-0.21
				l0.05-1.21c0.01-0.11,0.1-0.19,0.21-0.19c0.11,0,0.2,0.1,0.19,0.21l-0.05,1.21C55.87,36.44,55.78,36.53,55.67,36.53z
				 M55.78,34.12C55.78,34.12,55.77,34.12,55.78,34.12c-0.12-0.01-0.21-0.1-0.2-0.21l0.06-1.21c0.01-0.11,0.1-0.19,0.21-0.19
				c0.11,0.01,0.2,0.1,0.19,0.21l-0.06,1.21C55.97,34.03,55.89,34.12,55.78,34.12z M55.89,31.7C55.89,31.7,55.88,31.7,55.89,31.7
				c-0.12-0.01-0.21-0.1-0.2-0.21l0.06-1.21c0.01-0.11,0.1-0.19,0.21-0.19c0.11,0.01,0.2,0.1,0.19,0.21l-0.06,1.21
				C56.09,31.62,56,31.7,55.89,31.7z M56.01,29.29c0,0-0.01,0-0.01,0c-0.11-0.01-0.2-0.1-0.19-0.21c0.04-0.78,0.06-1.21,0.06-1.21
				c0.01-0.11,0.1-0.19,0.21-0.19c0.11,0.01,0.2,0.1,0.19,0.21c0,0-0.02,0.43-0.06,1.21C56.2,29.2,56.12,29.29,56.01,29.29z"/>
		</g>
		<g>
			<path class="st7" d="M94.46,30.55c-0.02,0-0.04,0-0.06-0.01c-0.01,0-0.31-0.11-0.79-0.38c-0.1-0.05-0.13-0.18-0.08-0.27
				c0.05-0.1,0.18-0.13,0.27-0.08c0.44,0.25,0.72,0.34,0.72,0.35c0.11,0.03,0.16,0.15,0.13,0.25C94.62,30.5,94.54,30.55,94.46,30.55
				z M92.7,29.52c-0.04,0-0.09-0.01-0.12-0.04c-0.31-0.24-0.63-0.52-0.93-0.81c-0.08-0.08-0.08-0.2,0-0.28
				c0.08-0.08,0.2-0.08,0.28,0c0.29,0.28,0.59,0.54,0.89,0.78c0.09,0.07,0.1,0.19,0.04,0.28C92.82,29.49,92.76,29.52,92.7,29.52z
				 M90.98,27.84c-0.06,0-0.12-0.02-0.15-0.07c-0.26-0.31-0.5-0.64-0.74-0.98c-0.06-0.09-0.04-0.22,0.05-0.28
				c0.09-0.06,0.22-0.04,0.28,0.05c0.23,0.33,0.47,0.65,0.72,0.95c0.07,0.09,0.06,0.21-0.03,0.28
				C91.07,27.82,91.02,27.84,90.98,27.84z M89.61,25.85c-0.07,0-0.14-0.04-0.18-0.1c-0.19-0.34-0.38-0.71-0.55-1.09
				c-0.05-0.1,0-0.22,0.1-0.27c0.1-0.05,0.22,0,0.27,0.1c0.17,0.37,0.35,0.73,0.53,1.06c0.05,0.1,0.02,0.22-0.08,0.27
				C89.68,25.84,89.65,25.85,89.61,25.85z M88.62,23.66c-0.08,0-0.16-0.05-0.19-0.13c-0.14-0.37-0.26-0.76-0.38-1.16
				c-0.03-0.11,0.03-0.22,0.14-0.25c0.11-0.03,0.22,0.03,0.25,0.14c0.11,0.39,0.24,0.77,0.37,1.13c0.04,0.1-0.02,0.22-0.12,0.26
				C88.67,23.65,88.64,23.66,88.62,23.66z M87.94,21.34c-0.09,0-0.17-0.06-0.2-0.16c-0.09-0.39-0.17-0.79-0.24-1.19
				c-0.02-0.11,0.05-0.21,0.16-0.23c0.11-0.02,0.21,0.05,0.23,0.16c0.07,0.39,0.15,0.79,0.24,1.17c0.03,0.11-0.04,0.22-0.15,0.24
				C87.97,21.34,87.95,21.34,87.94,21.34z M87.52,18.97c-0.1,0-0.19-0.07-0.2-0.18c-0.09-0.74-0.11-1.2-0.11-1.22
				c0-0.11,0.08-0.2,0.19-0.21c0.11,0,0.2,0.08,0.21,0.19c0,0,0.02,0.46,0.11,1.19c0.01,0.11-0.06,0.21-0.17,0.22
				C87.53,18.97,87.53,18.97,87.52,18.97z"/>
		</g>
		<g>
			<path class="st7" d="M94.26,28.33c-0.03,0-0.06-0.01-0.09-0.02c-0.1-0.05-2.47-1.23-4.01-4.48c-1.18-2.49-1.19-6.32-1.19-6.48
				c0-0.11,0.09-0.2,0.2-0.2c0.11,0,0.2,0.09,0.2,0.2c0,0.04,0.01,3.9,1.16,6.31c1.48,3.12,3.8,4.28,3.82,4.29
				c0.1,0.05,0.14,0.17,0.09,0.27C94.41,28.29,94.34,28.33,94.26,28.33z"/>
		</g>
		<g>
			<path class="st7" d="M94.26,135.5c-0.11,0-0.2-0.09-0.2-0.2v-1.21c0-0.11,0.09-0.2,0.2-0.2c0.11,0,0.2,0.09,0.2,0.2v1.21
				C94.46,135.41,94.37,135.5,94.26,135.5z M94.26,133.09c-0.11,0-0.2-0.09-0.2-0.2v-1.21c0-0.11,0.09-0.2,0.2-0.2
				c0.11,0,0.2,0.09,0.2,0.2v1.21C94.46,132.99,94.37,133.09,94.26,133.09z M94.26,130.67c-0.11,0-0.2-0.09-0.2-0.2v-1.21
				c0-0.11,0.09-0.2,0.2-0.2c0.11,0,0.2,0.09,0.2,0.2v1.21C94.46,130.58,94.37,130.67,94.26,130.67z M94.26,128.25
				c-0.11,0-0.2-0.09-0.2-0.2v-1.21c0-0.11,0.09-0.2,0.2-0.2c0.11,0,0.2,0.09,0.2,0.2v1.21C94.46,128.16,94.37,128.25,94.26,128.25z
				 M94.26,125.84c-0.11,0-0.2-0.09-0.2-0.2v-1.21c0-0.11,0.09-0.2,0.2-0.2c0.11,0,0.2,0.09,0.2,0.2v1.21
				C94.46,125.75,94.37,125.84,94.26,125.84z M94.26,123.42c-0.11,0-0.2-0.09-0.2-0.2v-1.21c0-0.11,0.09-0.2,0.2-0.2
				c0.11,0,0.2,0.09,0.2,0.2v1.21C94.46,123.33,94.37,123.42,94.26,123.42z M94.26,121.01c-0.11,0-0.2-0.09-0.2-0.2v-1.21
				c0-0.11,0.09-0.2,0.2-0.2c0.11,0,0.2,0.09,0.2,0.2v1.21C94.46,120.92,94.37,121.01,94.26,121.01z M94.26,118.59
				c-0.11,0-0.2-0.09-0.2-0.2v-1.21c0-0.11,0.09-0.2,0.2-0.2c0.11,0,0.2,0.09,0.2,0.2v1.21C94.46,118.5,94.37,118.59,94.26,118.59z
				 M94.26,116.18c-0.11,0-0.2-0.09-0.2-0.2v-1.21c0-0.11,0.09-0.2,0.2-0.2c0.11,0,0.2,0.09,0.2,0.2v1.21
				C94.46,116.09,94.37,116.18,94.26,116.18z M94.26,113.76c-0.11,0-0.2-0.09-0.2-0.2l0-1.21c0-0.11,0.09-0.2,0.2-0.2h0
				c0.11,0,0.2,0.09,0.2,0.2l0,1.21C94.46,113.67,94.37,113.76,94.26,113.76z M94.26,111.35c-0.11,0-0.2-0.09-0.2-0.2l0-1.21
				c0-0.11,0.09-0.2,0.2-0.2c0,0,0,0,0,0c0.11,0,0.2,0.09,0.2,0.2l0,1.21C94.46,111.26,94.37,111.35,94.26,111.35
				C94.26,111.35,94.26,111.35,94.26,111.35z M94.25,108.93c-0.11,0-0.2-0.09-0.2-0.2l0-1.21c0-0.11,0.09-0.2,0.2-0.2c0,0,0,0,0,0
				c0.11,0,0.2,0.09,0.2,0.2l0,1.21C94.46,108.84,94.37,108.93,94.25,108.93C94.25,108.93,94.25,108.93,94.25,108.93z M94.25,106.52
				c-0.11,0-0.2-0.09-0.2-0.2l0-1.21c0-0.11,0.09-0.2,0.2-0.2c0,0,0,0,0,0c0.11,0,0.2,0.09,0.2,0.2l0,1.21
				C94.45,106.43,94.36,106.52,94.25,106.52C94.25,106.52,94.25,106.52,94.25,106.52z M94.24,104.1c-0.11,0-0.2-0.09-0.2-0.2l0-1.21
				c0-0.11,0.09-0.2,0.2-0.2c0,0,0,0,0,0c0.11,0,0.2,0.09,0.2,0.2l0,1.21C94.44,104.01,94.35,104.1,94.24,104.1
				C94.24,104.1,94.24,104.1,94.24,104.1z M94.23,101.69c-0.11,0-0.2-0.09-0.2-0.2l0-1.21c0-0.11,0.09-0.2,0.2-0.2c0,0,0,0,0,0
				c0.11,0,0.2,0.09,0.2,0.2l0,1.21C94.43,101.6,94.34,101.69,94.23,101.69C94.23,101.69,94.23,101.69,94.23,101.69z M94.22,99.28
				c-0.11,0-0.2-0.09-0.2-0.2l0-1.21c0-0.11,0.09-0.2,0.2-0.2c0,0,0,0,0,0c0.11,0,0.2,0.09,0.2,0.2l0,1.21
				C94.42,99.18,94.33,99.27,94.22,99.28C94.22,99.28,94.22,99.28,94.22,99.28z M94.21,96.86c-0.11,0-0.2-0.09-0.2-0.2l0-1.21
				c0-0.11,0.09-0.2,0.2-0.2c0.11,0.01,0.2,0.09,0.2,0.2l0,1.21C94.42,96.77,94.33,96.86,94.21,96.86
				C94.21,96.86,94.21,96.86,94.21,96.86z M94.21,94.45c-0.11,0-0.2-0.09-0.2-0.2l0-1.21c0-0.11,0.09-0.2,0.2-0.2c0,0,0,0,0,0
				c0.11,0,0.2,0.09,0.2,0.2l0,1.21C94.41,94.36,94.32,94.45,94.21,94.45C94.21,94.45,94.21,94.45,94.21,94.45z M94.2,92.04
				c-0.11,0-0.2-0.09-0.2-0.2l0-1.21c0-0.11,0.09-0.2,0.2-0.2c0,0,0,0,0,0c0.11,0,0.2,0.09,0.2,0.2l0,1.21
				C94.4,91.94,94.31,92.03,94.2,92.04C94.2,92.04,94.2,92.04,94.2,92.04z M94.19,89.62c-0.11,0-0.2-0.09-0.2-0.2l0-1.21
				c0-0.11,0.09-0.2,0.2-0.2c0,0,0,0,0,0c0.11,0,0.2,0.09,0.2,0.2l0,1.21C94.39,89.53,94.3,89.62,94.19,89.62
				C94.19,89.62,94.19,89.62,94.19,89.62z M94.19,87.2c-0.11,0-0.2-0.09-0.2-0.2l0-1.2c0-0.11,0.09-0.2,0.2-0.2c0,0,0,0,0,0
				c0.11,0,0.2,0.09,0.2,0.2l0,1.21C94.39,87.11,94.3,87.2,94.19,87.2C94.19,87.2,94.19,87.2,94.19,87.2z M94.18,84.79
				c-0.11,0-0.2-0.09-0.2-0.2l0-1.21c0-0.11,0.09-0.2,0.2-0.2c0,0,0,0,0,0c0.11,0,0.2,0.09,0.2,0.2l0,1.21
				C94.38,84.7,94.29,84.79,94.18,84.79C94.18,84.79,94.18,84.79,94.18,84.79z M93.98,82.18l0-1.21c0-0.11,0.09-0.2,0.2-0.2
				c0,0,0,0,0,0c0.11,0,0.2,0.09,0.2,0.2l0,1.19L93.98,82.18z M94.18,79.97c-0.11,0-0.2-0.09-0.2-0.2l0-1.21
				c0-0.11,0.09-0.2,0.2-0.2c0.11,0,0.2,0.09,0.2,0.2l0,1.21C94.38,79.88,94.29,79.97,94.18,79.97L94.18,79.97z M94.18,77.55
				c-0.11,0-0.2-0.09-0.2-0.2l0-1.21c0-0.11,0.09-0.2,0.2-0.2c0,0,0,0,0,0c0.11,0,0.2,0.09,0.2,0.2l0,1.21
				C94.38,77.46,94.29,77.55,94.18,77.55z M94.18,75.14L94.18,75.14c-0.11,0-0.2-0.09-0.2-0.2l0-1.21c0-0.11,0.09-0.2,0.2-0.2
				c0,0,0,0,0,0c0.11,0,0.2,0.09,0.2,0.2l0,1.21C94.38,75.05,94.29,75.14,94.18,75.14z M94.18,72.73L94.18,72.73
				c-0.11,0-0.2-0.09-0.2-0.2l0-1.21c0-0.11,0.09-0.2,0.2-0.2c0,0,0,0,0,0c0.11,0,0.2,0.09,0.2,0.2l0,1.21
				C94.38,72.64,94.29,72.73,94.18,72.73z M94.18,70.32C94.18,70.32,94.18,70.32,94.18,70.32c-0.11,0-0.2-0.09-0.2-0.2l0-1.21
				c0-0.11,0.09-0.2,0.2-0.2c0,0,0,0,0,0c0.11,0,0.2,0.09,0.2,0.2l0,1.21C94.39,70.23,94.3,70.32,94.18,70.32z M94.19,67.9
				C94.19,67.9,94.19,67.9,94.19,67.9c-0.11,0-0.2-0.09-0.2-0.2L94,66.5c0-0.11,0.09-0.2,0.2-0.2c0,0,0,0,0,0
				c0.11,0,0.2,0.09,0.2,0.2l-0.01,1.21C94.39,67.82,94.3,67.9,94.19,67.9z M94.21,65.49C94.21,65.49,94.21,65.49,94.21,65.49
				c-0.11,0-0.2-0.09-0.2-0.2l0.01-1.21c0-0.11,0.09-0.2,0.2-0.2c0,0,0,0,0,0c0.11,0,0.2,0.09,0.2,0.2l-0.01,1.21
				C94.41,65.4,94.32,65.49,94.21,65.49z M94.23,63.08C94.23,63.08,94.23,63.08,94.23,63.08c-0.11,0-0.2-0.09-0.2-0.2
				c0-0.42,0.01-0.83,0.02-1.21c0-0.11,0.09-0.2,0.2-0.2c0,0,0,0,0,0c0.11,0,0.2,0.09,0.2,0.2c-0.01,0.38-0.01,0.78-0.02,1.21
				C94.43,62.99,94.34,63.08,94.23,63.08z M94.27,60.67C94.26,60.67,94.26,60.67,94.27,60.67c-0.11,0-0.2-0.09-0.2-0.2
				c0.01-0.39,0.01-0.79,0.01-1.2c0-0.11,0.09-0.2,0.2-0.2c0,0,0,0,0,0c0.11,0,0.2,0.09,0.2,0.2c0,0.42-0.01,0.82-0.01,1.21
				C94.46,60.58,94.38,60.67,94.27,60.67z M94.28,58.25c-0.11,0-0.2-0.09-0.2-0.2c0-0.4,0-0.8,0-1.21c0-0.11,0.09-0.2,0.2-0.2
				c0,0,0,0,0,0c0.11,0,0.2,0.09,0.2,0.2c0,0.41,0,0.81,0,1.2C94.49,58.16,94.4,58.25,94.28,58.25z M94.27,55.84
				c-0.11,0-0.2-0.09-0.2-0.2c0-0.4-0.01-0.8-0.02-1.21c0-0.11,0.09-0.2,0.2-0.2c0,0,0,0,0,0c0.11,0,0.2,0.09,0.2,0.2
				c0.01,0.41,0.01,0.81,0.02,1.21C94.47,55.75,94.38,55.84,94.27,55.84C94.27,55.84,94.27,55.84,94.27,55.84z M94.24,53.43
				c-0.11,0-0.2-0.09-0.2-0.2c-0.01-0.4-0.02-0.8-0.02-1.21c0-0.11,0.09-0.2,0.2-0.21c0,0,0,0,0,0c0.11,0,0.2,0.09,0.2,0.2
				c0.01,0.41,0.02,0.81,0.02,1.21C94.44,53.33,94.35,53.42,94.24,53.43C94.24,53.43,94.24,53.43,94.24,53.43z M94.19,51.01
				c-0.11,0-0.2-0.09-0.2-0.2c-0.01-0.4-0.02-0.8-0.03-1.21c0-0.11,0.08-0.2,0.2-0.21c0,0,0,0,0.01,0c0.11,0,0.2,0.09,0.2,0.2
				c0.01,0.4,0.02,0.81,0.03,1.21C94.39,50.92,94.3,51.01,94.19,51.01C94.19,51.01,94.19,51.01,94.19,51.01z M94.12,48.6
				c-0.11,0-0.2-0.09-0.2-0.2l-0.04-1.21c0-0.11,0.08-0.2,0.19-0.21c0.11-0.01,0.2,0.08,0.21,0.19l0.04,1.21
				C94.33,48.5,94.24,48.6,94.12,48.6C94.13,48.6,94.12,48.6,94.12,48.6z M94.05,46.18c-0.11,0-0.2-0.09-0.2-0.19l-0.04-1.2
				c0-0.11,0.08-0.2,0.19-0.21c0.12,0,0.2,0.08,0.21,0.19l0.04,1.21C94.25,46.08,94.17,46.18,94.05,46.18
				C94.05,46.18,94.05,46.18,94.05,46.18z M93.97,43.77c-0.11,0-0.2-0.09-0.2-0.19l-0.04-1.21c0-0.11,0.08-0.2,0.19-0.21
				c0.11-0.02,0.2,0.08,0.21,0.19l0.04,1.21C94.17,43.67,94.09,43.77,93.97,43.77C93.97,43.77,93.97,43.77,93.97,43.77z
				 M93.88,41.36c-0.11,0-0.2-0.09-0.2-0.19l-0.05-1.21c0-0.11,0.08-0.2,0.19-0.21c0.11,0,0.2,0.08,0.21,0.19l0.05,1.21
				C94.08,41.26,94,41.35,93.88,41.36C93.88,41.36,93.88,41.36,93.88,41.36z M93.78,38.94c-0.11,0-0.2-0.08-0.2-0.19l-0.05-1.21
				c0-0.11,0.08-0.2,0.19-0.21c0.11,0,0.2,0.08,0.21,0.19l0.05,1.21C93.99,38.84,93.9,38.94,93.78,38.94
				C93.79,38.94,93.79,38.94,93.78,38.94z M93.68,36.53c-0.11,0-0.2-0.08-0.2-0.19l-0.05-1.21c0-0.11,0.08-0.2,0.19-0.21
				c0.11,0,0.2,0.08,0.21,0.19l0.05,1.21C93.89,36.43,93.8,36.52,93.68,36.53C93.69,36.53,93.68,36.53,93.68,36.53z M93.57,34.12
				c-0.11,0-0.2-0.08-0.2-0.19l-0.06-1.21c-0.01-0.11,0.08-0.2,0.19-0.21c0.11,0,0.21,0.08,0.21,0.19l0.06,1.21
				C93.78,34.02,93.69,34.11,93.57,34.12C93.58,34.12,93.58,34.12,93.57,34.12z M93.46,31.7c-0.11,0-0.2-0.08-0.2-0.19L93.2,30.3
				c-0.01-0.11,0.08-0.21,0.19-0.21c0.11,0,0.21,0.08,0.21,0.19l0.06,1.21C93.67,31.6,93.58,31.7,93.46,31.7
				C93.47,31.7,93.47,31.7,93.46,31.7z M93.34,29.29c-0.11,0-0.2-0.08-0.2-0.19c-0.04-0.78-0.06-1.21-0.06-1.21
				c-0.01-0.11,0.08-0.21,0.19-0.21c0.11,0,0.21,0.08,0.21,0.19c0,0,0.02,0.44,0.06,1.21c0.01,0.11-0.08,0.21-0.19,0.21
				C93.35,29.29,93.35,29.29,93.34,29.29z"/>
		</g>
		<g>
			<polygon class="st7" points="68.33,135.85 53.45,136.26 53.45,133.88 68.52,133.69 			"/>
		</g>
		<g>
			<polygon class="st7" points="81.65,135.85 96.54,136.26 96.56,133.87 81.44,133.51 			"/>
		</g>
	</g>
</g>
</svg>
