<?xml version="1.0" encoding="utf-8"?>
<!-- Generator: Adobe Illustrator 24.1.2, SVG Export Plug-In . SVG Version: 6.00 Build 0)  -->
<svg version="1.1" xmlns="http://www.w3.org/2000/svg" xmlns:xlink="http://www.w3.org/1999/xlink" x="0px" y="0px"
	 viewBox="0 0 150 150" style="enable-background:new 0 0 150 150;" xml:space="preserve">
<style type="text/css">
	.st0{fill:#4F76B8;}
	.st1{fill:#E2DAD8;}
	.st2{opacity:0.53;}
	.st3{fill:#3D2A41;}
	.st4{fill:#5188C7;}
	.st5{fill:#B9C5DE;}
	.st6{fill:#5D517D;}
	.st7{fill:#3B2844;}
	.st8{fill:#C1C0C0;}
</style>
<g id="Layer_2">
</g>
<g id="Layer_1">
	<g>
		<g>
			<path class="st0" d="M278.16,17.8c0,0,5.85-1.77,12.93-1.77c7.08,0,11.8,1.77,11.8,1.77l-11.8,13.87L278.16,17.8z"/>
		</g>
		<g>
			<path class="st1" d="M327.13,138.45c0,0-1.23-11.51-2.41-25.67c-1.18-14.16,1.18-42.48,1.18-42.48s0.88,2.27,2.07,6.59
				l21.88-7.47c-5.31-15.04-10.49-28.85-16.87-34.52c-10.62-9.44-27.73-9.44-27.73-9.44c-1.42-5.01-2.36-7.67-2.36-7.67
				c-0.58,6.33-11.81,12.1-12.36,12.38c-0.55-0.28-11.79-6.05-12.36-12.38c0,0-0.94,2.66-2.36,7.67c0,0-17.11,0-27.73,9.44
				c-6.38,5.67-11.56,19.47-16.87,34.52l21.88,7.47c1.18-4.31,2.07-6.59,2.07-6.59s2.36,28.32,1.18,42.48
				c-1.18,14.16-1.82,25.76-1.82,25.76L327.13,138.45z"/>
		</g>
		<g class="st2">
			<path class="st3" d="M325.95,70.6c-0.15,0-0.27-0.11-0.29-0.26c-1.68-13.96-0.76-26.89,2.74-38.46c0.05-0.16,0.21-0.25,0.37-0.2
				c0.16,0.05,0.24,0.21,0.2,0.37c-3.48,11.48-4.39,24.34-2.72,38.21c0.02,0.16-0.1,0.31-0.26,0.33
				C325.98,70.6,325.97,70.6,325.95,70.6z"/>
		</g>
		<g class="st2">
			<path class="st3" d="M255.1,70.6c-0.01,0-0.02,0-0.04,0c-0.16-0.02-0.28-0.17-0.26-0.33c1.67-13.87,0.76-26.73-2.72-38.21
				c-0.05-0.16,0.04-0.32,0.2-0.37c0.16-0.05,0.32,0.04,0.37,0.2c3.5,11.56,4.42,24.5,2.74,38.46
				C255.38,70.49,255.25,70.6,255.1,70.6z"/>
		</g>
		<g>
			<g>
				<path class="st4" d="M289.62,44.94c0-0.65,0.53-1.18,1.18-1.18s1.18,0.53,1.18,1.18c0,0.65-0.53,1.18-1.18,1.18
					S289.62,45.59,289.62,44.94z"/>
			</g>
			<g>
				<path class="st4" d="M233.11,68.46c0-0.65,0.53-1.18,1.18-1.18c0.65,0,1.18,0.53,1.18,1.18s-0.53,1.18-1.18,1.18
					C233.63,69.64,233.11,69.11,233.11,68.46z"/>
			</g>
			<g>
				<path class="st4" d="M289.62,56.49c0-0.65,0.53-1.18,1.18-1.18s1.18,0.53,1.18,1.18c0,0.65-0.53,1.18-1.18,1.18
					S289.62,57.14,289.62,56.49z"/>
			</g>
			<g>
				<path class="st4" d="M289.62,68.03c0-0.65,0.53-1.18,1.18-1.18s1.18,0.53,1.18,1.18c0,0.65-0.53,1.18-1.18,1.18
					S289.62,68.68,289.62,68.03z"/>
			</g>
			<g>
				<path class="st4" d="M289.62,79.58c0-0.65,0.53-1.18,1.18-1.18s1.18,0.53,1.18,1.18c0,0.65-0.53,1.18-1.18,1.18
					S289.62,80.23,289.62,79.58z"/>
			</g>
			<g>
				<path class="st4" d="M289.62,91.13c0-0.65,0.53-1.18,1.18-1.18s1.18,0.53,1.18,1.18c0,0.65-0.53,1.18-1.18,1.18
					S289.62,91.78,289.62,91.13z"/>
			</g>
			<g>
				<path class="st4" d="M289.62,102.67c0-0.65,0.53-1.18,1.18-1.18s1.18,0.53,1.18,1.18c0,0.65-0.53,1.18-1.18,1.18
					S289.62,103.33,289.62,102.67z"/>
			</g>
			<g>
				<path class="st4" d="M289.62,114.22c0-0.65,0.53-1.18,1.18-1.18s1.18,0.53,1.18,1.18c0,0.65-0.53,1.18-1.18,1.18
					S289.62,114.87,289.62,114.22z"/>
			</g>
			<g>
				<path class="st4" d="M289.62,125.77c0-0.65,0.53-1.18,1.18-1.18s1.18,0.53,1.18,1.18c0,0.65-0.53,1.18-1.18,1.18
					S289.62,126.42,289.62,125.77z"/>
			</g>
		</g>
		<g class="st2">
			<path class="st3" d="M294.02,138.45c-0.16,0-0.3-0.13-0.3-0.3V27.83c0-0.16,0.13-0.3,0.3-0.3c0.16,0,0.3,0.13,0.3,0.3v110.33
				C294.31,138.32,294.18,138.45,294.02,138.45z"/>
		</g>
		<g class="st2">
			<path class="st3" d="M287.53,138.45c-0.16,0-0.3-0.13-0.3-0.3V27.83c0-0.16,0.13-0.3,0.3-0.3s0.3,0.13,0.3,0.3v110.33
				C287.82,138.32,287.69,138.45,287.53,138.45z"/>
		</g>
		<g>
			<path class="st5" d="M302.89,17.8L290.5,30.19l5.95,7.38c0,0,8.55-6.19,9.73-12.09L302.89,17.8z"/>
		</g>
		<g>
			<path class="st5" d="M278.16,17.8l12.39,12.39l-5.95,7.38c0,0-8.55-6.19-9.73-12.09L278.16,17.8z"/>
		</g>
		<g>
			<polygon class="st5" points="327.97,76.89 349.85,69.42 348.45,65.64 326.87,72.99 			"/>
		</g>
		<g>
			<polygon class="st5" points="252.99,76.89 231.11,69.42 232.57,65.64 254.3,73.15 			"/>
		</g>
	</g>
	<g>
		<g>
			<path class="st6" d="M54.06,129.68c0,0-0.45,4.23,0,5.34c0.45,1.11,11.35,1.78,12.68,0.67c1.34-1.11,0.45-5.34,0.45-5.34
				L54.06,129.68z"/>
		</g>
		<g>
			<path class="st6" d="M95.72,129.68c0,0,0.45,4.23,0,5.34c-0.45,1.11-11.35,1.78-12.68,0.67c-1.34-1.11-0.44-5.34-0.44-5.34
				L95.72,129.68z"/>
		</g>
		<g>
			<path class="st7" d="M95.95,53.02c-0.05-21.03-3.86-35.93-3.86-35.93s-11.55,0.72-17.2,0.74c-5.65-0.03-17.2-0.74-17.2-0.74
				s-3.84,12.39-3.86,35.93c-0.02,18.54-5,71.08-0.43,78.22c1.22,1.91,13.32,4.06,15.12,0.2c2.9-6.21,4.85-62.91,6.38-71.42
				c1.48,9.01,4.53,67.88,6.38,71.42c1.97,3.77,13.91,1.71,15.12-0.2C101.44,123.23,95.99,71.56,95.95,53.02z"/>
		</g>
		<g>
			<path class="st6" d="M90.38,13.75c-1.08-0.18-5.84,1.28-15.49,1.33c-9.65-0.05-14.41-1.51-15.49-1.33
				c-1.34,0.22-2.08,2.89-1.71,3.34c0,0,7.84,1.76,17.11,1.78l0,0c0.03,0,0.06,0,0.09,0c0.03,0,0.06,0,0.09,0l0,0
				c9.27-0.02,17.11-1.78,17.11-1.78C92.46,16.65,91.71,13.98,90.38,13.75z"/>
		</g>
		<g>
			<g>
				<path class="st8" d="M72.08,16.87c0-0.37,0.3-0.67,0.67-0.67c0.37,0,0.67,0.3,0.67,0.67s-0.3,0.67-0.67,0.67
					C72.38,17.54,72.08,17.24,72.08,16.87z"/>
			</g>
			<g>
				<path class="st6" d="M72.75,29.66c-0.18,0-0.33-0.15-0.33-0.33V16.87c0-0.18,0.15-0.33,0.33-0.33c0.18,0,0.33,0.15,0.33,0.33
					v12.46C73.08,29.51,72.93,29.66,72.75,29.66z"/>
			</g>
			<g>
				<path class="st8" d="M75.64,16.87c0-0.37,0.3-0.67,0.67-0.67s0.67,0.3,0.67,0.67s-0.3,0.67-0.67,0.67S75.64,17.24,75.64,16.87z"
					/>
			</g>
			<g>
				<path class="st6" d="M76.31,24.77c-0.18,0-0.33-0.15-0.33-0.33v-7.57c0-0.18,0.15-0.33,0.33-0.33c0.18,0,0.33,0.15,0.33,0.33
					v7.57C76.64,24.62,76.49,24.77,76.31,24.77z"/>
			</g>
			<g>
				<path class="st8" d="M72.75,32.28c-0.28,0-0.5-0.22-0.5-0.5v-3.78c0-0.28,0.22-0.5,0.5-0.5c0.28,0,0.5,0.22,0.5,0.5v3.78
					C73.25,32.05,73.03,32.28,72.75,32.28z"/>
			</g>
			<g>
				<path class="st8" d="M76.31,28.05c-0.28,0-0.5-0.22-0.5-0.5v-3.78c0-0.28,0.22-0.5,0.5-0.5c0.28,0,0.5,0.22,0.5,0.5v3.78
					C76.81,27.83,76.59,28.05,76.31,28.05z"/>
			</g>
		</g>
	</g>
</g>
</svg>
