<?xml version="1.0" encoding="utf-8"?>
<!-- Generator: Adobe Illustrator 24.1.2, SVG Export Plug-In . SVG Version: 6.00 Build 0)  -->
<svg version="1.1" xmlns="http://www.w3.org/2000/svg" xmlns:xlink="http://www.w3.org/1999/xlink" x="0px" y="0px"
	 viewBox="0 0 250 250" style="enable-background:new 0 0 250 250;" xml:space="preserve">
<style type="text/css">
	.st0{fill:#38000B;}
	.st1{fill:#C1272E;}
	.st2{fill:#630210;}
	.st3{fill:#890B18;}
	.st4{fill:#BCBCBC;}
	.st5{fill:#C8C9C5;}
	.st6{display:none;}
</style>
<g id="Layer_1">
	<g id="Layer_2_1_">
	</g>
	<g id="XMLID_16_">
		<path id="XMLID_21_" class="st0" d="M104,50c0,0,18.3,21.7,46.2,0.7c0,0,3.8,25.3-26.3,27.2C97.4,79.7,104,50,104,50z"/>
		<path id="XMLID_60_" class="st1" d="M181.4,190.6v7.3c-3.8,2.6-10.5,0.4-10.5,0.4l-1.4-6.7c-2.2,0-2.8-6.9-2.8-6.9
			c-0.3,2.4-1.4,4.3-1.4,4.3c-37.5,8.1-80.2,0.6-80.2,0.6c-0.6-1.4-0.9-3.8-0.9-3.8c-0.5,5.9-4.5,7.3-4.5,7.3l-1.4,6.8
			c-4.6,0.6-9.9-1.8-9.9-1.8l0.4-6.9c-4.8-0.4-3.8-18.6-1.9-35c0.4-3.7,0.9-7.3,1.4-10.6c0-0.3,0.1-0.5,0.1-0.8
			c1.2-8.6,2.3-14.9,2.3-14.9c1.1-6.3,2.4-14.3,3.6-22.5c0.1-0.3,0.1-0.5,0.1-0.8c0.6-3.8,1.1-7.7,1.7-11.4
			c2.3-15.4,4.1-28.6,4.1-28.6C81.3,58.8,92.9,56,92.9,56c7.5,6.2,32.1,18.4,32.1,18.4c10.6-2.6,35-17.1,35-17.1
			c9.9,4.2,10.5,14.1,10.5,14.1c0.8,5.4,3.2,21,5.3,34.9c2,12.8,3.7,24,3.7,24c1.2,7.5,2.1,14.1,2.9,19.9
			C187.9,193,181.4,190.6,181.4,190.6z"/>
		<path id="XMLID_19_" class="st2" d="M104,50c0,0-3.5,2.3-4,2.5c0,0,12.3,15.4,14.9,16.4C114.9,68.8,105.2,56.5,104,50z"/>
		<path id="XMLID_20_" class="st3" d="M100.7,51.1c0,0-6.7,4-9.1,5.2c0,0,24.7,19,33.3,18.4C125,74.6,108.1,64.4,100.7,51.1z"/>
		<path id="XMLID_24_" class="st2" d="M150.2,50.7c0,0,3.2,2.6,3.8,2.8c0,0-13.8,14.3-16.4,15C137.5,68.5,148.3,57.1,150.2,50.7z"/>
		<path id="XMLID_23_" class="st3" d="M153.3,52.5c0,0,6.5,4.4,8.7,5.7c0,0-27,17.6-35.5,16.5C126.4,74.6,145,65.3,153.3,52.5z"/>
		<path id="XMLID_22_" class="st4" d="M108.4,63.8c0,0,2.4,1.3,2.3,2.3c0,0-0.6,21,0,28.1c0.6,7.1,2.6,29.6,1.8,33.9
			c0,0,2.3,1.6,0.6,2.8c-1.7,1.2-4.3-0.4-3.9-1.9c0,0,0.6-1.3,1.6-1.1c0,0-0.4-25.9-1.5-36.8C108.2,80.2,108.4,63.8,108.4,63.8z"/>
		<path id="XMLID_27_" class="st4" d="M146.6,62.4c0,0-2.4,1.3-2.3,2.3c0,0,0.6,21,0,28.1c-0.6,7.1-2.6,29.6-1.8,33.9
			c0,0-2.3,1.6-0.6,2.8c1.7,1.2,4.3-0.4,3.9-1.9c0,0-0.6-1.3-1.6-1.1c0,0,0.4-25.9,1.5-36.8C146.8,78.7,146.6,62.4,146.6,62.4z"/>
		<path id="XMLID_57_" class="st3" d="M87.1,115.5l-3,29.9l-15.9,0.6c0-0.3,0.1-0.5,0.1-0.8c1.3-8.6,2.4-14.9,2.4-14.9
			c1.1-6.3,2.4-14.3,3.7-22.5c0.1-0.3,0.1-0.5,0.1-0.8L87.1,115.5z"/>
		<path id="XMLID_52_" class="st3" d="M183,150.7l-15.9-2.8l-3.4-34.1l12.7-7c2,12.8,3.7,24,3.7,24
			C181.3,138.3,182.3,144.9,183,150.7z"/>
		<path id="XMLID_41_" class="st5" d="M88.3,106.6l-1.1,10.4c0,0-4.4-4.5-13.2-9c0.6-4.1,1.3-8.3,1.9-12.3
			C78.5,97.5,84.5,102.1,88.3,106.6z"/>
		<path id="XMLID_30_" class="st5" d="M163.3,108.3l1.1,10.3c0,0,4.1-4.5,12.4-9c-0.6-4.1-1.2-8.3-1.8-12.3
			C172.5,99.2,166.9,103.8,163.3,108.3z"/>
		<path id="XMLID_42_" class="st5" d="M84.7,144.4l-0.7,9.3c0,0-6.6,2.8-17.3,2.9c0.5-4,1-7.9,1.5-11.3
			C72.6,145.4,79.4,145.4,84.7,144.4z"/>
		<path id="XMLID_35_" class="st5" d="M166.5,144.4l0.6,9.3c0,0,6.3,2.8,16.6,2.9c-0.5-4-0.9-7.9-1.4-11.4
			C178.2,145.4,171.6,145.4,166.5,144.4z"/>
		<path id="XMLID_33_" class="st0" d="M168.7,65c0,0-1,1.6-2.2,4.8c-0.6,1.6-1.2,3.5-1.8,5.7c-0.6,2.2-1,4.8-1.4,7.6
			c-0.3,2.8-0.6,5.9-0.6,9.1c-0.1,3.2,0.2,6.7,0.4,10.2c0.6,7.1,1.6,14.6,2.5,22.2c0.8,7.6,1.6,15.1,2.2,22.2
			c0.3,3.6,0.5,7,0.7,10.3c0.1,3.3,0.2,6.4,0.2,9.2c0,2.9,0,5.5-0.2,7.8c-0.1,2.3-0.3,4.3-0.5,6c-0.1,1.7-0.5,2.9-0.6,3.8
			c-0.1,0.9-0.2,1.3-0.2,1.3s0-0.5,0.1-1.4c0.1-0.9,0.3-2.2,0.3-3.8c0.1-1.7,0.2-3.7,0.2-6c0-2.3-0.1-4.9-0.2-7.8
			c-0.1-2.8-0.3-5.9-0.5-9.2c-0.3-3.2-0.6-6.7-0.9-10.2c-0.7-7.1-1.6-14.6-2.4-22.2c-0.8-7.6-1.7-15.1-2.2-22.2
			c-0.3-3.6-0.3-7-0.2-10.3c0.1-3.3,0.5-6.4,0.9-9.2c0.5-2.8,1.1-5.4,1.8-7.6c0.7-2.2,1.4-4.1,2.1-5.7C167.6,66.6,168.7,65,168.7,65
			z"/>
		<path id="XMLID_28_" class="st0" d="M82.5,63c0,0,0.3,0.4,0.8,1.2c0.5,0.8,1.2,2,1.8,3.6c1.4,3.2,3,7.8,3.9,13.7
			c0.4,2.9,0.8,6.1,0.9,9.4c0.2,3.4,0,6.9-0.3,10.6c-0.7,7.3-1.4,15-2.2,22.8c-0.8,7.7-1.6,15.5-2.1,22.8c-0.3,3.6-0.5,7.2-0.8,10.5
			c-0.2,3.3-0.3,6.5-0.4,9.4c0,2.9-0.1,5.6-0.1,8c0,2.4,0.1,4.4,0.2,6.1c0.1,1.7,0.3,3,0.3,3.9c0.1,0.9,0.1,1.4,0.1,1.4
			s-0.1-0.5-0.2-1.4c-0.1-0.9-0.4-2.2-0.6-3.9c-0.2-1.7-0.4-3.8-0.5-6.1c-0.2-2.4-0.2-5.1-0.3-8c0-2.9,0-6.1,0.1-9.4
			c0.1-3.4,0.2-6.9,0.5-10.5c0.5-7.3,1.2-15.1,1.9-22.8c0.8-7.7,1.6-15.5,2.4-22.8c0.3-3.6,0.5-7.1,0.5-10.4c0-3.3-0.2-6.5-0.6-9.3
			c-0.7-5.8-2-10.5-3.2-13.7C83.5,64.7,82.5,63,82.5,63z"/>
	</g>
</g>
<g id="gide" class="st6">
</g>
</svg>
