<?xml version="1.0" encoding="utf-8"?>
<!-- Generator: Adobe Illustrator 24.1.2, SVG Export Plug-In . SVG Version: 6.00 Build 0)  -->
<svg version="1.1" xmlns="http://www.w3.org/2000/svg" xmlns:xlink="http://www.w3.org/1999/xlink" x="0px" y="0px"
	 viewBox="0 0 250 250" style="enable-background:new 0 0 250 250;" xml:space="preserve">
<style type="text/css">
	.st0{fill:#144D56;}
	.st1{fill:#20697B;}
	.st2{fill:#58BFA7;}
	.st3{opacity:0.8;fill:#144D56;}
	.st4{display:none;}
</style>
<g id="Layer_1">
	<g id="Layer_2_1_">
	</g>
	<g>
		<path class="st0" d="M195.6,183.1c0,0,3.5-7.3-9-59.9l0,0c-1.1-5.9-10.8-52.4-10.8-52.4s-1.9-8.9-9.1-11.1
			c-4.9-1.5-11.8-5.3-15.9-7.7c-2.1-1.2-3.4-2.1-3.4-2.1v0v0c-26,15.4-46.3,0-46.3,0s0,0,0,0c0,0,0,0,0,0c0,0-1.6,0.8-3.8,2
			c-4.2,2.2-10.9,5.7-14.3,7.1c-3.9,1.6-8.2,4.7-10.1,16.2c-0.9,5.8-8.7,37.4-10.7,48.9l0,0c0,0-8.6,41.8-8.3,59.5
			c0,0,0.2,0.7,1.6,1.7c-0.4,3.6-1,8.8-1,10.5c0,0,9.9,4.3,14.3,3.9c0,0,3.6-5.1,6-10.1c0.6-0.2,1.1-0.6,1.3-1.1c0,0,3-6,4.3-8.5
			c0.5,3.7,1.2,9.1,1.2,12.2c0,0,46.4-4.4,87.7,0c0,0-0.1-6.8,0.7-13.2c0.7,1.3,4.6,8.2,5.2,8.9c0,0,0.4,0.5,1.7,0.8
			c1,2.2,2.8,6.2,3.8,10.4c0,0,8.3,0,14.4-4.4c0,0-1-4.4-1.6-8.8C194.7,185.4,195.7,184.4,195.6,183.1z"/>
		<path class="st1" d="M195.6,183.1c0,0,3.5-7.3-9-59.9c-1.1-5.9-10.8-52.4-10.8-52.4s-1.9-8.9-9.1-11.1c-4.9-1.5-11.8-5.3-15.9-7.7
			c-1.2-0.7-2.2-1.3-2.8-1.7c-14.4,26.2-42.8,17-46.7-0.2c-0.1-0.1-0.2-0.2-0.2-0.2s0,0,0,0c0,0,0,0,0,0c0,0-1.6,0.8-3.8,2
			c-4.2,2.2-10.9,5.7-14.3,7.1c-3.9,1.6-8.2,4.7-10.1,16.2c-0.9,5.8-8.7,37.4-10.7,48.9c0,0-8.6,41.8-8.3,59.5c0,0,0.2,0.7,1.6,1.7
			c-0.4,3.6-1,8.8-1,10.5c0,0,9.9,4.3,14.3,3.9c0,0,3.6-5.1,6-10.1c0.6-0.2,1.1-0.6,1.3-1.1c0,0,3-6,4.3-8.5
			c0.5,3.7,1.2,9.1,1.2,12.2c0,0,46.4-4.4,87.7,0c0,0-0.1-6.8,0.7-13.2c0.7,1.3,4.6,8.2,5.2,8.9c0,0,0.4,0.5,1.7,0.8
			c1,2.2,2.8,6.2,3.8,10.4c0,0,8.3,0,14.4-4.4c0,0-1-4.4-1.6-8.8C194.7,185.4,195.7,184.4,195.6,183.1z"/>
		<path id="XMLID_12_" class="st2" d="M176.7,189c0,0,2.3,4.1,3.8,10.4c0,0,8.3,0,14.4-4.4c0,0-0.8-5.1-1.6-8.8
			C187.1,185,176.7,189,176.7,189z"/>
		<path id="XMLID_11_" class="st2" d="M80.4,180.2c0,0,1.2,7.1,1.2,12.2c0,0,46.4-4.4,87.7,0c0,0-0.9-3.3,0.7-13.1
			C127.1,186,80.4,180.2,80.4,180.2z"/>
		<path id="XMLID_10_" class="st2" d="M55.5,185.5c0,0-1,7.8-1,10.5c0,0,9.9,4.3,14.3,3.9c0,0,3.7-4.5,6-10.1
			C67.3,184.7,55.5,185.5,55.5,185.5z"/>
		<path id="XMLID_1_" class="st2" d="M67.7,98.2c0,0-4.2,17.9-6.1,29.7c0,0,14,3.6,17.7,5.4v-1.5c0,0,73.8-2.7,90.8,0.8l-0.1-1.3
			c0,0,10.1-2.9,17.5-3c0,0-5.2-27.5-6.2-31.8L67.7,98.2z"/>
		<path id="XMLID_25_" class="st2" d="M150.8,52.1c-24.7,32.1-46,9.9-53.4,0c2.2-1.2,3.8-2,3.8-2c23.1,34.2,46.3,0,46.3,0
			S148.7,50.8,150.8,52.1z"/>
		<path class="st3" d="M169.7,179.1c0,0,0.2-29.5-2.6-60.5c-0.9-9.6-5.4-36.8-4.2-37.1C166.4,86.1,174.3,154.7,169.7,179.1z"/>
		<path class="st3" d="M79.7,179.1c0,0-0.2-29.5,2.6-60.5c0.9-9.6,5.4-36.8,4.2-37.1C83.1,86.1,75.1,154.7,79.7,179.1z"/>
	</g>
</g>
<g id="gide" class="st4">
</g>
</svg>
