<?xml version="1.0" encoding="utf-8"?>
<!-- Generator: Adobe Illustrator 24.1.2, SVG Export Plug-In . SVG Version: 6.00 Build 0)  -->
<svg version="1.1" xmlns="http://www.w3.org/2000/svg" xmlns:xlink="http://www.w3.org/1999/xlink" x="0px" y="0px"
	 viewBox="0 0 250 250" style="enable-background:new 0 0 250 250;" xml:space="preserve">
<style type="text/css">
	.st0{fill:#161523;}
	.st1{fill:#302E49;}
	.st2{fill:#B66B2F;}
	.st3{fill:none;stroke:#6B6665;stroke-width:0.2573;stroke-miterlimit:10;}
	.st4{fill:#D17537;}
	.st5{fill:none;stroke:#6B6665;stroke-width:0.5146;stroke-linecap:round;stroke-miterlimit:10;}
	.st6{fill:#6B6665;}
	.st7{fill:#472F18;}
	.st8{fill:#B27742;}
	.st9{opacity:0.3;fill:#634728;}
	.st10{fill:#DD8740;}
	.st11{fill:none;stroke:#9B9291;stroke-width:1.0292;stroke-linecap:round;stroke-miterlimit:10;}
	.st12{display:none;}
</style>
<g id="Layer_1">
	<g id="Layer_2_1_">
	</g>
	<g id="XMLID_64_">
		<g id="XMLID_130_">
			<path id="XMLID_133_" class="st0" d="M97.2,62.5c0,0-4.3-2.6-1-3.7c0,0,8.2-0.6,12-4.6c0,0,0.9,1.3-0.3,2.3c0,0-4.8,3.4-8,3.4
				C97.4,59.8,96,60.7,97.2,62.5z"/>
			<path id="XMLID_142_" class="st0" d="M155.3,61.1c0,0,4.2-2.6,0.9-3.8c0,0-8.2-0.5-12.1-4.4c0,0-0.9,1.3,0.3,2.3
				c0,0,4.9,3.3,8,3.2C155.2,58.3,156.5,59.2,155.3,61.1z"/>
			<g id="XMLID_135_">
				<path class="st1" d="M93.6,64.7c2.9,8,5,16.4,5.9,24.9l0.3,3.2c0,1.1,0.1,2.1,0,3.2c0,2.2-0.2,4.3-0.3,6.4l-0.7,12.8l-1.6,25.5
					l-0.8,12.8l-0.9,12.8c0.1-4.3,0.3-8.5,0.4-12.8l0.5-12.8c0.4-8.5,0.9-17,1.3-25.5l0.8-12.8c0.1-2.1,0.3-4.3,0.4-6.4
					c0-1.1,0-2.1,0-3.2l-0.2-3.2c-0.4-4.2-1.1-8.4-1.9-12.6C96,72.9,94.9,68.8,93.6,64.7z"/>
			</g>
			<g id="XMLID_134_">
				<path id="XMLID_159_" class="st2" d="M120.6,105.8v3.1c0,0-1.1,0.4-2.7,0.7c-1.3,0.3-3.1,0.6-4.9,0.6c-4.2,0.1-4.2-6.5,0-6.5
					c2.1,0,4.1,0.5,5.5,1.1C119.7,105.3,120.6,105.8,120.6,105.8z"/>
				<path id="XMLID_157_" class="st2" d="M120.6,105.8v3.1c0,0-1.1,0.4-2.7,0.7c-2.7-2.2-1.1-3.8,0.5-4.8
					C119.7,105.3,120.6,105.8,120.6,105.8z"/>
				<path id="XMLID_136_" class="st3" d="M122.9,107.4c0,1.3-1,2.3-2.3,2.3c-1.3,0-2.3-1-2.3-2.3c0-1.3,1-2.3,2.3-2.3
					C121.9,105,122.9,106.1,122.9,107.4z"/>
				<path id="XMLID_137_" class="st4" d="M120.6,105.8c0,0-1.3-0.4-2.2-0.3c-1.5,0.1-1.9,3.2,0,3.8c0.8,0.3,2.2-0.4,2.2-0.4V105.8z"
					/>
				<path id="XMLID_151_" class="st2" d="M133,105.9v3.1c0,0,1.1,0.4,2.7,0.7c1.3,0.3,3.1,0.6,4.9,0.6c4.2,0.1,4.2-6.5,0-6.5
					c-2.1,0-4.1,0.5-5.5,1.1C133.9,105.4,133,105.9,133,105.9z"/>
				<path id="XMLID_150_" class="st2" d="M133,105.9v3.1c0,0,1.1,0.4,2.7,0.7c2.7-2.2,1.1-3.8-0.5-4.8
					C133.9,105.4,133,105.9,133,105.9z"/>
				<path id="XMLID_147_" class="st3" d="M130.7,107.5c0,1.3,1,2.3,2.3,2.3s2.3-1.1,2.3-2.3c0-1.3-1-2.3-2.3-2.3
					S130.7,106.2,130.7,107.5z"/>
				<path id="XMLID_140_" class="st4" d="M133,105.9c0,0,1.3-0.4,2.2-0.3c1.5,0.1,1.9,3.2,0,3.8c-0.8,0.3-2.2-0.4-2.2-0.4V105.9z"/>
				<line id="XMLID_146_" class="st5" x1="122.4" y1="107.4" x2="131.2" y2="107.4"/>
				<path id="XMLID_141_" class="st6" d="M119.9,107.3c0,0.6-0.5,1-1,1c-0.6,0-1-0.5-1-1c0-0.6,0.5-1,1-1
					C119.4,106.3,119.9,106.7,119.9,107.3z"/>
				<path id="XMLID_144_" class="st6" d="M135.8,107.5c0,0.6-0.5,1-1,1c-0.6,0-1-0.5-1-1c0-0.6,0.5-1,1-1
					C135.3,106.5,135.8,106.9,135.8,107.5z"/>
			</g>
			<g id="XMLID_143_">
				<path id="XMLID_183_" class="st2" d="M120.6,85.9V89c0,0-1.1,0.4-2.7,0.7c-1.3,0.3-3.1,0.6-4.9,0.6c-4.2,0.1-4.2-6.5,0-6.5
					c2.1,0,4.1,0.5,5.5,1.1C119.7,85.4,120.6,85.9,120.6,85.9z"/>
				<path id="XMLID_182_" class="st2" d="M120.6,85.9V89c0,0-1.1,0.4-2.7,0.7c-2.7-2.2-1.1-3.8,0.5-4.8
					C119.7,85.4,120.6,85.9,120.6,85.9z"/>
				<path id="XMLID_179_" class="st3" d="M122.9,87.5c0,1.3-1.1,2.3-2.3,2.3c-1.3,0-2.3-1-2.3-2.3c0-1.3,1.1-2.3,2.3-2.3
					C121.9,85.1,122.9,86.2,122.9,87.5z"/>
				<path id="XMLID_178_" class="st4" d="M120.6,85.8c0,0-1.3-0.4-2.2-0.3c-1.5,0.1-1.9,3.2,0,3.8c0.8,0.3,2.2-0.4,2.2-0.4V85.8z"/>
				<path id="XMLID_177_" class="st2" d="M133,86v3.1c0,0,1.1,0.4,2.7,0.7c1.3,0.3,3.1,0.6,4.9,0.6c4.2,0.1,4.2-6.5,0-6.5
					c-2.1,0-4.1,0.5-5.5,1.1C133.8,85.5,133,86,133,86z"/>
				<path id="XMLID_176_" class="st2" d="M133,86v3.1c0,0,1.1,0.4,2.7,0.7c2.7-2.2,1.1-3.8-0.5-4.8C133.8,85.5,133,86,133,86z"/>
				<path id="XMLID_166_" class="st3" d="M130.7,87.6c0,1.3,1.1,2.3,2.3,2.3c1.3,0,2.3-1.1,2.3-2.3c0-1.3-1.1-2.3-2.3-2.3
					C131.7,85.2,130.7,86.3,130.7,87.6z"/>
				<path id="XMLID_160_" class="st4" d="M133,86c0,0,1.3-0.4,2.2-0.3c1.5,0.1,1.9,3.2,0,3.8c-0.8,0.3-2.2-0.4-2.2-0.4V86z"/>
				<line id="XMLID_149_" class="st5" x1="122.4" y1="87.4" x2="131.2" y2="87.4"/>
				<path id="XMLID_148_" class="st6" d="M119.9,87.4c0,0.6-0.5,1-1,1c-0.6,0-1-0.5-1-1c0-0.6,0.5-1,1-1
					C119.4,86.4,119.9,86.8,119.9,87.4z"/>
				<path id="XMLID_145_" class="st6" d="M135.8,87.6c0,0.6-0.5,1-1,1c-0.6,0-1-0.5-1-1c0-0.6,0.5-1,1-1
					C135.3,86.5,135.8,87,135.8,87.6z"/>
			</g>
			<g id="XMLID_168_">
				<path id="XMLID_199_" class="st2" d="M120.6,68.3v3.1c0,0-1.1,0.4-2.7,0.7c-1.3,0.3-3.1,0.6-4.9,0.6c-4.2,0.1-4.2-6.5,0-6.5
					c2.1,0,4.1,0.5,5.5,1.1C119.7,67.8,120.6,68.3,120.6,68.3z"/>
				<path id="XMLID_198_" class="st2" d="M120.6,68.3v3.1c0,0-1.1,0.4-2.7,0.7c-2.7-2.2-1.1-3.8,0.5-4.8
					C119.7,67.8,120.6,68.3,120.6,68.3z"/>
				<path id="XMLID_195_" class="st3" d="M122.9,69.9c0,1.3-1.1,2.3-2.3,2.3c-1.3,0-2.3-1.1-2.3-2.3c0-1.3,1.1-2.3,2.3-2.3
					C121.9,67.6,122.9,68.6,122.9,69.9z"/>
				<path id="XMLID_194_" class="st4" d="M120.6,68.3c0,0-1.3-0.4-2.2-0.3c-1.5,0.1-1.9,3.2,0,3.8c0.8,0.3,2.2-0.4,2.2-0.4V68.3z"/>
				<path id="XMLID_193_" class="st2" d="M133,68.5v3.1c0,0,1.1,0.4,2.7,0.7c1.3,0.3,3.1,0.6,4.9,0.6c4.2,0.1,4.2-6.5,0-6.5
					c-2.1,0-4.1,0.5-5.5,1.1C133.8,68,133,68.5,133,68.5z"/>
				<path id="XMLID_192_" class="st2" d="M133,68.5v3.1c0,0,1.1,0.4,2.7,0.7c2.7-2.2,1.1-3.8-0.5-4.8C133.8,68,133,68.5,133,68.5z"
					/>
				<path id="XMLID_185_" class="st3" d="M130.7,70.1c0,1.3,1.1,2.3,2.3,2.3c1.3,0,2.3-1,2.3-2.3c0-1.3-1.1-2.3-2.3-2.3
					C131.7,67.7,130.7,68.8,130.7,70.1z"/>
				<path id="XMLID_184_" class="st4" d="M133,68.4c0,0,1.3-0.4,2.2-0.3c1.5,0.1,1.9,3.2,0,3.8c-0.8,0.3-2.2-0.4-2.2-0.4V68.4z"/>
				<line id="XMLID_181_" class="st5" x1="122.4" y1="69.9" x2="131.2" y2="69.9"/>
				<path id="XMLID_180_" class="st6" d="M119.9,69.8c0,0.6-0.5,1-1,1c-0.6,0-1-0.5-1-1c0-0.6,0.5-1,1-1
					C119.4,68.8,119.9,69.3,119.9,69.8z"/>
				<path id="XMLID_174_" class="st6" d="M135.8,70c0,0.6-0.5,1-1,1c-0.6,0-1-0.5-1-1c0-0.6,0.5-1,1-1C135.3,69,135.8,69.5,135.8,70
					z"/>
			</g>
		</g>
		<path id="XMLID_804_" class="st7" d="M96.7,59.6c0,0-4.3-2.6-1-3.7c0,0,8.2-0.6,12-4.6c0,0,0.9,1.3-0.3,2.3c0,0-4.8,3.4-8,3.4
			C96.8,56.9,95.5,57.8,96.7,59.6z"/>
		<path id="XMLID_801_" class="st7" d="M154.8,58.2c0,0,4.2-2.6,0.9-3.8c0,0-8.2-0.5-12.1-4.4c0,0-0.9,1.3,0.3,2.3
			c0,0,4.9,3.3,8,3.2C154.6,55.5,155.9,56.3,154.8,58.2z"/>
		<path id="XMLID_798_" class="st8" d="M154.3,160.8c0.8,8.7,1.9,36.1,1.9,36.1c-4.6,3.3-14.5,3.3-21.2,2.9
			c-3.9-0.2-6.7-0.6-6.7-0.6l-4.2-140.9c2.2,0,4.1-0.3,5.7-0.7c7.7-1.9,9.1-7.1,9.1-7.1s9.8,4.4,15,5.9c5.4,1.5,5.5,7.9,5.5,7.9
			c5.6,35.1,7.6,97.8,7.6,97.8C159.5,165.5,154.3,160.8,154.3,160.8z"/>
		<path id="XMLID_797_" class="st9" d="M135,199.8c-3.9-0.2-6.7-0.6-6.7-0.6l-4.2-140.9c2.2,0,4.1-0.3,5.7-0.7L135,199.8z"/>
		<path id="XMLID_794_" class="st8" d="M112.7,50.5c0,0-8,5.2-16.5,8.3c0,0-4.5,1.4-5.7,9.9c0,0-7.7,46.8-7.6,96.2
			c0,0,4.5,2.2,12-1.5c0,0-0.6,29.8-1,34.1c0,0,20.5,4.4,38.1,1.6l-4.3-142.9C127.7,56.1,117.5,57.4,112.7,50.5z"/>
		<g id="XMLID_791_">
			<path class="st1" d="M156.9,58.3c-1.3,4.1-2.4,8.3-3.2,12.5c-0.9,4.2-1.6,8.4-1.9,12.7c-0.1,2.1-0.2,4.3-0.2,6.4
				c0.1,2.1,0.3,4.3,0.4,6.4l0.7,12.9c0.4,8.6,0.7,17.2,1,25.8l0.4,12.9c0.1,4.3,0.2,8.6,0.3,12.9l-0.8-12.9l-0.7-12.9l-1.3-25.8
				L151,96.4c-0.1-2.2-0.3-4.3-0.3-6.5c-0.1-2.2,0.1-4.3,0.3-6.5C151.9,74.8,154,66.4,156.9,58.3z"/>
		</g>
		<g id="XMLID_788_">
			<path class="st1" d="M93.1,61.9c2.9,8,5,16.4,5.9,24.9l0.3,3.2c0,1.1,0.1,2.1,0,3.2c0,2.2-0.2,4.3-0.3,6.4l-0.7,12.8l-1.6,25.5
				l-0.8,12.8l-0.9,12.8c0.1-4.3,0.3-8.5,0.4-12.8l0.5-12.8c0.4-8.5,0.9-17,1.3-25.5L98,99.5c0.1-2.1,0.3-4.3,0.4-6.4
				c0-1.1,0-2.1,0-3.2l-0.2-3.2c-0.4-4.2-1.1-8.4-2-12.6C95.4,70.1,94.3,65.9,93.1,61.9z"/>
		</g>
		<path id="XMLID_787_" class="st10" d="M120,102.9v3.1c0,0-1.1,0.4-2.7,0.7c-1.3,0.3-3.1,0.6-4.9,0.6c-4.2,0.1-4.2-6.5,0-6.5
			c2.1,0,4.1,0.5,5.5,1.1C119.2,102.4,120,102.9,120,102.9z"/>
		<path id="XMLID_786_" class="st2" d="M120,102.9v3.1c0,0-1.1,0.4-2.7,0.7c-2.7-2.2-1.1-3.8,0.5-4.8
			C119.2,102.4,120,102.9,120,102.9z"/>
		<path id="XMLID_783_" class="st11" d="M122.3,104.5c0,1.3-1.1,2.3-2.3,2.3c-1.3,0-2.3-1.1-2.3-2.3c0-1.3,1-2.3,2.3-2.3
			C121.3,102.2,122.3,103.2,122.3,104.5z"/>
		<path id="XMLID_782_" class="st4" d="M120,102.9c0,0-1.3-0.4-2.2-0.3c-1.5,0.1-1.9,3.2,0,3.8c0.8,0.3,2.2-0.4,2.2-0.4V102.9z"/>
		<path id="XMLID_781_" class="st10" d="M132.5,103v3.1c0,0,1.1,0.4,2.7,0.7c1.3,0.3,3.1,0.6,4.9,0.6c4.2,0.1,4.2-6.5,0-6.5
			c-2.1,0-4.1,0.5-5.5,1.1C133.3,102.5,132.5,103,132.5,103z"/>
		<path id="XMLID_780_" class="st2" d="M132.5,103v3.1c0,0,1.1,0.4,2.7,0.7c2.7-2.2,1.1-3.8-0.5-4.8
			C133.3,102.5,132.5,103,132.5,103z"/>
		<path id="XMLID_777_" class="st11" d="M130.1,104.6c0,1.3,1,2.3,2.3,2.3c1.3,0,2.3-1,2.3-2.3c0-1.3-1-2.3-2.3-2.3
			C131.2,102.3,130.1,103.3,130.1,104.6z"/>
		<path id="XMLID_776_" class="st4" d="M132.5,103c0,0,1.3-0.4,2.2-0.3c1.5,0.1,1.9,3.2,0,3.8c-0.8,0.3-2.2-0.4-2.2-0.4V103z"/>
		<line id="XMLID_775_" class="st11" x1="121.8" y1="104.5" x2="130.6" y2="104.5"/>
		<path id="XMLID_774_" class="st6" d="M119.3,104.4c0,0.6-0.5,1-1,1c-0.6,0-1-0.5-1-1c0-0.6,0.5-1,1-1
			C118.8,103.4,119.3,103.9,119.3,104.4z"/>
		<path id="XMLID_773_" class="st6" d="M135.2,104.6c0,0.6-0.5,1-1,1c-0.6,0-1-0.5-1-1c0-0.6,0.5-1,1-1
			C134.8,103.6,135.2,104.1,135.2,104.6z"/>
		<path id="XMLID_771_" class="st10" d="M120,83v3.1c0,0-1.1,0.4-2.7,0.7c-1.3,0.3-3.1,0.6-4.9,0.6c-4.2,0.1-4.2-6.5,0-6.5
			c2.1,0,4.1,0.5,5.5,1.1C119.2,82.5,120,83,120,83z"/>
		<path id="XMLID_770_" class="st2" d="M120,83v3.1c0,0-1.1,0.4-2.7,0.7c-2.7-2.2-1.1-3.8,0.5-4.8C119.2,82.5,120,83,120,83z"/>
		<path id="XMLID_767_" class="st11" d="M122.3,84.6c0,1.3-1.1,2.3-2.3,2.3c-1.3,0-2.3-1-2.3-2.3c0-1.3,1.1-2.3,2.3-2.3
			C121.3,82.2,122.3,83.3,122.3,84.6z"/>
		<path id="XMLID_766_" class="st4" d="M120,83c0,0-1.3-0.4-2.2-0.3c-1.5,0.1-1.9,3.2,0,3.8c0.8,0.3,2.2-0.4,2.2-0.4V83z"/>
		<path id="XMLID_765_" class="st10" d="M132.4,83.1v3.1c0,0,1.1,0.4,2.7,0.7c1.3,0.3,3.1,0.6,4.9,0.6c4.2,0.1,4.2-6.5,0-6.5
			c-2.1,0-4.1,0.5-5.5,1.1C133.3,82.6,132.4,83.1,132.4,83.1z"/>
		<path id="XMLID_764_" class="st2" d="M132.4,83.1v3.1c0,0,1.1,0.4,2.7,0.7c2.7-2.2,1.1-3.8-0.5-4.8
			C133.3,82.6,132.4,83.1,132.4,83.1z"/>
		<path id="XMLID_761_" class="st11" d="M130.1,84.7c0,1.3,1.1,2.3,2.3,2.3c1.3,0,2.3-1.1,2.3-2.3c0-1.3-1.1-2.3-2.3-2.3
			C131.2,82.4,130.1,83.4,130.1,84.7z"/>
		<path id="XMLID_760_" class="st4" d="M132.4,83.1c0,0,1.3-0.4,2.2-0.3c1.5,0.1,1.9,3.2,0,3.8c-0.8,0.3-2.2-0.4-2.2-0.4V83.1z"/>
		<line id="XMLID_759_" class="st11" x1="121.8" y1="84.6" x2="130.6" y2="84.6"/>
		<path id="XMLID_758_" class="st6" d="M119.3,84.5c0,0.6-0.5,1-1,1s-1-0.5-1-1c0-0.6,0.5-1,1-1S119.3,83.9,119.3,84.5z"/>
		<path id="XMLID_757_" class="st6" d="M135.2,84.7c0,0.6-0.5,1-1,1c-0.6,0-1-0.5-1-1c0-0.6,0.5-1,1-1
			C134.7,83.7,135.2,84.1,135.2,84.7z"/>
		<path id="XMLID_755_" class="st10" d="M120,65.5v3.1c0,0-1.1,0.4-2.7,0.7c-1.3,0.3-3.1,0.6-4.9,0.6c-4.2,0.1-4.2-6.5,0-6.5
			c2.1,0,4.1,0.5,5.5,1.1C119.2,65,120,65.5,120,65.5z"/>
		<path id="XMLID_754_" class="st2" d="M120,65.5v3.1c0,0-1.1,0.4-2.7,0.7c-2.7-2.2-1.1-3.8,0.5-4.8C119.2,65,120,65.5,120,65.5z"/>
		<path id="XMLID_751_" class="st11" d="M122.3,67c0,1.3-1.1,2.3-2.3,2.3c-1.3,0-2.3-1.1-2.3-2.3c0-1.3,1.1-2.3,2.3-2.3
			C121.3,64.7,122.3,65.8,122.3,67z"/>
		<path id="XMLID_750_" class="st4" d="M120,65.4c0,0-1.3-0.4-2.2-0.3c-1.5,0.1-1.9,3.2,0,3.8c0.8,0.3,2.2-0.4,2.2-0.4V65.4z"/>
		<path id="XMLID_749_" class="st10" d="M132.4,65.6v3.1c0,0,1.1,0.4,2.7,0.7c1.3,0.3,3.1,0.6,4.9,0.6c4.2,0.1,4.2-6.5,0-6.5
			c-2.1,0-4.1,0.5-5.5,1.1C133.3,65.1,132.4,65.6,132.4,65.6z"/>
		<path id="XMLID_748_" class="st2" d="M132.4,65.6v3.1c0,0,1.1,0.4,2.7,0.7c2.7-2.2,1.1-3.8-0.5-4.8
			C133.3,65.1,132.4,65.6,132.4,65.6z"/>
		<path id="XMLID_432_" class="st11" d="M130.1,67.2c0,1.3,1.1,2.3,2.3,2.3c1.3,0,2.3-1,2.3-2.3c0-1.3-1.1-2.3-2.3-2.3
			C131.2,64.8,130.1,65.9,130.1,67.2z"/>
		<path id="XMLID_102_" class="st4" d="M132.4,65.6c0,0,1.3-0.4,2.2-0.3c1.5,0.1,1.9,3.2,0,3.8c-0.8,0.3-2.2-0.4-2.2-0.4V65.6z"/>
		<line id="XMLID_82_" class="st11" x1="121.8" y1="67" x2="130.6" y2="67"/>
		<path id="XMLID_74_" class="st6" d="M119.3,67c0,0.6-0.5,1-1,1s-1-0.5-1-1c0-0.6,0.5-1,1-1S119.3,66.4,119.3,67z"/>
		<path id="XMLID_68_" class="st6" d="M135.2,67.2c0,0.6-0.5,1-1,1c-0.6,0-1-0.5-1-1c0-0.6,0.5-1,1-1
			C134.7,66.1,135.2,66.6,135.2,67.2z"/>
	</g>
</g>
<g id="gide" class="st12">
</g>
</svg>
