<?xml version="1.0" encoding="utf-8"?>
<!-- Generator: Adobe Illustrator 24.1.2, SVG Export Plug-In . SVG Version: 6.00 Build 0)  -->
<svg version="1.1" xmlns="http://www.w3.org/2000/svg" xmlns:xlink="http://www.w3.org/1999/xlink" x="0px" y="0px"
	 viewBox="0 0 250 250" style="enable-background:new 0 0 250 250;" xml:space="preserve">
<style type="text/css">
	.st0{fill:#F3F3F3;}
	.st1{fill:#255E3C;}
	.st2{fill:#74B992;}
	.st3{fill:#AAAAAA;}
	.st4{fill:#3F8E5F;}
	.st5{fill:#D6D6D6;}
	.st6{display:none;}
</style>
<g id="Layer_1">
	<g id="Layer_2_1_">
	</g>
	<g id="XMLID_575_">
		<path id="XMLID_170_" class="st0" d="M83.8,139.4l-13.9,34.2l5.6,0.6c0,0,18,7.9,23.6,4.3c0.5-0.3,0.9-1.2,2.5-1.2
			c1.5,0,19.7,4.2,25.3,2.3c5.6-1.9,7.5-1.4,9.3-0.8c1.8,0.6,12.6,3.1,14,0.2c0.2-0.4-0.4-1.7,0-1.9c1.4-0.9,3.3,1.5,6.3,1.4
			c3-0.2,14.6-0.2,18.2-2.7c0,0,0.4-17.5-6.6-36.4l-10.6-4l-53.6-1.2L83.8,139.4z"/>
		<path id="XMLID_4_" class="st1" d="M102.2,50c0,0,18,14,45.5,0c0,0,5.2,18.1-23.1,20.3C97.1,72.6,102.2,50,102.2,50z"/>
		<path id="XMLID_640_" class="st2" d="M194.9,185.1l1.7,11.2c-4.9,3.4-13.9,3.8-13.9,3.8l-3.7-10c-3.4,0.3-5.9-10.3-5.9-10.3
			l1.5-0.4c0-6.6-6.6-36.4-6.6-36.4c-18.3,3.9-84.3,0.2-84.3,0.2s-8.6,36.6-9.7,40.5c-1.1,4-3.3,3.4-3.3,3.4l-5.2,12.9
			c-4.1,1-11.5-3-11.5-3l1.4-12.3c-2.4-0.6-2-5-2-5C55.8,159.4,80,62.7,84.6,60.2c3.4-1.9,12-6.9,15.8-9.1c0,0,0,0,0,0
			c1.2-0.7,1.9-1.1,1.9-1.1c24.8,32.8,45.5,0,45.5,0c0.7,0.5,1.4,1,2.1,1.5v0c6.7,4.7,12.1,6.3,15,8.3
			c7.6,5.3,31.9,116.7,31.9,120.4C196.6,184,194.9,185.1,194.9,185.1z"/>
		<g id="XMLID_171_">
			<path class="st3" d="M94.6,143.5c-0.5,2.1-1,4.2-1.5,6.3c-0.5,2.1-0.9,4.2-1.3,6.3c-0.4,2.1-0.8,4.2-1,6.4
				c-0.1,1.1-0.2,2.1-0.3,3.2l-0.1,1.6l0.1,1.6c-0.3-2.1-0.3-4.3-0.1-6.5c0.2-2.2,0.5-4.3,0.9-6.4c0.4-2.1,0.9-4.2,1.4-6.3
				C93.3,147.7,93.9,145.6,94.6,143.5z"/>
		</g>
		<g id="XMLID_563_">
			<path class="st3" d="M98,143.7c0.8,1.1,1.3,2.3,1.8,3.5c0.5,1.2,0.7,2.5,0.9,3.8c0.1,1.3,0.1,2.7-0.1,4c-0.2,1.3-0.7,2.6-1.3,3.7
				c0.2-0.6,0.4-1.2,0.5-1.9l0.2-0.9l0.1-1c0.1-1.3,0.2-2.6,0-3.8c-0.1-1.3-0.4-2.5-0.8-3.8C99,146.1,98.6,144.9,98,143.7z"/>
		</g>
		<g id="XMLID_564_">
			<path class="st3" d="M110.5,144.1l-0.4,5c-0.1,1.7-0.3,3.3-0.3,5c-0.1,1.7-0.2,3.3-0.2,5c0,1.7,0,3.3,0.1,5
				c-0.3-1.7-0.4-3.3-0.5-5c-0.1-1.7,0-3.4,0.1-5c0.1-1.7,0.3-3.4,0.5-5C109.9,147.5,110.2,145.8,110.5,144.1z"/>
		</g>
		<g id="XMLID_566_">
			<path class="st3" d="M117.5,144.3c0.7,2.5,1.3,5.1,1.9,7.7c0.5,2.6,1,5.2,1.3,7.8c0.3,2.6,0.6,5.2,0.6,7.9c0,2.6-0.1,5.3-0.8,7.9
				l0.3-1.9l0.1-2c0-1.3,0.1-2.6,0-3.9c-0.1-2.6-0.4-5.2-0.7-7.8c-0.3-2.6-0.7-5.2-1.2-7.8C118.5,149.5,118,146.9,117.5,144.3z"/>
		</g>
		<g id="XMLID_567_">
			<path class="st3" d="M90.4,143.3c-1.3,1.5-2.4,3.3-3.3,5.1c-0.9,1.8-1.6,3.7-2.2,5.6c-0.5,1.9-0.9,3.9-1.1,5.9
				c-0.2,1-0.1,2-0.2,3c0,1,0,2,0,3c-0.1-1-0.2-2-0.2-3c0-1,0-2,0.1-3.1l0.1-1.5l0.2-1.5c0.1-1,0.4-2,0.6-3c0.6-2,1.3-3.9,2.3-5.7
				C87.8,146.5,88.9,144.7,90.4,143.3z"/>
		</g>
		<g id="XMLID_574_">
			<path class="st3" d="M126,144.5c1,0.8,1.6,1.9,2.2,3.1c0.5,1.2,0.8,2.4,0.9,3.7c0.1,1.3,0,2.6-0.3,3.8c-0.1,0.6-0.3,1.2-0.5,1.8
				c-0.2,0.6-0.5,1.2-0.7,1.8l0.5-1.8c0.1-0.6,0.3-1.2,0.3-1.8c0.2-1.2,0.3-2.5,0.2-3.7c-0.1-1.2-0.3-2.4-0.7-3.6
				C127.3,146.6,126.8,145.5,126,144.5z"/>
		</g>
		<g id="XMLID_606_">
			<path class="st3" d="M135.8,144.6c-0.6,1.6-1.1,3.2-1.6,4.8c-0.5,1.6-1,3.2-1.4,4.9c-0.4,1.6-0.7,3.3-0.9,4.9
				c-0.2,1.7-0.2,3.4,0.1,5c-0.6-1.6-0.6-3.3-0.5-5c0.1-1.7,0.4-3.4,0.8-5c0.4-1.6,0.9-3.3,1.5-4.9
				C134.4,147.7,135,146.1,135.8,144.6z"/>
		</g>
		<g id="XMLID_608_">
			<path class="st3" d="M139.7,144.6c1.7,2.2,2.7,4.9,3.3,7.6c0.6,2.7,0.7,5.5,0.5,8.3c-0.1,2.8-0.6,5.5-1.2,8.2
				c-0.4,1.3-0.7,2.7-1.1,4l-1.4,3.9l1.2-4l1-4c0.5-2.7,1-5.4,1.1-8.1c0.2-2.7,0.1-5.5-0.4-8.2c-0.1-0.7-0.3-1.3-0.4-2
				c-0.2-0.7-0.4-1.3-0.6-2C141.1,147,140.5,145.7,139.7,144.6z"/>
		</g>
		<g id="XMLID_609_">
			<path class="st3" d="M145.5,144.5c1.3,1.9,2.3,3.9,3.1,5.9c0.9,2.1,1.6,4.2,2.1,6.4c0.5,2.2,0.9,4.4,1,6.7
				c0.2,2.2,0.1,4.5-0.2,6.7c0-2.2,0-4.5-0.2-6.7c-0.1-1.1-0.3-2.2-0.4-3.3c-0.2-1.1-0.4-2.2-0.7-3.3c-0.5-2.2-1.2-4.3-2-6.4
				C147.4,148.5,146.5,146.5,145.5,144.5z"/>
		</g>
		<g id="XMLID_610_">
			<path class="st3" d="M156.4,144.1c-0.1,2.6,0.2,5.2,0.5,7.7c0.4,2.5,0.9,5.1,1.6,7.5c0.7,2.5,1.5,4.9,2.5,7.3
				c0.9,2.4,2,4.7,3.2,7c-0.6-1.1-1.3-2.2-1.9-3.4c-0.6-1.2-1.2-2.3-1.7-3.5l-0.8-1.8l-0.7-1.8c-0.5-1.2-0.8-2.5-1.2-3.7
				c-0.7-2.5-1.2-5.1-1.5-7.6C156.2,149.3,156.1,146.7,156.4,144.1z"/>
		</g>
		<g id="XMLID_611_">
			<path class="st3" d="M163.5,143.5c1,1.6,1.7,3.3,2.4,5.1c0.7,1.7,1.2,3.5,1.6,5.4c0.4,1.8,0.8,3.7,0.9,5.5
				c0.2,1.9,0.2,3.7,0.2,5.6c-0.2-1.9-0.3-3.7-0.6-5.5c-0.3-1.8-0.6-3.7-1-5.4c-0.4-1.8-0.9-3.6-1.5-5.3
				C165,147,164.3,145.2,163.5,143.5z"/>
		</g>
		<path id="XMLID_638_" class="st4" d="M149.8,51.5L149.8,51.5c-25.4,36.4-48.7,0.8-49.5-0.4c0,0,0,0,0,0c1.2-0.7,1.9-1.1,1.9-1.1
			c24.8,32.8,45.5,0,45.5,0C148.4,50.5,149.1,51,149.8,51.5z"/>
		<g id="XMLID_155_">
			<path class="st4" d="M84.6,60.2c0.8,3.4,1.3,6.8,1.8,10.3c0.5,3.4,0.8,6.9,1.1,10.4c0.6,6.9,0.8,13.9,0.8,20.8
				c-0.1,7-0.4,13.9-1.2,20.8c-0.2,1.7-0.3,3.5-0.6,5.2l-0.8,5.2c-0.2,1.7-0.6,3.4-0.9,5.1l-1,5.1c1-6.9,2-13.7,2.5-20.6
				c0.3-3.4,0.5-6.9,0.7-10.4c0.1-1.7,0.1-3.5,0.2-5.2c0.1-1.7,0.1-3.5,0.1-5.2c0.1-6.9-0.1-13.9-0.5-20.8
				C86.3,73.9,85.6,67,84.6,60.2z"/>
		</g>
		<g id="XMLID_612_">
			<path class="st4" d="M164.8,59.8c-0.3,3.5-0.6,6.9-0.8,10.4c-0.2,3.5-0.4,6.9-0.5,10.4c-0.2,6.9-0.3,13.9-0.1,20.8
				c0.1,6.9,0.6,13.9,1.3,20.8l0.6,5.2c0.2,1.7,0.5,3.4,0.8,5.1c0.4,3.5,1.3,6.8,1.9,10.2c-1.9-6.7-3.2-13.6-4.1-20.5
				c-0.8-6.9-1.4-13.9-1.6-20.8c-0.1-7,0-13.9,0.4-20.9C163.1,73.7,163.7,66.7,164.8,59.8z"/>
		</g>
		<path id="XMLID_3_" class="st5" d="M93.7,132.3c0,0.7-0.6,1.2-1.2,1.2c-0.7,0-1.2-0.5-1.2-1.2c0-0.7,0.5-1.2,1.2-1.2
			C93.2,131.1,93.7,131.6,93.7,132.3z"/>
		<path id="XMLID_605_" class="st5" d="M114.9,128.9c0,0.7-0.5,1.2-1.2,1.2c-0.7,0-1.2-0.6-1.2-1.2c0-0.7,0.5-1.2,1.2-1.2
			C114.4,127.7,114.9,128.2,114.9,128.9z"/>
		<path id="XMLID_613_" class="st5" d="M139,127.7c0,0.7-0.5,1.2-1.2,1.2c-0.7,0-1.2-0.6-1.2-1.2c0-0.7,0.6-1.2,1.2-1.2
			C138.5,126.4,139,127,139,127.7z"/>
		<path id="XMLID_614_" class="st5" d="M158.8,131.1c0,0.7-0.5,1.2-1.2,1.2c-0.7,0-1.2-0.6-1.2-1.2c0-0.7,0.5-1.2,1.2-1.2
			C158.2,129.9,158.8,130.4,158.8,131.1z"/>
		<path id="XMLID_615_" class="st5" d="M151,115c0,0.7-0.5,1.2-1.2,1.2c-0.7,0-1.2-0.5-1.2-1.2c0-0.7,0.5-1.2,1.2-1.2
			C150.5,113.8,151,114.3,151,115z"/>
		<path id="XMLID_644_" class="st5" d="M167.3,102.6c0,0.7-0.5,1.2-1.2,1.2c-0.7,0-1.2-0.5-1.2-1.2c0-0.7,0.5-1.2,1.2-1.2
			C166.8,101.3,167.3,101.9,167.3,102.6z"/>
		<path id="XMLID_645_" class="st5" d="M125,112.5c0,0.7-0.5,1.2-1.2,1.2c-0.7,0-1.2-0.5-1.2-1.2c0-0.7,0.6-1.2,1.2-1.2
			C124.4,111.3,125,111.9,125,112.5z"/>
		<path id="XMLID_646_" class="st5" d="M100.5,115c0,0.7-0.5,1.2-1.2,1.2c-0.7,0-1.2-0.5-1.2-1.2c0-0.7,0.5-1.2,1.2-1.2
			C100,113.8,100.5,114.3,100.5,115z"/>
		<path id="XMLID_647_" class="st5" d="M84.7,101.6c0,0.7-0.5,1.2-1.2,1.2c-0.7,0-1.2-0.5-1.2-1.2c0-0.7,0.5-1.2,1.2-1.2
			C84.2,100.4,84.7,100.9,84.7,101.6z"/>
		<path id="XMLID_648_" class="st5" d="M110.6,100.4c0,0.7-0.5,1.2-1.2,1.2c-0.7,0-1.2-0.5-1.2-1.2c0-0.7,0.6-1.2,1.2-1.2
			C110.1,99.1,110.6,99.7,110.6,100.4z"/>
		<path id="XMLID_649_" class="st5" d="M139,99.1c0,0.7-0.5,1.2-1.2,1.2c-0.7,0-1.2-0.5-1.2-1.2c0-0.7,0.6-1.2,1.2-1.2
			C138.5,97.9,139,98.5,139,99.1z"/>
		<path id="XMLID_650_" class="st5" d="M123.8,87.7c0,0.7-0.5,1.2-1.2,1.2c-0.7,0-1.2-0.5-1.2-1.2c0-0.7,0.6-1.2,1.2-1.2
			C123.2,86.5,123.8,87,123.8,87.7z"/>
		<path id="XMLID_651_" class="st5" d="M136.2,74.3c0,0.7-0.5,1.2-1.2,1.2c-0.7,0-1.2-0.5-1.2-1.2c0-0.7,0.6-1.2,1.2-1.2
			C135.6,73,136.2,73.6,136.2,74.3z"/>
		<path id="XMLID_655_" class="st5" d="M108.2,73c0,0.7-0.5,1.2-1.2,1.2c-0.7,0-1.2-0.5-1.2-1.2c0-0.7,0.5-1.2,1.2-1.2
			C107.6,71.8,108.2,72.4,108.2,73z"/>
		<path id="XMLID_656_" class="st5" d="M97.1,88.9c0,0.7-0.5,1.2-1.2,1.2c-0.7,0-1.2-0.5-1.2-1.2c0-0.7,0.5-1.2,1.2-1.2
			C96.5,87.7,97.1,88.3,97.1,88.9z"/>
		<path id="XMLID_657_" class="st5" d="M82.3,78c0,0.7-0.5,1.2-1.2,1.2c-0.7,0-1.2-0.5-1.2-1.2c0-0.7,0.5-1.2,1.2-1.2
			C81.7,76.7,82.3,77.3,82.3,78z"/>
		<path id="XMLID_658_" class="st5" d="M91.6,61.1c0,0.7-0.5,1.2-1.2,1.2c-0.7,0-1.2-0.6-1.2-1.2c0-0.7,0.5-1.2,1.2-1.2
			C91.1,59.8,91.6,60.4,91.6,61.1z"/>
		<path id="XMLID_652_" class="st5" d="M152.9,86.5c0,0.7-0.5,1.2-1.2,1.2c-0.7,0-1.2-0.5-1.2-1.2c0-0.7,0.5-1.2,1.2-1.2
			C152.4,85.2,152.9,85.8,152.9,86.5z"/>
		<path id="XMLID_653_" class="st5" d="M170.5,76.7c0,0.7-0.5,1.2-1.2,1.2c-0.7,0-1.2-0.5-1.2-1.2c0-0.7,0.6-1.2,1.2-1.2
			C169.9,75.5,170.5,76.1,170.5,76.7z"/>
		<path id="XMLID_654_" class="st5" d="M156.3,58.9c0,0.7-0.6,1.2-1.2,1.2c-0.7,0-1.2-0.5-1.2-1.2c0-0.7,0.6-1.2,1.2-1.2
			C155.7,57.7,156.3,58.2,156.3,58.9z"/>
	</g>
</g>
<g id="gide" class="st6">
</g>
</svg>
