<?xml version="1.0" encoding="utf-8"?>
<!-- Generator: Adobe Illustrator 24.1.2, SVG Export Plug-In . SVG Version: 6.00 Build 0)  -->
<svg version="1.1" xmlns="http://www.w3.org/2000/svg" xmlns:xlink="http://www.w3.org/1999/xlink" x="0px" y="0px"
	 viewBox="0 0 250 250" style="enable-background:new 0 0 250 250;" xml:space="preserve">
<style type="text/css">
	.st0{fill:#20697B;}
	.st1{fill:#144D56;}
	.st2{fill:#1D2D2D;}
	.st3{fill:#58BFA7;}
	.st4{fill:#5DA7AF;}
	.st5{fill:#355050;}
	.st6{fill:#2B2B32;}
	.st7{fill:#16171C;}
	.st8{display:none;}
</style>
<g id="Layer_1">
	<g id="Layer_2_1_">
	</g>
	<g>
		<g>
			<path id="XMLID_481_" class="st0" d="M147.4,118.8c3.4,10.5,16.4,72.9,16.4,72.9s-6.2,4.7-27.5,6.3l0,1.5
				c-3.3,0.2-7.3,0.5-11.3,0.4c-30,0.3-38.8-8.2-38.8-8.2s13-62.4,16.4-72.9c3.4-10.5,0-23.3,0-23.3l-10.7,55l-0.9,4.7l-0.1,0.2
				l-11.5-1.4l0.1-0.3l0.7-4.9l11.5-75.5c0,0,1.5-11.5,6.1-12.2c4.6-0.7,9.5-2.5,9.5-2.5c0.6-0.1,1.2-0.4,1.8-0.6
				c1.8-0.9,3.2-2.3,4.1-3.4c0.6-0.7,1-1.3,1-1.3c0.3-1.9,3.2-2.7,5.9-3.1c1.9-0.3,3.8-0.3,4.8-0.3c1.1,0,3.3,0.1,5.4,0.4
				c2.6,0.4,5,1.3,5.4,3c0,0,1.3,2,3.3,3.6c0.6,0.5,1.3,1,2.1,1.3c0.4,0.2,0.9,0.4,1.4,0.5c0,0,4.9,1.8,9.5,2.5
				c4.6,0.7,6.1,12.2,6.1,12.2l12.3,80.7l-11.5,1.4l-11.7-60C147.4,95.6,144,108.3,147.4,118.8z"/>
			<path class="st1" d="M124.4,64.4c12,0.4,10.9-12,10.5-12.3c-1-0.8-2.7-1.3-4.5-1.6c-2.1-0.3-4.2-0.4-5.4-0.4
				c-1,0-2.9,0.1-4.8,0.3c-1.9,0.3-3.9,0.8-5,1.7C114.2,56.5,115.6,64.1,124.4,64.4z"/>
			<g id="XMLID_152_">
				<path class="st2" d="M135.9,66.6l0.4,16.4l0.3,16.4l0.4,32.9c0,11,0,21.9,0,32.9c0,5.5-0.1,11-0.2,16.4l-0.2,8.2l-0.3,8.2
					l0.1-8.2l0.1-8.2l0.1-16.4c0-11,0-21.9-0.1-32.9l-0.2-32.9L135.9,66.6z"/>
			</g>
			<path id="XMLID_439_" class="st3" d="M135.1,58.3l-2.6,8.9c-1.6-1.1-3.1-2.4-3.8-3c-0.3-0.3-0.5-0.4-0.5-0.4l-0.6,0.7h-5.3
				l-0.5-0.8c0,0-0.4,0.3-1.2,0.8c-1.1,0.7-3,1.9-4.9,3c-0.3-4-0.6-9.2-0.6-9.2H135.1z"/>
			<path id="XMLID_435_" class="st4" d="M141.2,59.9c-0.5,3.5-1.3,7.9-2,10.3c-1.2,4.2-11.3-4.8-11.3-4.8l-0.6,0.7h-5.5l-0.5-0.8
				c0,0-12.4,8.5-13.1,5.4c-0.6-2.3,0-9.6,0.3-12.4c0.3-0.1,0.3-0.1,0.6-0.3c2.7-1.6,4.5-3,4.5-3c0.2-1.2,1.5-2,3.2-2.5
				c-0.2,0.3-0.3,0.7-0.3,1.2c-0.5,0.6-0.7,1.3-0.7,2.3c0.3,3.5,3.5,7,4.9,8.4c0.4,0.4,0.7,0.7,0.7,0.7L122,66l5.3,0l0.5-0.7
				c0,0,0.4-0.4,0.9-1.2c1.5-2.1,4.6-6.4,4.3-8.2c0-0.1,0-0.1,0-0.2c0.2-0.6,0.3-1.1,0.2-1.5c-0.1-0.5-0.3-1-0.6-1.5
				c1.6,0.5,2.8,1.3,3,2.4c0,0,2.7,1.9,5.9,3.3C141.5,58.4,141.1,59.9,141.2,59.9z"/>
			<path id="XMLID_446_" class="st4" d="M141.2,58.3c-0.1,0.5-0.2,1-0.2,1.6c-0.5,3.2-1.1,6.7-1.7,8.7c-0.7,2.3-3.9,0.6-6.7-1.4
				c-1.6-1.1-3.1-2.4-3.8-3c-0.3-0.3-0.5-0.4-0.5-0.4l-0.6,0.7h-5.3l-0.5-0.8c0,0-0.4,0.3-1.2,0.8c-1.1,0.7-3,1.9-4.9,3
				c-3.2,1.8-6.4,3.2-6.8,1.7c-0.5-2-0.2-6.7,0.1-9.7c0-0.5,0.1-0.9,0.1-1.3c3-1.5,5-4.7,5-4.7c0.3-1.9,3.2-2.7,5.9-3.1
				c-1.4,0.4-2.8,1-3.5,2.3c-0.2,0.3-0.3,0.7-0.3,1.2c-0.1,0.2-0.1,0.4,0,0.6c0.1,1.3,0.6,2.7,1.3,3.9c1.6,2.9,4.2,5.1,4.2,5.1
				l0.5,0.9l5.2,0l0.5-0.7c0,0,2.1-2.7,3.6-5.4c0.5-0.9,0.9-1.8,1.2-2.5c0.2-0.6,0.3-1.1,0.2-1.5c-0.1-0.5-0.3-1-0.6-1.5
				c-0.6-0.9-1.5-1.7-2.2-2.3c2.6,0.4,5,1.3,5.4,3C135.8,53.4,138,56.9,141.2,58.3z"/>
			<g id="XMLID_448_">
				<path class="st2" d="M96.9,61.6c0.5,2.8,1,5.7,1.4,8.5c0.4,2.8,0.8,5.7,1.1,8.6c0.3,2.9,0.6,5.7,1.1,8.6
					c0.2,1.4,0.5,2.8,0.9,4.2c0.2,0.7,0.4,1.4,0.6,2.1c0.2,0.7,0.5,1.3,0.6,2.1c-0.1-0.7-0.5-1.4-0.7-2c-0.2-0.7-0.5-1.4-0.7-2
					c-0.4-1.4-0.7-2.8-0.9-4.2c-0.5-2.8-0.9-5.7-1.2-8.6c-0.3-2.9-0.6-5.7-1-8.6L96.9,61.6z"/>
			</g>
			<g id="XMLID_450_">
				<path class="st2" d="M153,61.6l-1.2,8.5c-0.4,2.9-0.7,5.7-1,8.6c-0.3,2.9-0.7,5.7-1.2,8.6c-0.3,1.4-0.5,2.8-0.9,4.2
					c-0.2,0.7-0.5,1.4-0.7,2c-0.2,0.7-0.6,1.3-0.7,2c0.1-0.7,0.4-1.4,0.6-2.1c0.2-0.7,0.5-1.4,0.6-2.1c0.4-1.4,0.6-2.8,0.9-4.2
					c0.5-2.8,0.8-5.7,1.1-8.6c0.3-2.9,0.7-5.7,1.1-8.6C152.1,67.3,152.5,64.4,153,61.6z"/>
			</g>
			<polygon id="XMLID_478_" class="st5" points="92,150.6 91,155.3 79.6,153.8 80.3,148.9 			"/>
			<polygon id="XMLID_471_" class="st4" points="79.5,149.5 92.4,151.3 91.5,156.1 78.9,154.4 			"/>
			<polygon id="XMLID_474_" class="st5" points="169.7,148.6 170.4,153.4 159,155.3 158.1,150.4 			"/>
			<polygon id="XMLID_447_" class="st4" points="157.5,151.2 170.4,149.2 171.1,154 158.6,156.1 			"/>
		</g>
		<g>
			<g>
				<path id="XMLID_209_" class="st6" d="M120.4,90.8c0,1.2-1,2.2-2.2,2.2c-1.2,0-2.2-1-2.2-2.2c0-1.2,1-2.2,2.2-2.2
					C119.4,88.5,120.4,89.5,120.4,90.8z"/>
				<path id="XMLID_227_" class="st7" d="M119.1,90.8c0,0.5-0.4,1-1,1s-1-0.4-1-1c0-0.5,0.4-1,1-1S119.1,90.2,119.1,90.8z"/>
			</g>
			<g>
				<path id="XMLID_449_" class="st6" d="M120.4,107.7c0,1.2-1,2.2-2.2,2.2c-1.2,0-2.2-1-2.2-2.2c0-1.2,1-2.2,2.2-2.2
					C119.4,105.4,120.4,106.4,120.4,107.7z"/>
				<path id="XMLID_436_" class="st7" d="M119.1,107.7c0,0.5-0.4,1-1,1s-1-0.4-1-1c0-0.5,0.4-1,1-1S119.1,107.1,119.1,107.7z"/>
				<path id="XMLID_456_" class="st6" d="M134.5,107.7c0,1.2-1,2.2-2.2,2.2c-1.2,0-2.2-1-2.2-2.2c0-1.2,1-2.2,2.2-2.2
					C133.5,105.4,134.5,106.4,134.5,107.7z"/>
				<path id="XMLID_453_" class="st7" d="M133.2,107.7c0,0.5-0.4,1-1,1c-0.5,0-1-0.4-1-1c0-0.5,0.4-1,1-1
					C132.8,106.7,133.2,107.1,133.2,107.7z"/>
			</g>
			<g>
				<path id="XMLID_462_" class="st6" d="M134.5,90.8c0,1.2-1,2.2-2.2,2.2c-1.2,0-2.2-1-2.2-2.2c0-1.2,1-2.2,2.2-2.2
					C133.5,88.5,134.5,89.5,134.5,90.8z"/>
				<path id="XMLID_459_" class="st7" d="M133.2,90.8c0,0.5-0.4,1-1,1c-0.5,0-1-0.4-1-1c0-0.5,0.4-1,1-1
					C132.8,89.8,133.2,90.2,133.2,90.8z"/>
			</g>
			<g>
				<path id="XMLID_479_" class="st6" d="M120.4,75.8c0,1.2-1,2.2-2.2,2.2c-1.2,0-2.2-1-2.2-2.2c0-1.2,1-2.2,2.2-2.2
					C119.4,73.6,120.4,74.6,120.4,75.8z"/>
				<path id="XMLID_472_" class="st7" d="M119.1,75.8c0,0.5-0.4,1-1,1s-1-0.4-1-1c0-0.5,0.4-1,1-1S119.1,75.3,119.1,75.8z"/>
			</g>
			<g>
				<path id="XMLID_466_" class="st6" d="M134.5,75.8c0,1.2-1,2.2-2.2,2.2c-1.2,0-2.2-1-2.2-2.2c0-1.2,1-2.2,2.2-2.2
					C133.5,73.6,134.5,74.6,134.5,75.8z"/>
				<path id="XMLID_463_" class="st7" d="M133.2,75.8c0,0.5-0.4,1-1,1c-0.5,0-1-0.4-1-1c0-0.5,0.4-1,1-1
					C132.8,74.8,133.2,75.3,133.2,75.8z"/>
			</g>
		</g>
		<g>
			<path id="XMLID_487_" class="st6" d="M169.2,152.1c-0.1,0.8-0.9,1.4-1.7,1.3c-0.8-0.1-1.4-0.9-1.3-1.7c0.1-0.8,0.9-1.4,1.7-1.3
				C168.8,150.6,169.3,151.3,169.2,152.1z"/>
			<path id="XMLID_473_" class="st7" d="M168.4,152c0,0.4-0.4,0.6-0.7,0.6c-0.4-0.1-0.6-0.4-0.6-0.7c0-0.4,0.4-0.6,0.7-0.6
				C168.2,151.3,168.4,151.7,168.4,152z"/>
		</g>
		<g>
			<path id="XMLID_440_" class="st6" d="M82.6,152.3c-0.1,0.8-0.9,1.4-1.7,1.3c-0.8-0.1-1.4-0.9-1.3-1.7c0.1-0.8,0.9-1.4,1.7-1.3
				C82.1,150.7,82.7,151.5,82.6,152.3z"/>
			<path id="XMLID_65_" class="st7" d="M81.7,152.2c0,0.4-0.4,0.6-0.7,0.6c-0.4,0-0.6-0.4-0.6-0.7c0-0.4,0.4-0.6,0.7-0.6
				C81.5,151.5,81.8,151.8,81.7,152.2z"/>
		</g>
	</g>
</g>
<g id="gide" class="st8">
</g>
</svg>
