<?xml version="1.0" encoding="utf-8"?>
<!-- Generator: Adobe Illustrator 24.1.2, SVG Export Plug-In . SVG Version: 6.00 Build 0)  -->
<svg version="1.1" id="Layer_1" xmlns="http://www.w3.org/2000/svg" xmlns:xlink="http://www.w3.org/1999/xlink" x="0px" y="0px"
	 viewBox="0 0 100 17.9" style="enable-background:new 0 0 100 17.9;" xml:space="preserve">
<style type="text/css">
	.st0{fill:#121F36;}
</style>
<g>
	<polygon class="st0" points="2.3,9.8 7.1,9.8 7.1,14.4 9.4,14.4 9.4,3.3 7.1,3.3 7.1,7.9 2.3,7.9 2.3,3.3 0,3.3 0,14.4 2.3,14.4 	
		"/>
	<path class="st0" d="M13,14.1c0.6,0.4,1.2,0.5,2,0.5c0.7,0,1.4-0.2,2-0.5c0.6-0.4,1-0.9,1.3-1.5c0.3-0.6,0.5-1.4,0.5-2.2
		c0-0.9-0.2-1.6-0.5-2.3c-0.3-0.6-0.8-1.1-1.3-1.5c-0.6-0.4-1.2-0.5-2-0.5c-0.7,0-1.4,0.2-2,0.5c-0.6,0.4-1,0.9-1.3,1.5
		c-0.3,0.6-0.5,1.4-0.5,2.3c0,0.9,0.2,1.6,0.5,2.2C12,13.2,12.4,13.7,13,14.1z M12.7,8.8c0.2-0.5,0.4-0.9,0.8-1.2
		c0.4-0.3,0.8-0.4,1.4-0.4c0.6,0,1,0.1,1.4,0.4c0.4,0.3,0.6,0.7,0.8,1.2c0.2,0.5,0.3,1,0.3,1.6c0,0.6-0.1,1.1-0.3,1.5
		c-0.2,0.5-0.4,0.9-0.8,1.2s-0.8,0.4-1.4,0.4c-0.6,0-1-0.1-1.4-0.4c-0.4-0.3-0.6-0.7-0.8-1.2c-0.2-0.5-0.3-1-0.3-1.5
		C12.4,9.8,12.5,9.2,12.7,8.8z"/>
	<path class="st0" d="M21.9,14.2c0.4,0.2,0.9,0.3,1.4,0.3c0.6,0,1.1-0.1,1.6-0.4c0.4-0.3,0.7-0.7,0.9-1.1h0.1v1.4h1.3V6.1h-1.3V11
		c0,0.5-0.1,0.9-0.3,1.3c-0.2,0.3-0.5,0.6-0.8,0.7c-0.3,0.2-0.7,0.2-1,0.2c-0.5,0-1-0.2-1.3-0.5c-0.3-0.4-0.5-0.8-0.5-1.4V6.1h-1.3
		v5.3c0,0.7,0.1,1.3,0.3,1.8C21.2,13.6,21.5,13.9,21.9,14.2z"/>
	<path class="st0" d="M32.3,13.5c-0.5,0-0.9-0.1-1.3-0.3c-0.3-0.2-0.5-0.6-0.7-1l-1.2,0.3c0.1,0.7,0.5,1.2,1.1,1.6
		c0.6,0.4,1.3,0.6,2.1,0.6c0.6,0,1.2-0.1,1.7-0.3c0.5-0.2,0.9-0.5,1.1-0.9c0.3-0.4,0.4-0.8,0.4-1.3c0-0.6-0.2-1.1-0.5-1.4
		c-0.4-0.4-0.9-0.6-1.7-0.8l-1.2-0.3c-0.5-0.1-0.9-0.3-1.1-0.5c-0.2-0.2-0.3-0.4-0.3-0.8c0-0.4,0.2-0.7,0.5-0.9
		c0.3-0.2,0.8-0.3,1.3-0.3c0.4,0,0.7,0.1,0.9,0.2s0.4,0.3,0.6,0.5c0.1,0.2,0.2,0.4,0.3,0.6L35.4,8c-0.2-0.6-0.5-1.1-1-1.4
		C33.9,6.2,33.2,6,32.4,6c-0.6,0-1.1,0.1-1.6,0.3S30,6.8,29.8,7.2c-0.3,0.4-0.4,0.8-0.4,1.2c0,0.6,0.2,1,0.5,1.4
		c0.4,0.4,0.9,0.7,1.7,0.8L33,11c0.4,0.1,0.7,0.2,0.9,0.4c0.2,0.2,0.3,0.4,0.3,0.7c0,0.4-0.2,0.7-0.5,0.9
		C33.3,13.3,32.8,13.5,32.3,13.5z"/>
	<path class="st0" d="M38.9,14.1c0.6,0.4,1.3,0.5,2.1,0.5c0.6,0,1.1-0.1,1.5-0.3s0.8-0.4,1.1-0.7c0.3-0.3,0.5-0.7,0.7-1.1L43,12.1
		c-0.1,0.3-0.3,0.5-0.5,0.7c-0.2,0.2-0.4,0.3-0.7,0.4c-0.3,0.1-0.6,0.1-0.9,0.1c-0.5,0-1-0.1-1.4-0.3c-0.4-0.2-0.7-0.6-0.9-1
		c-0.2-0.4-0.3-0.9-0.3-1.4h6v-0.5c0-0.8-0.1-1.4-0.3-2c-0.2-0.5-0.5-1-0.8-1.3c-0.3-0.3-0.7-0.6-1.2-0.7C41.6,6.1,41.2,6,40.8,6
		c-0.7,0-1.4,0.2-2,0.5c-0.6,0.4-1,0.9-1.3,1.5C37.2,8.7,37,9.5,37,10.3c0,0.9,0.2,1.6,0.5,2.2C37.8,13.2,38.3,13.7,38.9,14.1z
		 M38.6,8.5c0.2-0.4,0.5-0.7,0.9-1c0.4-0.3,0.8-0.4,1.3-0.4c0.5,0,0.9,0.1,1.2,0.3c0.3,0.2,0.6,0.5,0.8,0.9c0.2,0.4,0.3,0.8,0.3,1.3
		h-4.7C38.4,9.2,38.5,8.8,38.6,8.5z"/>
	<polygon class="st0" points="46.1,14.4 48.4,14.4 48.4,9.8 52.9,9.8 52.9,7.9 48.4,7.9 48.4,5.3 53.4,5.3 53.4,3.3 46.1,3.3 	"/>
	<path class="st0" d="M60.3,6.5c-0.3-0.2-0.7-0.3-1-0.4C59,6,58.7,6,58.4,6c-0.4,0-0.8,0.1-1.3,0.2c-0.4,0.1-0.8,0.3-1.2,0.6
		c-0.4,0.3-0.7,0.7-0.9,1.2l1.2,0.4c0.1-0.3,0.4-0.6,0.7-0.9c0.3-0.3,0.8-0.4,1.4-0.4c0.6,0,1,0.1,1.3,0.4c0.3,0.3,0.4,0.7,0.4,1.2
		v0c0,0.2-0.1,0.3-0.2,0.4c-0.1,0.1-0.4,0.1-0.7,0.2c-0.3,0-0.7,0.1-1.2,0.1c-0.4,0.1-0.8,0.1-1.1,0.2c-0.4,0.1-0.7,0.2-1,0.4
		c-0.3,0.2-0.6,0.4-0.8,0.7s-0.3,0.7-0.3,1.2c0,0.5,0.1,1,0.4,1.4c0.3,0.4,0.6,0.7,1,0.9c0.4,0.2,0.9,0.3,1.4,0.3
		c0.5,0,0.9-0.1,1.2-0.2c0.3-0.1,0.6-0.3,0.8-0.5s0.3-0.4,0.4-0.6h0.1v1.1h1.3V8.9c0-0.7-0.1-1.2-0.3-1.6C60.9,7,60.6,6.7,60.3,6.5z
		 M60.2,11.4c0,0.3-0.1,0.7-0.3,1c-0.2,0.3-0.4,0.6-0.8,0.8s-0.8,0.3-1.3,0.3c-0.5,0-0.9-0.1-1.3-0.3c-0.3-0.2-0.5-0.6-0.5-1
		c0-0.3,0.1-0.6,0.3-0.8c0.2-0.2,0.4-0.3,0.7-0.4c0.3-0.1,0.6-0.2,0.9-0.2c0.1,0,0.3,0,0.5-0.1s0.5-0.1,0.7-0.1
		c0.2,0,0.4-0.1,0.6-0.1c0.2-0.1,0.3-0.1,0.4-0.2V11.4z"/>
	<path class="st0" d="M67.6,9.9l-1.2-0.3c-0.5-0.1-0.9-0.3-1.1-0.5C65.1,8.9,65,8.7,65,8.3c0-0.4,0.2-0.7,0.5-0.9
		c0.3-0.2,0.8-0.3,1.3-0.3c0.4,0,0.7,0.1,0.9,0.2c0.2,0.1,0.4,0.3,0.6,0.5s0.2,0.4,0.3,0.6L69.7,8c-0.2-0.6-0.5-1.1-1-1.4
		C68.2,6.2,67.5,6,66.7,6c-0.6,0-1.1,0.1-1.6,0.3c-0.5,0.2-0.8,0.5-1.1,0.8c-0.3,0.4-0.4,0.8-0.4,1.2c0,0.6,0.2,1,0.5,1.4
		c0.4,0.4,0.9,0.7,1.7,0.8l1.4,0.3c0.4,0.1,0.7,0.2,0.9,0.4c0.2,0.2,0.3,0.4,0.3,0.7c0,0.4-0.2,0.7-0.5,0.9
		c-0.4,0.3-0.8,0.4-1.4,0.4c-0.5,0-0.9-0.1-1.3-0.3c-0.3-0.2-0.5-0.6-0.7-1l-1.2,0.3c0.1,0.7,0.5,1.2,1.1,1.6
		c0.6,0.4,1.3,0.6,2.1,0.6c0.6,0,1.2-0.1,1.7-0.3c0.5-0.2,0.9-0.5,1.1-0.9c0.3-0.4,0.4-0.8,0.4-1.3c0-0.6-0.2-1.1-0.5-1.4
		C68.9,10.3,68.4,10,67.6,9.9z"/>
	<path class="st0" d="M77.1,6.3C76.6,6.1,76.1,6,75.6,6c-0.7,0-1.2,0.1-1.6,0.4c-0.4,0.3-0.7,0.6-0.9,1H73V3.3h-1.3v11.1H73v-5
		c0-0.5,0.1-0.9,0.3-1.2c0.2-0.3,0.4-0.6,0.8-0.8c0.3-0.2,0.7-0.3,1.1-0.3c0.6,0,1.1,0.2,1.4,0.5c0.3,0.4,0.5,0.9,0.5,1.5v5.2h1.3
		V9.1c0-0.7-0.1-1.3-0.4-1.8C77.8,6.9,77.5,6.6,77.1,6.3z"/>
	<path class="st0" d="M81.4,3c-0.2,0-0.5,0.1-0.6,0.3c-0.2,0.2-0.3,0.4-0.3,0.6s0.1,0.4,0.3,0.6c0.2,0.2,0.4,0.3,0.6,0.3
		c0.2,0,0.5-0.1,0.6-0.3c0.2-0.2,0.3-0.4,0.3-0.6S82.2,3.4,82,3.3C81.8,3.1,81.6,3,81.4,3z"/>
	<rect x="80.7" y="6.1" class="st0" width="1.3" height="8.3"/>
	<path class="st0" d="M89.7,6.5c-0.6-0.4-1.2-0.5-2-0.5c-0.7,0-1.4,0.2-2,0.5c-0.6,0.4-1,0.9-1.3,1.5C84.1,8.7,84,9.4,84,10.3
		c0,0.9,0.2,1.6,0.5,2.2c0.3,0.6,0.8,1.1,1.3,1.5c0.6,0.4,1.2,0.5,2,0.5c0.7,0,1.4-0.2,2-0.5c0.6-0.4,1-0.9,1.3-1.5
		c0.3-0.6,0.5-1.4,0.5-2.2c0-0.9-0.2-1.6-0.5-2.3C90.7,7.4,90.3,6.9,89.7,6.5z M89.9,11.9c-0.2,0.5-0.4,0.9-0.8,1.2
		c-0.4,0.3-0.8,0.4-1.4,0.4c-0.6,0-1-0.1-1.4-0.4c-0.4-0.3-0.6-0.7-0.8-1.2c-0.2-0.5-0.3-1-0.3-1.5c0-0.6,0.1-1.1,0.3-1.6
		c0.2-0.5,0.4-0.9,0.8-1.2c0.4-0.3,0.8-0.4,1.4-0.4c0.6,0,1,0.1,1.4,0.4c0.4,0.3,0.6,0.7,0.8,1.2c0.2,0.5,0.3,1,0.3,1.6
		C90.2,10.9,90.1,11.4,89.9,11.9z"/>
	<path class="st0" d="M98.7,6.3C98.2,6.1,97.8,6,97.2,6c-0.6,0-1.1,0.1-1.5,0.4c-0.4,0.3-0.7,0.6-0.9,1h-0.1V6.1h-1.2v8.3h1.3v-5
		c0-0.5,0.1-0.9,0.3-1.2c0.2-0.3,0.4-0.6,0.8-0.8c0.3-0.2,0.7-0.3,1.1-0.3c0.6,0,1.1,0.2,1.4,0.5c0.3,0.4,0.5,0.9,0.5,1.5v5.2h1.3
		V9.1c0-0.7-0.1-1.3-0.4-1.8C99.4,6.9,99.1,6.6,98.7,6.3z"/>
	<rect y="16.4" class="st0" width="48.2" height="1.6"/>
	<rect x="46.6" class="st0" width="53.4" height="1.6"/>
</g>
</svg>
