<?xml version="1.0" encoding="utf-8"?>
<!-- Generator: Adobe Illustrator 24.1.2, SVG Export Plug-In . SVG Version: 6.00 Build 0)  -->
<svg version="1.1" id="Layer_1" xmlns="http://www.w3.org/2000/svg" xmlns:xlink="http://www.w3.org/1999/xlink" x="0px" y="0px"
	 viewBox="0 0 250 250" style="enable-background:new 0 0 250 250;" xml:space="preserve">
<style type="text/css">
	.st0{display:none;}
	.st1{fill:#496581;}
	.st2{fill:#E2E3E4;}
	.st3{clip-path:url(#XMLID_2_);}
	.st4{opacity:0.3;fill:#7099C2;}
	.st5{fill:#CCCCCC;}
</style>
<g id="gide" class="st0">
</g>
<g>
	<path class="st1" d="M144.8,54.9c-2.9,7.3-10.6,12.5-19.8,12.5s-16.9-5.2-19.8-12.5c6.3,1.1,15.5,2.7,19.8,2.7S138.5,56,144.8,54.9
		z"/>
	<path class="st2" d="M66.1,186.2c0,0,0.6,11.2,3.4,12.1c1.2,0.4,4.6-0.9,7.7-1.2c5-0.6,7.5-2.5,8.3-4c1-1.8-1.9-8.3-2.3-10.1
		L66.1,186.2z"/>
	<path class="st2" d="M185.2,186.2c0,0-0.6,11.2-3.4,12.1c-1.2,0.4-4.6-0.9-7.7-1.2c-5-0.6-7.5-2.5-8.3-4c-1-1.8,1.9-8.3,2.3-10.1
		L185.2,186.2z"/>
	<path class="st2" d="M161.6,187c-0.2,4.8-0.5,8-1.1,8.9c-0.5,0.9-17.6,4.1-34.9,4.1c-17.7,0-35.6-3.2-36.1-4.1
		c-0.5-1-0.9-4.3-1.1-9.2C112.6,192,136.9,192,161.6,187z"/>
	<g>
		<defs>
			<path id="XMLID_00000106839360638874357080000016369679927364941984_" d="M188.7,139.4c0,5.4-1.5,22.6-2.5,35.1
				c-0.5,6.6,0.1,12-0.9,13.2c-1.6,2-5.4-0.9-9-0.8c-7.4,0.2-10.4-1-11.1-2.6c-0.8-1.9,2.4-9,1.8-20.6c-0.5-11.9-0.3-23-2.1-38.1
				c-1.7-14.9-3.7-30.4-3.7-30.4c-0.5,27.6,1,72.5,0.2,91.7c-24.6,5-49,5-73.1-0.2c-0.7-19.4,0.7-63.9,0.2-91.4
				c0,0-1.9,15.5-3.7,30.4c-1.8,15.1-1.5,26.2-2.1,38.1c-0.5,11.6,2.7,18.7,1.8,20.6c-0.7,1.6-3.7,2.8-11.1,2.6
				c-3.6-0.1-7.3,2.7-9,0.8c-1-1.2-0.4-6.6-0.9-13.2c-1-12.4-2.5-29.7-2.5-35.1c0-8.2,2.3-53.9,11.6-65.9
				c9.1-11.8,25.5-19.7,26-19.9l0,0c0,0,2.7,0.5,6.4,1.2c2.9,7.3,10.6,12.5,19.8,12.5s16.9-5.2,19.8-12.5c3.7-0.7,6.4-1.2,6.4-1.2
				l0,0c0.9,0.5,17.1,8.2,26,19.9C186.4,85.6,188.7,131.2,188.7,139.4z"/>
		</defs>
		<use xlink:href="#XMLID_00000106839360638874357080000016369679927364941984_"  style="overflow:visible;fill:#7099C2;"/>
		<clipPath id="XMLID_2_">
			<use xlink:href="#XMLID_00000106839360638874357080000016369679927364941984_"  style="overflow:visible;"/>
		</clipPath>
		<g class="st3">
			<path class="st4" d="M88.7,95.3c-1.5-4.6-5.6-9.5-6.8-9.1c-1.3,0.4,5.5,8.3,4.3,14.3c0,0-1,9.3,1.6,15.7L88.7,95.3z"/>
			<path class="st4" d="M86.1,128c-2.4,3.1-12.1,6.3-11.7,7c0.4,0.7,7-0.9,7-0.9s-0.6,1.3-1.4,2.4c-1,1.4-2.3,2.6-1.9,3
				c0.8,0.7,6.9-3.1,8.1-4.7V128z"/>
			<path class="st4" d="M84.5,149.3c0,0-5,10.7-6.6,11.7c-1.6,1-8.7,2.2-8.7,2.2s8.2,1.2,10.1,0C81.3,162,84.5,149.3,84.5,149.3z"/>
		</g>
		<g class="st3">
			<path class="st4" d="M161.3,95.3c1.5-4.6,5.6-9.5,6.8-9.1c1.3,0.4-5.5,8.3-4.3,14.3c0,0,1,9.3-1.6,15.7L161.3,95.3z"/>
			<path class="st4" d="M163.9,128c2.4,3.1,12.1,6.3,11.7,7c-0.4,0.7-7-0.9-7-0.9s0.6,1.3,1.4,2.4c1,1.4,2.3,2.6,1.9,3
				c-0.8,0.7-6.9-3.1-8.1-4.7V128z"/>
			<path class="st4" d="M165.5,149.3c0,0,5,10.7,6.6,11.7s8.7,2.2,8.7,2.2s-8.2,1.2-10.1,0C168.7,162,165.5,149.3,165.5,149.3z"/>
		</g>
		<g class="st3">
			<path class="st4" d="M111.7,154.2c0,0,19.7-10.2,23.9-14.6c4.2-4.4,13.8-28.3,13.8-28.3s-11.3,21.5-15.1,25.9
				C130.5,141.6,111.7,154.2,111.7,154.2z"/>
			<path class="st4" d="M102.2,84c0,0,7,6.9,9.1,8.3c2.1,1.4,13.7,6.4,13.7,6.4s-12.7-4.3-14.5-5.3C108.7,92.4,102.2,84,102.2,84z"
				/>
			<path class="st4" d="M142.3,154.2c0,0-8.7,9.3-11.8,11.1c-3.1,1.8-17.1,4.1-16.9,4.1s16.1-1.3,18.2-2.6
				C133.9,165.5,142.3,154.2,142.3,154.2z"/>
		</g>
	</g>
	<g>
		<path class="st5" d="M151.1,53.6c-2.1,1.2-4.6,2.3-7.3,3.2c-5.4,1.8-11.9,2.9-18.8,2.9c-6.9,0-13.4-1.1-18.8-2.9
			c-2.7-0.9-5.2-2-7.3-3.2l5.2-3.6c0.2,0.1,9.7,4.3,20.9,4.3c11.2,0,20.6-4.2,20.9-4.3L151.1,53.6z"/>
		<path class="st2" d="M125,73.6c-20.9,0-26.3-19.1-26.2-19.9l5.4-3.7c0.7,9.7,9.8,17.4,20.9,17.4s20.1-7.7,20.9-17.4l5.3,3.7
			C151.3,54.4,145.9,73.6,125,73.6z"/>
	</g>
</g>
</svg>
