<?xml version="1.0" encoding="utf-8"?>
<!-- Generator: Adobe Illustrator 24.1.2, SVG Export Plug-In . SVG Version: 6.00 Build 0)  -->
<svg version="1.1" id="Layer_1" xmlns="http://www.w3.org/2000/svg" xmlns:xlink="http://www.w3.org/1999/xlink" x="0px" y="0px"
	 viewBox="0 0 250 250" style="enable-background:new 0 0 250 250;" xml:space="preserve">
<style type="text/css">
	.st0{display:none;}
	.st1{fill:#2A6081;}
	.st2{fill:#1F4C67;}
	.st3{opacity:0.3;}
	.st4{fill:#1B4660;}
	.st5{fill:none;stroke:#14374D;stroke-width:0.7463;stroke-linecap:round;stroke-linejoin:round;stroke-miterlimit:10;}
	.st6{fill:#14374D;}
</style>
<g id="gide" class="st0">
</g>
<g>
	<path class="st1" d="M157.7,182.3c-0.3,12.1-0.2,17.1-0.2,17.1c-5.4,0.9-11.6,0.7-18,0c0,0-0.2-30.4,0-46.4c0-3.8-1.2-8.5-2.6-13.8
		c-0.8-3.2-1.7-6.7-2.4-10.5c-0.7-3.6-1.1-7.5-1.1-11.6c0-10.3-8.4-36.7-8.4-36.7s-8.4,26.4-8.4,36.7c0,15.1-6.2,27.4-6.1,35.8
		c0.2,16,0,46.4,0,46.4c-6.4,0.7-12.5,0.9-18,0c0,0,0.1-5-0.2-17.1c-0.3-12.1-1.7-21.5-0.9-31.5c1-12,1.5-40.2,0.4-52.6
		c-0.8-9.7-0.4-29.1,0.7-40.8c22.5,5.5,44.2,6,65.1,0.1c1,11.7,1.5,31,0.6,40.7c-1.1,12.4-0.6,40.6,0.4,52.6
		C159.4,160.7,158,170.2,157.7,182.3z"/>
	<path class="st2" d="M157.5,57.5c-20.8,5.9-42.6,5.3-65.1-0.1c0.2-2.8,0.5-5.1,0.8-6.8c0.1-0.4,0.5-0.7,0.9-0.6
		c21.2,3.9,41.8,4,61.7,0c0.4-0.1,0.8,0.2,0.9,0.6C157,52.3,157.3,54.7,157.5,57.5z"/>
	<g class="st3">
		<path class="st4" d="M133.7,75.7c0,0,2.9,3.2,4.8,3.5c1.9,0.3,7.3-0.1,7.3-0.1s-5.4-0.5-7.2-1.1C136.4,77.5,133.7,75.7,133.7,75.7
			z"/>
		<path class="st4" d="M133.7,80c0,0,5.2,3.6,7.1,3.9c1.9,0.3,7.3-0.1,7.3-0.1s-5.4-0.5-7.2-1.1C138.8,82.2,133.7,80,133.7,80z"/>
		<path class="st4" d="M153.3,84c0,0-3.2,10.6-4.3,12.6c-1.1,2-7,9.3-7,9.3s7.4-7.2,8.2-8.9C150.9,95.3,153.3,84,153.3,84z"/>
		<path class="st4" d="M144.5,139.3c0.5,0.7-4.9-0.9-6.9-1.9c-0.2,1.2,3.8,4.4,3.2,5c-0.6,0.6-2.6-1.4-3.9-3.2
			c-0.8-3.2-1.7-6.7-2.4-10.5c1,3.2,2.6,4.7,5.3,5.7c3.7,1.2,8.3,0.9,8.5,1.4c0.3,0.8-8.5,0.6-8.5,0.6
			C141.2,137.9,144,138.6,144.5,139.3z"/>
		<path class="st4" d="M143.8,158.4c0,0,2.6,11.3,3.5,13.9c0.9,2.6,5.3,12.5,5.3,12.5s-6.4-10.6-6.8-12.2
			C145.3,171.1,143.8,158.4,143.8,158.4z"/>
	</g>
	<g class="st3">
		<path class="st4" d="M116.3,75.7c0,0-2.9,3.2-4.8,3.5c-1.9,0.3-7.3-0.1-7.3-0.1s5.4-0.5,7.2-1.1C113.6,77.5,116.3,75.7,116.3,75.7
			z"/>
		<path class="st4" d="M116.3,80c0,0-5.2,3.6-7.1,3.9c-1.9,0.3-7.3-0.1-7.3-0.1s5.4-0.5,7.2-1.1C111.2,82.2,116.3,80,116.3,80z"/>
		<path class="st4" d="M96.7,84c0,0,3.2,10.6,4.3,12.6c1.1,2,7,9.3,7,9.3s-7.4-7.2-8.2-8.9C99.1,95.3,96.7,84,96.7,84z"/>
		<path class="st4" d="M105.5,139.3c-0.5,0.7,4.9-0.9,6.9-1.9c0.2,1.2-3.8,4.4-3.2,5c0.6,0.6,2.6-1.4,3.9-3.2
			c0.8-3.2,1.7-6.7,2.4-10.5c-1,3.2-2.6,4.7-5.3,5.7c-3.7,1.2-8.3,0.9-8.5,1.4c-0.3,0.8,8.5,0.6,8.5,0.6
			C108.8,137.9,106,138.6,105.5,139.3z"/>
		<path class="st4" d="M106.2,158.4c0,0-2.6,11.3-3.5,13.9c-0.9,2.6-5.3,12.5-5.3,12.5s6.4-10.6,6.8-12.2
			C104.7,171.1,106.2,158.4,106.2,158.4z"/>
	</g>
	<path class="st5" d="M125,53.3l0,27.2c0,0,5.6-1.6,6.2-8.3c0.6-6.7,0-18.9,0-18.9L125,53.3z"/>
	<circle class="st6" cx="127.4" cy="57.1" r="1.4"/>
	<path class="st6" d="M142.3,62.9L144,63c0.2,0,0.4-0.1,0.4-0.4c0.3-3.5,0.3-7.1,0-10.6c0-0.2-0.2-0.4-0.4-0.4l-1.7,0.1
		c-0.2,0-0.4,0.2-0.4,0.4c0.3,3.4,0.3,6.8,0,10.2C142,62.7,142.1,62.9,142.3,62.9z"/>
	<path class="st6" d="M112.6,63.3c-0.6,0-1.1,0.1-1.7,0.1c-0.2,0-0.4-0.1-0.4-0.4c-0.3-3.5-0.3-7.1,0-10.6c0-0.2,0.2-0.4,0.4-0.4
		c0.6,0,1.1,0.1,1.7,0.1c0.2,0,0.4,0.2,0.4,0.4c-0.3,3.4-0.3,6.8,0,10.2C112.9,63.1,112.8,63.3,112.6,63.3z"/>
</g>
</svg>
