<?xml version="1.0" encoding="utf-8"?>
<!-- Generator: Adobe Illustrator 24.1.2, SVG Export Plug-In . SVG Version: 6.00 Build 0)  -->
<svg version="1.1" id="Layer_1" xmlns="http://www.w3.org/2000/svg" xmlns:xlink="http://www.w3.org/1999/xlink" x="0px" y="0px"
	 viewBox="0 0 250 250" style="enable-background:new 0 0 250 250;" xml:space="preserve">
<style type="text/css">
	.st0{display:none;}
	.st1{fill:#A6A8AB;}
	.st2{fill:url(#XMLID_2_);}
	.st3{fill:#3F4240;}
	.st4{fill:#515251;}
	.st5{fill:url(#XMLID_3_);}
	.st6{fill:url(#XMLID_4_);}
	.st7{fill:#7E7F80;}
	.st8{fill:#99999A;}
	.st9{fill:url(#XMLID_5_);}
	.st10{fill:#0F1513;}
	.st11{fill:#2A2B2D;}
	.st12{fill:url(#XMLID_6_);}
	.st13{fill:#343435;}
	.st14{fill:#8C8F92;}
	.st15{opacity:0.54;fill:url(#XMLID_7_);}
	.st16{fill:#C44332;}
	.st17{fill:#585C5A;}
	.st18{fill:#292D2B;}
	.st19{fill:#FFFFFF;}
	.st20{fill:url(#XMLID_8_);}
	.st21{fill:url(#XMLID_9_);}
	.st22{fill:url(#XMLID_10_);}
	.st23{fill:#FDF6F9;}
</style>
<g id="gide" class="st0">
</g>
<g id="XMLID_5925_">
	<g id="XMLID_9265_">
		<path id="XMLID_9408_" class="st1" d="M141.2,89.7h1.2c1.2,0,2.1,0.9,2.1,2.1V98h-3.3V89.7z"/>
		<path id="XMLID_9407_" class="st1" d="M105.5,89.7h1.2V98h-3.3v-6.3C103.3,90.6,104.3,89.7,105.5,89.7z"/>
		<rect id="XMLID_9406_" x="105.3" y="90.5" class="st1" width="37.9" height="1.1"/>
		<g id="XMLID_9386_">
			<linearGradient id="XMLID_2_" gradientUnits="userSpaceOnUse" x1="122.9861" y1="96.4045" x2="124.5697" y2="51.8009">
				<stop  offset="0" style="stop-color:#404041"/>
				<stop  offset="1" style="stop-color:#515251"/>
			</linearGradient>
			<rect id="XMLID_9405_" x="107.3" y="57.5" class="st2" width="32.9" height="35.9"/>
			<g id="XMLID_9396_">
				<path id="XMLID_9404_" class="st3" d="M109.5,62.3h-0.3c-0.1,0-0.2-0.1-0.2-0.2v-2.6c0-0.1,0.1-0.2,0.2-0.2h0.3
					c0.1,0,0.2,0.1,0.2,0.2v2.6C109.7,62.2,109.6,62.3,109.5,62.3z"/>
				<path id="XMLID_9403_" class="st3" d="M109.5,66.6h-0.3c-0.1,0-0.2-0.1-0.2-0.2v-2.6c0-0.1,0.1-0.2,0.2-0.2h0.3
					c0.1,0,0.2,0.1,0.2,0.2v2.6C109.7,66.5,109.6,66.6,109.5,66.6z"/>
				<path id="XMLID_9402_" class="st3" d="M109.5,71h-0.3c-0.1,0-0.2-0.1-0.2-0.2v-2.6c0-0.1,0.1-0.2,0.2-0.2h0.3
					c0.1,0,0.2,0.1,0.2,0.2v2.6C109.7,70.9,109.6,71,109.5,71z"/>
				<path id="XMLID_9401_" class="st3" d="M109.5,75.3h-0.3c-0.1,0-0.2-0.1-0.2-0.2v-2.6c0-0.1,0.1-0.2,0.2-0.2h0.3
					c0.1,0,0.2,0.1,0.2,0.2v2.6C109.7,75.2,109.6,75.3,109.5,75.3z"/>
				<path id="XMLID_9400_" class="st3" d="M109.5,79.6h-0.3c-0.1,0-0.2-0.1-0.2-0.2v-2.6c0-0.1,0.1-0.2,0.2-0.2h0.3
					c0.1,0,0.2,0.1,0.2,0.2v2.6C109.7,79.5,109.6,79.6,109.5,79.6z"/>
				<path id="XMLID_9399_" class="st3" d="M109.5,84h-0.3c-0.1,0-0.2-0.1-0.2-0.2v-2.6c0-0.1,0.1-0.2,0.2-0.2h0.3
					c0.1,0,0.2,0.1,0.2,0.2v2.6C109.7,83.9,109.6,84,109.5,84z"/>
				<path id="XMLID_9398_" class="st3" d="M109.5,88.3h-0.3c-0.1,0-0.2-0.1-0.2-0.2v-2.6c0-0.1,0.1-0.2,0.2-0.2h0.3
					c0.1,0,0.2,0.1,0.2,0.2v2.6C109.7,88.2,109.6,88.3,109.5,88.3z"/>
				<path id="XMLID_9397_" class="st3" d="M109.5,92.6h-0.3c-0.1,0-0.2-0.1-0.2-0.2v-2.6c0-0.1,0.1-0.2,0.2-0.2h0.3
					c0.1,0,0.2,0.1,0.2,0.2v2.6C109.7,92.5,109.6,92.6,109.5,92.6z"/>
			</g>
			<g id="XMLID_9387_">
				<path id="XMLID_9395_" class="st3" d="M138.1,62.3h-0.3c-0.1,0-0.2-0.1-0.2-0.2v-2.6c0-0.1,0.1-0.2,0.2-0.2h0.3
					c0.1,0,0.2,0.1,0.2,0.2v2.6C138.4,62.2,138.3,62.3,138.1,62.3z"/>
				<path id="XMLID_9394_" class="st3" d="M138.1,66.6h-0.3c-0.1,0-0.2-0.1-0.2-0.2v-2.6c0-0.1,0.1-0.2,0.2-0.2h0.3
					c0.1,0,0.2,0.1,0.2,0.2v2.6C138.4,66.5,138.3,66.6,138.1,66.6z"/>
				<path id="XMLID_9393_" class="st3" d="M138.1,71h-0.3c-0.1,0-0.2-0.1-0.2-0.2v-2.6c0-0.1,0.1-0.2,0.2-0.2h0.3
					c0.1,0,0.2,0.1,0.2,0.2v2.6C138.4,70.9,138.3,71,138.1,71z"/>
				<path id="XMLID_9392_" class="st3" d="M138.1,75.3h-0.3c-0.1,0-0.2-0.1-0.2-0.2v-2.6c0-0.1,0.1-0.2,0.2-0.2h0.3
					c0.1,0,0.2,0.1,0.2,0.2v2.6C138.4,75.2,138.3,75.3,138.1,75.3z"/>
				<path id="XMLID_9391_" class="st3" d="M138.1,79.6h-0.3c-0.1,0-0.2-0.1-0.2-0.2v-2.6c0-0.1,0.1-0.2,0.2-0.2h0.3
					c0.1,0,0.2,0.1,0.2,0.2v2.6C138.4,79.5,138.3,79.6,138.1,79.6z"/>
				<path id="XMLID_9390_" class="st3" d="M138.1,84h-0.3c-0.1,0-0.2-0.1-0.2-0.2v-2.6c0-0.1,0.1-0.2,0.2-0.2h0.3
					c0.1,0,0.2,0.1,0.2,0.2v2.6C138.4,83.9,138.3,84,138.1,84z"/>
				<path id="XMLID_9389_" class="st3" d="M138.1,88.3h-0.3c-0.1,0-0.2-0.1-0.2-0.2v-2.6c0-0.1,0.1-0.2,0.2-0.2h0.3
					c0.1,0,0.2,0.1,0.2,0.2v2.6C138.4,88.2,138.3,88.3,138.1,88.3z"/>
				<path id="XMLID_9388_" class="st3" d="M138.1,92.6h-0.3c-0.1,0-0.2-0.1-0.2-0.2v-2.6c0-0.1,0.1-0.2,0.2-0.2h0.3
					c0.1,0,0.2,0.1,0.2,0.2v2.6C138.4,92.5,138.3,92.6,138.1,92.6z"/>
			</g>
		</g>
		<g id="XMLID_9381_">
			<path id="XMLID_9384_" class="st4" d="M121.5,99.7l0.1-0.4h0.5c0.2-1.6,0.5-2.4,0.5-2.4s-0.2,0.2-0.6,0.6l-0.2-0.5
				c0.5-0.4,1.2-1.1,1.2-1.1l0.4,0.1c0,0.2-0.3,1.4-0.6,3.2h0.5l-0.1,0.4H121.5z"/>
			<path id="XMLID_9382_" class="st4" d="M124.3,96.8c0,0.1,0,0.2,0.1,0.3l-0.6,0.3c-0.1-0.1-0.1-0.3-0.1-0.5c0-0.6,0.4-1.2,1.1-1.2
				c0.7,0,1,0.4,1,1c0,1.1-1,1.5-1.7,2.4c0,0,0.1,0,0.2,0c0.1,0,0.2,0,0.3,0c0.4,0,0.7-0.1,0.9-0.3l0.4,0.5
				c-0.2,0.2-0.4,0.3-0.6,0.3c-0.4,0-0.8-0.2-1-0.2c-0.1,0-0.3,0-0.3,0.2l-0.5-0.2c0.7-1.3,1.9-1.9,1.9-2.8c0-0.2-0.1-0.4-0.3-0.4
				C124.5,96.3,124.3,96.5,124.3,96.8z"/>
		</g>
		<linearGradient id="XMLID_3_" gradientUnits="userSpaceOnUse" x1="92.1241" y1="125.3144" x2="155.7707" y2="125.3144">
			<stop  offset="0" style="stop-color:#404041"/>
			<stop  offset="1" style="stop-color:#515251"/>
		</linearGradient>
		<circle id="XMLID_9380_" class="st5" cx="123.9" cy="125.3" r="31.8"/>
		<path id="XMLID_9379_" class="st1" d="M106.5,160.3h-1.2c-1.2,0-2.1-0.9-2.1-2.1V152h3.3V160.3z"/>
		<path id="XMLID_9378_" class="st1" d="M142.3,160.3h-1.2V152h3.3v6.3C144.4,159.4,143.5,160.3,142.3,160.3z"/>
		
			<rect id="XMLID_9377_" x="104.5" y="158.5" transform="matrix(-1 -1.224647e-16 1.224647e-16 -1 246.9612 317.9959)" class="st1" width="37.9" height="1.1"/>
		<g id="XMLID_9357_">
			<linearGradient id="XMLID_4_" gradientUnits="userSpaceOnUse" x1="125.1664" y1="152.8173" x2="121.9993" y2="202.6996">
				<stop  offset="0" style="stop-color:#404041"/>
				<stop  offset="1" style="stop-color:#515251"/>
			</linearGradient>
			<polygon id="XMLID_9376_" class="st6" points="107.1,156.6 140.5,156.6 140.5,192.5 107.1,192.5 			"/>
			<g id="XMLID_9367_">
				<path id="XMLID_9375_" class="st3" d="M138.2,187.7h0.3c0.1,0,0.3,0.1,0.3,0.3v2.5c0,0.1-0.1,0.3-0.3,0.3h-0.3
					c-0.1,0-0.3-0.1-0.3-0.3v-2.5C138,187.8,138.1,187.7,138.2,187.7z"/>
				<path id="XMLID_9374_" class="st3" d="M138.2,183.4h0.3c0.1,0,0.3,0.1,0.3,0.3v2.5c0,0.1-0.1,0.3-0.3,0.3h-0.3
					c-0.1,0-0.3-0.1-0.3-0.3v-2.5C138,183.5,138.1,183.4,138.2,183.4z"/>
				<path id="XMLID_9373_" class="st3" d="M138.2,179h0.3c0.1,0,0.3,0.1,0.3,0.3v2.5c0,0.1-0.1,0.3-0.3,0.3h-0.3
					c-0.1,0-0.3-0.1-0.3-0.3v-2.5C138,179.1,138.1,179,138.2,179z"/>
				<path id="XMLID_9372_" class="st3" d="M138.2,174.7h0.3c0.1,0,0.3,0.1,0.3,0.3v2.5c0,0.1-0.1,0.3-0.3,0.3h-0.3
					c-0.1,0-0.3-0.1-0.3-0.3v-2.5C138,174.8,138.1,174.7,138.2,174.7z"/>
				<path id="XMLID_9371_" class="st3" d="M138.2,170.4h0.3c0.1,0,0.3,0.1,0.3,0.3v2.5c0,0.1-0.1,0.3-0.3,0.3h-0.3
					c-0.1,0-0.3-0.1-0.3-0.3v-2.5C138,170.5,138.1,170.4,138.2,170.4z"/>
				<path id="XMLID_9370_" class="st3" d="M138.2,166h0.3c0.1,0,0.3,0.1,0.3,0.3v2.5c0,0.1-0.1,0.3-0.3,0.3h-0.3
					c-0.1,0-0.3-0.1-0.3-0.3v-2.5C138,166.1,138.1,166,138.2,166z"/>
				<path id="XMLID_9369_" class="st3" d="M138.2,161.7h0.3c0.1,0,0.3,0.1,0.3,0.3v2.5c0,0.1-0.1,0.3-0.3,0.3h-0.3
					c-0.1,0-0.3-0.1-0.3-0.3v-2.5C138,161.8,138.1,161.7,138.2,161.7z"/>
				<path id="XMLID_9368_" class="st3" d="M138.2,157.4h0.3c0.1,0,0.3,0.1,0.3,0.3v2.5c0,0.1-0.1,0.3-0.3,0.3h-0.3
					c-0.1,0-0.3-0.1-0.3-0.3v-2.5C138,157.5,138.1,157.4,138.2,157.4z"/>
			</g>
			<g id="XMLID_9358_">
				<path id="XMLID_9366_" class="st3" d="M109.2,187.7h0.3c0.1,0,0.3,0.1,0.3,0.3v2.5c0,0.1-0.1,0.3-0.3,0.3h-0.3
					c-0.1,0-0.3-0.1-0.3-0.3v-2.5C108.9,187.8,109,187.7,109.2,187.7z"/>
				<path id="XMLID_9365_" class="st3" d="M109.2,183.4h0.3c0.1,0,0.3,0.1,0.3,0.3v2.5c0,0.1-0.1,0.3-0.3,0.3h-0.3
					c-0.1,0-0.3-0.1-0.3-0.3v-2.5C108.9,183.5,109,183.4,109.2,183.4z"/>
				<path id="XMLID_9364_" class="st3" d="M109.2,179h0.3c0.1,0,0.3,0.1,0.3,0.3v2.5c0,0.1-0.1,0.3-0.3,0.3h-0.3
					c-0.1,0-0.3-0.1-0.3-0.3v-2.5C108.9,179.1,109,179,109.2,179z"/>
				<path id="XMLID_9363_" class="st3" d="M109.2,174.7h0.3c0.1,0,0.3,0.1,0.3,0.3v2.5c0,0.1-0.1,0.3-0.3,0.3h-0.3
					c-0.1,0-0.3-0.1-0.3-0.3v-2.5C108.9,174.8,109,174.7,109.2,174.7z"/>
				<path id="XMLID_9362_" class="st3" d="M109.2,170.4h0.3c0.1,0,0.3,0.1,0.3,0.3v2.5c0,0.1-0.1,0.3-0.3,0.3h-0.3
					c-0.1,0-0.3-0.1-0.3-0.3v-2.5C108.9,170.5,109,170.4,109.2,170.4z"/>
				<path id="XMLID_9361_" class="st3" d="M109.2,166h0.3c0.1,0,0.3,0.1,0.3,0.3v2.5c0,0.1-0.1,0.3-0.3,0.3h-0.3
					c-0.1,0-0.3-0.1-0.3-0.3v-2.5C108.9,166.1,109,166,109.2,166z"/>
				<path id="XMLID_9360_" class="st3" d="M109.2,161.7h0.3c0.1,0,0.3,0.1,0.3,0.3v2.5c0,0.1-0.1,0.3-0.3,0.3h-0.3
					c-0.1,0-0.3-0.1-0.3-0.3v-2.5C108.9,161.8,109,161.7,109.2,161.7z"/>
				<path id="XMLID_9359_" class="st3" d="M109.2,157.4h0.3c0.1,0,0.3,0.1,0.3,0.3v2.5c0,0.1-0.1,0.3-0.3,0.3h-0.3
					c-0.1,0-0.3-0.1-0.3-0.3v-2.5C108.9,157.5,109,157.4,109.2,157.4z"/>
			</g>
		</g>
		<path id="XMLID_9356_" class="st7" d="M108.7,96.5h30.7c4.4,0,7.9,3.6,7.9,7.9v4.6h-46.6v-4.6C100.8,100.1,104.4,96.5,108.7,96.5z
			"/>
		<path id="XMLID_9355_" class="st7" d="M139,154.5h-30.7c-4.4,0-7.9-3.5-7.9-7.9V142h46.6v4.6C146.9,151,143.4,154.5,139,154.5z"/>
		<g id="XMLID_9347_">
			<path id="XMLID_9354_" class="st8" d="M156.3,130.3h-1.8c-0.9,0-1.6-0.7-1.6-1.6v-6.6c0-0.9,0.7-1.6,1.6-1.6h1.8
				c0.9,0,1.6,0.7,1.6,1.6v6.6C157.9,129.6,157.2,130.3,156.3,130.3z"/>
			<g id="XMLID_9348_">
				<path id="XMLID_9353_" class="st4" d="M156.8,122.8H154c-0.2,0-0.4-0.2-0.4-0.4l0,0c0-0.2,0.2-0.4,0.4-0.4h2.8
					c0.2,0,0.4,0.2,0.4,0.4l0,0C157.2,122.6,157,122.8,156.8,122.8z"/>
				<path id="XMLID_9352_" class="st4" d="M156.8,124.3H154c-0.2,0-0.4-0.2-0.4-0.4l0,0c0-0.2,0.2-0.4,0.4-0.4h2.8
					c0.2,0,0.4,0.2,0.4,0.4l0,0C157.2,124.1,157,124.3,156.8,124.3z"/>
				<path id="XMLID_9351_" class="st4" d="M156.8,125.9H154c-0.2,0-0.4-0.2-0.4-0.4l0,0c0-0.2,0.2-0.4,0.4-0.4h2.8
					c0.2,0,0.4,0.2,0.4,0.4l0,0C157.2,125.7,157,125.9,156.8,125.9z"/>
				<path id="XMLID_9350_" class="st4" d="M156.8,127.5H154c-0.2,0-0.4-0.2-0.4-0.4l0,0c0-0.2,0.2-0.4,0.4-0.4h2.8
					c0.2,0,0.4,0.2,0.4,0.4l0,0C157.2,127.3,157,127.5,156.8,127.5z"/>
				<path id="XMLID_9349_" class="st4" d="M156.8,129H154c-0.2,0-0.4-0.2-0.4-0.4l0,0c0-0.2,0.2-0.4,0.4-0.4h2.8
					c0.2,0,0.4,0.2,0.4,0.4l0,0C157.2,128.8,157,129,156.8,129z"/>
			</g>
		</g>
		<linearGradient id="XMLID_5_" gradientUnits="userSpaceOnUse" x1="161.256" y1="94.774" x2="86.0625" y2="156.4774">
			<stop  offset="0" style="stop-color:#D0D2D3"/>
			<stop  offset="1" style="stop-color:#808184"/>
		</linearGradient>
		<circle id="XMLID_9346_" class="st9" cx="123.9" cy="125.4" r="30.7"/>
		
			<ellipse id="XMLID_9345_" transform="matrix(0.7071 -0.7071 0.7071 0.7071 -52.4133 124.3413)" class="st10" cx="123.9" cy="125.4" rx="24.2" ry="24.2"/>
		<rect id="XMLID_9344_" x="99.7" y="125.1" class="st1" width="4.3" height="0.7"/>
		<rect id="XMLID_9343_" x="143.9" y="125.1" class="st1" width="4.3" height="0.7"/>
		<g id="XMLID_9340_">
			
				<rect id="XMLID_9342_" x="121.8" y="147.2" transform="matrix(6.123234e-17 -1 1 6.123234e-17 -23.6502 271.4233)" class="st1" width="4.3" height="0.7"/>
			
				<rect id="XMLID_9341_" x="121.8" y="103" transform="matrix(6.123234e-17 -1 1 6.123234e-17 20.5451 227.228)" class="st1" width="4.3" height="0.7"/>
		</g>
		<g id="XMLID_9337_">
			
				<rect id="XMLID_9339_" x="137.1" y="141.3" transform="matrix(-0.7071 -0.7071 0.7071 -0.7071 138.9948 340.8638)" class="st1" width="5.9" height="0.7"/>
			
				<rect id="XMLID_9338_" x="104.7" y="108.9" transform="matrix(-0.7071 -0.7071 0.7071 -0.7071 106.5828 262.6141)" class="st1" width="5.9" height="0.7"/>
		</g>
		
			<rect id="XMLID_9336_" x="137.4" y="109.5" transform="matrix(-0.7071 0.7071 -0.7071 -0.7071 315.8215 88.7905)" class="st1" width="4.3" height="0.7"/>
		
			<rect id="XMLID_9335_" x="106.1" y="140.7" transform="matrix(-0.7071 0.7071 -0.7071 -0.7071 284.5608 164.2604)" class="st1" width="4.3" height="0.7"/>
		
			<rect id="XMLID_9334_" x="120.9" y="118" transform="matrix(0.7071 -0.7071 0.7071 0.7071 -45.7194 127.114)" class="st11" width="19.3" height="1.4"/>
		<linearGradient id="XMLID_6_" gradientUnits="userSpaceOnUse" x1="138.537" y1="144.3996" x2="105.6323" y2="103.9284">
			<stop  offset="0" style="stop-color:#D0D2D3"/>
			<stop  offset="1" style="stop-color:#808184"/>
		</linearGradient>
		<polygon id="XMLID_9333_" class="st12" points="114.5,114.9 124.9,125.4 124,126.4 113.5,115.9 		"/>
		<g id="XMLID_9330_">
			<path id="XMLID_9331_" class="st4" d="M151,124.9c0.1,0,0.3,0,0.4,0c0.2-0.3,0.3-0.7,0.3-1c0-0.3-0.1-0.6-0.4-0.6
				c-0.2,0-0.5,0.2-0.5,0.6c0,0.1,0,0.2,0.1,0.3l-0.6,0.2c-0.1-0.1-0.1-0.3-0.1-0.5c0-0.5,0.3-1.1,1.1-1.1c0.7,0,1.1,0.5,1.1,1.1
				c0,0.4-0.2,0.9-0.5,1.2c0.3,0.2,0.4,0.6,0.4,0.9c0,0.7-0.5,1.6-1.4,1.6c-0.6,0-1-0.5-1-1c0-0.3,0.1-0.7,0.4-0.9l0.5,0.5
				c-0.2,0.2-0.3,0.4-0.3,0.6c0,0.2,0.1,0.4,0.4,0.4c0.4,0,0.7-0.6,0.7-1.2c0-0.2,0-0.4-0.1-0.6c-0.1,0-0.3,0.1-0.4,0.1
				c0,0-0.1,0-0.1,0L151,124.9z"/>
		</g>
		<g id="XMLID_9326_">
			<path id="XMLID_9327_" class="st4" d="M96.5,125.5c-0.2,0.2-0.4,0.4-0.6,0.4c-0.6,0-0.8-0.5-0.8-1.2c0-0.8,0.5-1.8,1.3-1.8
				c0.7,0,1,0.6,1,1.4c0,1.2-0.7,2.8-1.9,3.3l-0.3-0.5C95.9,126.7,96.3,126.1,96.5,125.5z M96.8,124.2c0-0.5-0.1-0.8-0.4-0.8
				c-0.4,0-0.6,0.8-0.6,1.3c0,0.3,0.1,0.6,0.3,0.6C96.5,125.3,96.8,124.8,96.8,124.2z"/>
		</g>
		<path id="XMLID_9325_" class="st11" d="M125.7,125.4c0,0.7-0.4,1.3-1,1.6h-0.6v0.2c-0.1,0-0.2,0-0.3,0c-1,0-1.8-0.8-1.8-1.8
			c0-1,0.8-1.8,1.8-1.8S125.7,124.4,125.7,125.4z"/>
		<g id="XMLID_9321_">
			<path id="XMLID_9322_" class="st13" d="M123.9,148.4c-12.6,0-22.9-10.3-22.9-22.9c0-12.6,10.3-22.9,22.9-22.9
				s22.9,10.3,22.9,22.9C146.8,138.1,136.5,148.4,123.9,148.4z M123.9,103.1c-12.3,0-22.4,10-22.4,22.4s10,22.4,22.4,22.4
				c12.3,0,22.4-10,22.4-22.4S136.2,103.1,123.9,103.1z"/>
		</g>
		<path id="XMLID_9320_" class="st14" d="M140.6,146.7"/>
		<path id="XMLID_9319_" class="st14" d="M109.5,103.1"/>
		<linearGradient id="XMLID_7_" gradientUnits="userSpaceOnUse" x1="153.7205" y1="122.8793" x2="94.5979" y2="129.3898">
			<stop  offset="0" style="stop-color:#FFFFFF"/>
			<stop  offset="8.770501e-02" style="stop-color:#F8F8F8"/>
			<stop  offset="0.2166" style="stop-color:#E4E4E4"/>
			<stop  offset="0.3708" style="stop-color:#C4C4C4"/>
			<stop  offset="0.5447" style="stop-color:#979797"/>
			<stop  offset="0.735" style="stop-color:#5D5D5D"/>
			<stop  offset="0.9361" style="stop-color:#181818"/>
			<stop  offset="1" style="stop-color:#000000"/>
		</linearGradient>
		<path id="XMLID_9318_" class="st15" d="M141.1,142.6c9.5-9.5,9.5-24.8,0-34.3c-3.4-3.4-7.5-5.6-11.9-6.5l-8,47.7
			C128.3,150.4,135.7,148.1,141.1,142.6z"/>
		<path id="XMLID_9317_" class="st16" d="M125,125.4c0,0.6-0.5,1.1-1.1,1.1c-0.6,0-1.1-0.5-1.1-1.1s0.5-1.1,1.1-1.1
			C124.5,124.3,125,124.8,125,125.4z"/>
		<path id="XMLID_9316_" class="st17" d="M105.7,106c0,0.6-0.5,1.2-1.2,1.2s-1.2-0.5-1.2-1.2c0-0.6,0.5-1.2,1.2-1.2
			S105.7,105.4,105.7,106z"/>
		<path id="XMLID_9315_" class="st17" d="M144.2,106.3c0,0.6-0.5,1.2-1.2,1.2s-1.2-0.5-1.2-1.2c0-0.6,0.5-1.2,1.2-1.2
			S144.2,105.6,144.2,106.3z"/>
		<path id="XMLID_9314_" class="st17" d="M143.9,144.7c0,0.6-0.5,1.2-1.2,1.2s-1.2-0.5-1.2-1.2s0.5-1.2,1.2-1.2
			S143.9,144.1,143.9,144.7z"/>
		<circle id="XMLID_9313_" class="st17" cx="105" cy="144.7" r="1.2"/>
		<rect id="XMLID_9312_" x="126.8" y="131.9" class="st18" width="13.3" height="2.8"/>
		<rect id="XMLID_9311_" x="126.8" y="131.9" width="0.4" height="2.8"/>
		<rect id="XMLID_9310_" x="129.4" y="131.9" width="0.4" height="2.8"/>
		
			<rect id="XMLID_9309_" x="133.2" y="125.4" transform="matrix(6.123234e-17 -1 1 6.123234e-17 1.3707 265.4872)" width="0.4" height="13.3"/>
		<rect id="XMLID_9308_" x="131.9" y="131.9" width="0.4" height="2.8"/>
		<rect id="XMLID_9307_" x="134.5" y="131.9" width="0.4" height="2.8"/>
		<rect id="XMLID_9306_" x="137.1" y="131.9" width="0.4" height="2.8"/>
		<rect id="XMLID_9305_" x="139.7" y="131.9" width="0.4" height="2.8"/>
		<rect id="XMLID_9304_" x="137.5" y="132.2" class="st1" width="2.2" height="2.4"/>
		<g id="XMLID_9301_">
			<path id="XMLID_9302_" class="st1" d="M128.5,132.7v1.6h-0.4v-0.9c0-0.1,0-0.2,0-0.2c0,0,0,0,0-0.1c0,0-0.1,0-0.2,0h0V133
				c0.2,0,0.3-0.1,0.4-0.3H128.5z"/>
		</g>
		<g id="XMLID_9298_">
			<path id="XMLID_9299_" class="st1" d="M131.1,132.7v1.6h-0.4v-0.9c0-0.1,0-0.2,0-0.2c0,0,0,0,0-0.1c0,0-0.1,0-0.2,0h0V133
				c0.2,0,0.3-0.1,0.4-0.3H131.1z"/>
		</g>
		<g id="XMLID_9294_">
			<path id="XMLID_9295_" class="st1" d="M132.9,133.9h0.4c0,0.1,0,0.1,0,0.1c0,0,0,0,0,0c0,0,0,0,0.1,0c0,0,0,0,0.1,0s0,0,0,0
				c0,0,0-0.1,0-0.1v-0.3c0,0-0.1,0.1-0.1,0.1c0,0-0.1,0-0.1,0c-0.1,0-0.1,0-0.2-0.1c-0.1,0-0.1-0.1-0.1-0.1c0-0.1,0-0.1,0-0.2v-0.1
				c0-0.1,0-0.2,0-0.3c0-0.1,0-0.1,0.1-0.2c0,0,0.1-0.1,0.2-0.1c0.1,0,0.1,0,0.2,0c0.1,0,0.2,0,0.3,0c0.1,0,0.1,0.1,0.2,0.1
				c0,0.1,0.1,0.1,0.1,0.2c0,0.1,0,0.2,0,0.4v0.2c0,0.2,0,0.3,0,0.4c0,0.1,0,0.1-0.1,0.2c0,0.1-0.1,0.1-0.2,0.1c-0.1,0-0.2,0-0.2,0
				c-0.1,0-0.2,0-0.3-0.1c-0.1,0-0.1-0.1-0.2-0.2C133,134.1,132.9,134,132.9,133.9z M133.4,133.4c0,0.1,0,0.1,0,0.1c0,0,0,0,0.1,0
				c0,0,0,0,0.1,0c0,0,0-0.1,0-0.1v-0.3c0-0.1,0-0.1,0-0.1c0,0,0,0-0.1,0c0,0,0,0-0.1,0c0,0,0,0.1,0,0.1V133.4z"/>
		</g>
		<g id="XMLID_9291_">
			<path id="XMLID_9292_" class="st1" d="M136.4,132.7v0.4l-0.3,1.3h-0.4l0.3-1.3h-0.4v-0.3H136.4z"/>
		</g>
		<g id="XMLID_9287_">
			<path id="XMLID_9288_" class="st18" d="M139,132.7v1.1h0.1v0.3H139v0.3h-0.4V134h-0.5v-0.3l0.4-1.1H139z M138.6,133.8v-0.7
				l-0.2,0.7H138.6z"/>
		</g>
		<g id="XMLID_9278_">
			<path id="XMLID_9285_" class="st19" d="M136.9,136.3h-0.3l-0.4-0.4v0.4h-0.2v-1h0.2v0.5l0.4-0.5h0.2l-0.5,0.5L136.9,136.3z"/>
			<path id="XMLID_9283_" class="st19" d="M138.1,136.3h-0.2v-0.7l-0.3,0.5l-0.3-0.5v0.7h-0.2v-1h0.2l0.3,0.5l0.3-0.5h0.2V136.3z"/>
			<path id="XMLID_9281_" class="st19" d="M138.7,135.2l-0.3,1.2h-0.2l0.3-1.2H138.7z"/>
			<path id="XMLID_9279_" class="st19" d="M139.7,136.3h-0.2v-0.4h-0.4v0.4h-0.2v-1h0.2v0.4h0.4v-0.4h0.2V136.3z"/>
		</g>
		<path id="XMLID_9277_" class="st19" d="M103.7,104.9"/>
		<path id="XMLID_9276_" class="st11" d="M124.7,127.1c-0.2,0.1-0.4,0.2-0.6,0.2v-0.2H124.7z"/>
		<path id="XMLID_9275_" d="M124.7,127.1v16.6h-0.6v-16.4C124.4,127.2,124.6,127.2,124.7,127.1L124.7,127.1z"/>
		<rect id="XMLID_9274_" x="123.4" y="122.3" class="st16" width="1" height="21.7"/>
		<path id="XMLID_9273_" class="st11" d="M124.4,125.4c0,0.3-0.3,0.6-0.6,0.6c-0.3,0-0.6-0.3-0.6-0.6c0-0.3,0.3-0.6,0.6-0.6
			C124.2,124.8,124.4,125.1,124.4,125.4z"/>
		<linearGradient id="XMLID_8_" gradientUnits="userSpaceOnUse" x1="158.3687" y1="121.916" x2="123.8804" y2="130.4794">
			<stop  offset="0" style="stop-color:#D0D2D3"/>
			<stop  offset="1" style="stop-color:#808184"/>
		</linearGradient>
		<path id="XMLID_9272_" class="st20" d="M137.7,126.5c0.2,1.5,1.3,2.7,2.7,3.2l11.1,3.7v-1.9l-10.6-3.5c-0.8-0.3-1.4-0.9-1.5-1.8
			c-0.1-0.8,0.2-1.6,0.9-2.1l11.2-8.1v-2.2l-12.2,8.9C138.1,123.6,137.4,125,137.7,126.5z"/>
		<linearGradient id="XMLID_9_" gradientUnits="userSpaceOnUse" x1="127.3803" y1="137.3304" x2="124.3303" y2="158.0938">
			<stop  offset="0" style="stop-color:#D0D2D3"/>
			<stop  offset="1" style="stop-color:#808184"/>
		</linearGradient>
		<path id="XMLID_9271_" class="st21" d="M134.3,152h-2.1l-6.3-10c-0.5-0.7-1.2-1.1-2.1-1c-0.8,0.1-1.6,0.6-1.9,1.4L118,152h-1.9
			l4.2-10.3c0.6-1.4,1.8-2.3,3.3-2.5c1.5-0.1,2.9,0.6,3.7,1.8L134.3,152z"/>
		<linearGradient id="XMLID_10_" gradientUnits="userSpaceOnUse" x1="113.6629" y1="124.7299" x2="91.14" y2="128.9529">
			<stop  offset="0" style="stop-color:#D0D2D3"/>
			<stop  offset="1" style="stop-color:#808184"/>
		</linearGradient>
		<path id="XMLID_9270_" class="st22" d="M110.1,125.1c-0.2-1.5-1.3-2.7-2.7-3.2l-11.1-3.7v1.9l10.6,3.5c0.8,0.3,1.4,0.9,1.5,1.8
			s-0.2,1.6-0.9,2.1l-11.2,8.1v2.2l12.2-8.9C109.7,128,110.3,126.6,110.1,125.1z"/>
		<g id="XMLID_9266_">
			<path id="XMLID_9267_" class="st4" d="M125.2,151.2c-0.8,0.3-1.4,0.7-1.7,1.5c0.2-0.2,0.4-0.4,0.7-0.4c0.5,0,0.8,0.5,0.8,1.1
				c0,0.8-0.5,1.8-1.3,1.8c-0.7,0-1-0.6-1-1.3c0-1.6,1.1-2.9,2.3-3.2L125.2,151.2z M123.3,153.9c0,0.5,0.1,0.8,0.4,0.8
				c0.3,0,0.6-0.7,0.6-1.3c0-0.4-0.1-0.6-0.3-0.6C123.6,152.8,123.3,153.2,123.3,153.9z"/>
		</g>
	</g>
	<g id="XMLID_9229_">
		<g id="XMLID_9250_">
			<path id="XMLID_9263_" class="st23" d="M120,110.9l-1.1,3.3h-0.6l-0.6-2l-0.6,2h-0.6l-1.1-3.3h0.7l0.7,2.1l0.6-2.1h0.5l0.6,2.1
				l0.7-2.1H120z"/>
			<path id="XMLID_9260_" class="st23" d="M123.2,114.2h-0.7l-0.3-0.7h-1.6l-0.3,0.7h-0.7l1.6-3.3h0.5L123.2,114.2z M121.9,113
				l-0.5-1.2l-0.6,1.2H121.9z"/>
			<path id="XMLID_9257_" class="st23" d="M122.8,110.9v0.6h0.9v2.7h0.6v-2.7h0.9v-0.1l-0.5-0.5H122.8z M125.3,110.9L125.3,110.9
				L125.3,110.9L125.3,110.9z"/>
			<path id="XMLID_9253_" class="st23" d="M128.1,113.1c-0.1,0.2-0.2,0.3-0.4,0.4c-0.1,0.1-0.2,0.1-0.4,0.1c-0.1,0-0.1,0-0.2,0
				c0,0,0,0-0.1,0c-0.1,0-0.3,0-0.4-0.1c-0.1-0.1-0.3-0.1-0.4-0.2c-0.1-0.1-0.2-0.2-0.2-0.4c-0.1-0.1-0.1-0.3-0.1-0.4
				c0-0.1,0-0.2,0.1-0.3l-0.5-0.5c0,0.1-0.1,0.1-0.1,0.2c-0.1,0.2-0.1,0.4-0.1,0.7c0,0.2,0,0.5,0.1,0.7c0.1,0.2,0.2,0.4,0.4,0.5
				c0.2,0.2,0.3,0.3,0.6,0.4c0.2,0.1,0.4,0.1,0.6,0.1c0,0,0,0,0.1,0c0.1,0,0.1,0,0.2,0c0.2,0,0.4-0.1,0.6-0.2
				c0.2-0.1,0.4-0.3,0.6-0.5L128.1,113.1z M128.3,111.2l-0.4,0.4c0.1,0.1,0.1,0.1,0.2,0.2l0.4-0.5
				C128.4,111.4,128.4,111.3,128.3,111.2z M127.9,111c-0.2-0.1-0.5-0.2-0.8-0.2c-0.2,0-0.5,0-0.7,0.1c-0.1,0.1-0.3,0.1-0.4,0.2
				c-0.1,0-0.1,0.1-0.2,0.1c0,0-0.1,0.1-0.1,0.1l0.5,0.5c0,0,0.1-0.1,0.1-0.1c0,0,0.1-0.1,0.2-0.1c0.1,0,0.1-0.1,0.2-0.1
				c0.1-0.1,0.3-0.1,0.4-0.1c0.2,0,0.3,0,0.4,0.1l0.5-0.5C128,111,128,111,127.9,111z"/>
			<path id="XMLID_9251_" class="st23" d="M130.8,110.9v1.3h-1.3v-1.3l-0.6,0.7v2.6h0.6v-1.5h1.3v1.5h0.6v-3.3H130.8z"/>
		</g>
		<g id="XMLID_9236_">
			<path id="XMLID_9247_" class="st23" d="M119.6,115.2c0,0.1,0,0.1,0,0.2c0,0.1-0.1,0.1-0.1,0.1s-0.1,0.1-0.1,0.1
				c-0.1,0-0.1,0-0.2,0h-0.4v-0.9h0.4c0.1,0,0.1,0,0.2,0c0.1,0,0.1,0.1,0.1,0.1c0,0,0.1,0.1,0.1,0.1
				C119.6,115.1,119.6,115.2,119.6,115.2z M119.4,115.2c0,0,0-0.1,0-0.1c0,0,0-0.1-0.1-0.1c0,0-0.1-0.1-0.1-0.1c0,0-0.1,0-0.1,0
				h-0.2v0.6h0.2c0,0,0.1,0,0.1,0c0,0,0.1,0,0.1-0.1c0,0,0-0.1,0.1-0.1C119.4,115.3,119.4,115.3,119.4,115.2z"/>
			<path id="XMLID_9245_" class="st23" d="M121.4,115.7h-0.6v-0.9h0.6v0.1h-0.4v0.2h0.4v0.1h-0.4v0.3h0.4V115.7z"/>
			<path id="XMLID_9243_" class="st23" d="M123.2,115.5C123.2,115.5,123.2,115.5,123.2,115.5c0,0.1-0.1,0.2-0.1,0.2
				c0,0-0.1,0-0.1,0.1c0,0-0.1,0-0.1,0c0,0-0.1,0-0.1,0c0,0-0.1,0-0.1,0c0,0-0.1,0-0.1,0c0,0-0.1,0-0.1-0.1l0.1-0.1
				c0,0,0.1,0.1,0.1,0.1c0,0,0.1,0,0.1,0c0,0,0,0,0,0s0,0,0,0c0,0,0,0,0,0c0,0,0,0,0,0c0,0,0,0,0,0c0,0,0,0,0,0c0,0,0,0-0.1,0
				c0,0-0.1,0-0.1,0c0,0-0.1,0-0.1,0c0,0-0.1,0-0.1-0.1c0,0,0,0-0.1-0.1c0,0,0-0.1,0-0.1c0,0,0-0.1,0-0.1c0,0,0-0.1,0.1-0.1
				s0.1,0,0.1-0.1s0.1,0,0.1,0c0.1,0,0.1,0,0.2,0s0.1,0,0.1,0.1l-0.1,0.1c0,0,0,0-0.1-0.1c0,0-0.1,0-0.1,0c0,0,0,0,0,0c0,0,0,0,0,0
				c0,0,0,0,0,0c0,0,0,0,0,0c0,0,0,0,0,0c0,0,0,0,0,0c0,0,0,0,0.1,0c0,0,0.1,0,0.1,0c0,0,0.1,0,0.1,0.1c0,0,0.1,0,0.1,0.1
				C123.2,115.3,123.2,115.3,123.2,115.5C123.2,115.4,123.2,115.4,123.2,115.5z"/>
			<path id="XMLID_9241_" class="st23" d="M124.6,115.7h-0.2v-0.9h0.2V115.7z"/>
			<path id="XMLID_9239_" class="st23" d="M126.7,115.5C126.6,115.6,126.6,115.6,126.7,115.5c-0.1,0.1-0.1,0.1-0.2,0.1
				c0,0-0.1,0-0.1,0c0,0-0.1,0-0.1,0c-0.1,0-0.1,0-0.2,0c-0.1,0-0.1-0.1-0.2-0.1c0,0-0.1-0.1-0.1-0.2c0-0.1,0-0.1,0-0.2
				c0-0.1,0-0.1,0-0.2c0-0.1,0.1-0.1,0.1-0.1c0,0,0.1-0.1,0.2-0.1c0.1,0,0.1,0,0.2,0c0.1,0,0.1,0,0.2,0c0.1,0,0.1,0.1,0.2,0.1
				l-0.1,0.1c0,0-0.1-0.1-0.1-0.1c0,0-0.1,0-0.1,0c0,0-0.1,0-0.1,0c0,0-0.1,0-0.1,0.1c0,0-0.1,0.1-0.1,0.1c0,0,0,0.1,0,0.1
				c0,0,0,0.1,0,0.1c0,0,0,0.1,0.1,0.1c0,0,0.1,0.1,0.1,0.1c0,0,0.1,0,0.1,0c0,0,0.1,0,0.1,0c0,0,0.1,0,0.1-0.1v-0.1h-0.2v-0.2h0.4
				V115.5z"/>
			<path id="XMLID_9237_" class="st23" d="M128.6,115.7h-0.2l-0.4-0.6v0.6h-0.2v-0.9h0.2l0.4,0.6v-0.6h0.2V115.7z"/>
		</g>
		<polygon id="XMLID_9235_" class="st23" points="130.8,109.2 129.2,110.9 128.9,111.2 128.4,111.6 127.6,112.4 127.5,112.6 
			127.5,112.6 127.3,112.7 127.3,112.7 127.3,112.8 127.3,112.7 127.1,112.5 127,112.5 127,112.5 127.1,112.5 127.2,112.3 
			127.2,112.3 127.3,112.2 128.3,111.2 128.8,110.8 128.8,110.8 130.5,109 		"/>
		<polygon id="XMLID_9234_" class="st23" points="127.5,112.6 127.3,112.7 127.2,112.8 127.1,112.7 126.9,112.5 126.8,112.4 
			126.8,112.4 124.5,110.1 124.8,109.9 126.5,111.6 127,112.1 127.1,112.2 127.2,112.3 127.2,112.3 127.3,112.4 		"/>
		<path id="XMLID_9233_" class="st23" d="M127.7,112.6c0,0.2-0.1,0.3-0.3,0.4h-0.1v0c0,0,0,0-0.1,0c-0.3,0-0.5-0.2-0.5-0.5
			c0-0.3,0.2-0.5,0.5-0.5S127.7,112.3,127.7,112.6z"/>
		<path id="XMLID_9232_" class="st23" d="M127.5,112.6c0,0.2-0.1,0.3-0.3,0.3c-0.2,0-0.3-0.1-0.3-0.3s0.1-0.3,0.3-0.3
			C127.4,112.3,127.5,112.4,127.5,112.6z"/>
		<rect id="XMLID_9231_" x="127.1" y="111.8" class="st23" width="0.3" height="5.6"/>
		<path id="XMLID_9230_" class="st23" d="M127.3,112.6c0,0.1-0.1,0.2-0.2,0.2c-0.1,0-0.2-0.1-0.2-0.2c0-0.1,0.1-0.2,0.2-0.2
			C127.3,112.4,127.3,112.5,127.3,112.6z"/>
	</g>
</g>
</svg>
