<?xml version="1.0" encoding="utf-8"?>
<!-- Generator: Adobe Illustrator 24.1.2, SVG Export Plug-In . SVG Version: 6.00 Build 0)  -->
<svg version="1.1" id="Layer_1" xmlns="http://www.w3.org/2000/svg" xmlns:xlink="http://www.w3.org/1999/xlink" x="0px" y="0px"
	 viewBox="0 0 250 250" style="enable-background:new 0 0 250 250;" xml:space="preserve">
<style type="text/css">
	.st0{display:none;}
	.st1{fill:#1F4C67;}
	.st2{opacity:0.2;clip-path:url(#XMLID_2_);fill:#235675;}
	.st3{opacity:0.5;clip-path:url(#XMLID_2_);fill:#235675;}
	.st4{opacity:0.2;clip-path:url(#XMLID_3_);fill:#235675;}
	.st5{opacity:0.5;clip-path:url(#XMLID_3_);fill:#235675;}
	.st6{fill:#357EA8;}
	.st7{fill:#14374D;}
	.st8{fill:#184259;}
	.st9{fill:#276081;}
</style>
<g id="gide" class="st0">
</g>
<g>
	<path class="st1" d="M111.9,60.6L103,63l6.3,127.7c10,2.9,20.9,2.8,32.4,0L147,63l-8.9-2.5C130.1,53.8,121.4,53.2,111.9,60.6z"/>
	<g>
		<defs>
			<path id="XMLID_00000125596392123790097540000005252907250125727655_" d="M103,63c0,0-13.1,2.6-19,7.4c-5.9,4.8-22,99.3-22,99.3
				c4.2,2.6,9.6,3.7,15.7,4.1c4.5-24.9,10-47.6,16.7-67.4c1.4,30.1-4,58-5.4,81.5c7.5,6.9,16,11.1,25.8,12l6.5-85.6
				C119.1,92.7,113.1,75.5,103,63z"/>
		</defs>
		<use xlink:href="#XMLID_00000125596392123790097540000005252907250125727655_"  style="overflow:visible;fill:#2A6081;"/>
		<clipPath id="XMLID_2_">
			<use xlink:href="#XMLID_00000125596392123790097540000005252907250125727655_"  style="overflow:visible;"/>
		</clipPath>
		<path class="st2" d="M93.2,97.3c0.1,11.1-6.8,27.6-7.6,28.3c-0.8,0.6-3.1-1.9-3.5-1.6c-0.5,0.3,1.2,3,2.3,4.3
			c-0.8,0.2-1.7-0.6-2.1-0.1c-0.4,0.5,1.3,4.1,0.3,11.4c-1.3,10.4-5.6,30.7-7,31.8s-9,0.1-13.5-1.6L77.3,180l5-4.8l12.2-65
			C94.5,105.6,94.4,101.6,93.2,97.3z"/>
		<polygon class="st3" points="100.8,150.2 91.8,148.2 94.4,144.5 		"/>
	</g>
	<g>
		<defs>
			<path id="XMLID_00000164504548414445270100000010756522886881399430_" d="M147,63c0,0,13.1,2.6,19,7.4
				c2.9,2.4,8.4,27.2,13.2,51.5c4.8,24.2,8.8,47.9,8.8,47.9c-4.2,2.6-9.6,3.7-15.7,4.1c-4.5-24.9-10-47.6-16.7-67.4
				c-1.4,30.1,4,58,5.4,81.5c-7.5,6.9-16,11.1-25.8,12l-6.5-85.6C129.8,98.4,136.4,81.2,147,63z"/>
		</defs>
		<use xlink:href="#XMLID_00000164504548414445270100000010756522886881399430_"  style="overflow:visible;fill:#2A6081;"/>
		<clipPath id="XMLID_3_">
			<use xlink:href="#XMLID_00000164504548414445270100000010756522886881399430_"  style="overflow:visible;"/>
		</clipPath>
		<path class="st4" d="M156.8,97.3c-0.1,11.1,6.8,27.6,7.6,28.3c0.8,0.6,3.1-1.9,3.5-1.6c0.5,0.3-1.2,3-2.3,4.3
			c0.8,0.2,1.7-0.6,2.1-0.1c0.4,0.5-1.3,4.1-0.3,11.4c1.3,10.4,5.6,30.7,7,31.8c1.4,1.1,9,0.1,13.5-1.6L172.7,180l-5-4.8l-12.2-65
			C155.5,105.6,155.6,101.6,156.8,97.3z"/>
		<polygon class="st5" points="149.2,150.2 158.2,148.2 155.6,144.5 		"/>
	</g>
	<path class="st6" d="M149.2,150.2l8.1-2.9c0.7-0.3,1.2-1.1,1.1-1.9l-0.8-5.2c-0.2-1-1.1-1.7-2-1.4l-8.1,2.9
		c-0.7,0.3-1.2,1.1-1.1,1.9l0.8,5.2C147.3,149.9,148.3,150.6,149.2,150.2z"/>
	<path class="st6" d="M100.8,150.2l-8.1-2.9c-0.7-0.3-1.2-1.1-1.1-1.9l0.8-5.2c0.2-1,1.1-1.7,2-1.4l8.1,2.9c0.7,0.3,1.2,1.1,1.1,1.9
		l-0.8,5.2C102.7,149.9,101.7,150.6,100.8,150.2z"/>
	<g>
		<path class="st7" d="M118.4,112.4c0,1.5-1.2,2.7-2.7,2.7c-1.5,0-2.7-1.2-2.7-2.7c0-1.5,1.2-2.7,2.7-2.7
			C117.1,109.7,118.4,110.9,118.4,112.4z"/>
		<circle class="st7" cx="114.9" cy="126.1" r="2.7"/>
		<circle class="st7" cx="113.7" cy="138.1" r="2.7"/>
	</g>
	<g>
		<path class="st8" d="M155.5,106.5c0-2.9,0.2-5.7,0.6-8.6c0.4-2.8,0.9-5.7,1.6-8.4c0.7-2.8,1.6-5.5,2.6-8.2c0.5-1.3,1.1-2.7,1.7-4
			c0.6-1.3,1.2-2.6,1.9-3.8c-0.2,0.7-0.5,1.3-0.8,2l-0.7,2c-0.5,1.3-1,2.7-1.4,4c-0.9,2.7-1.7,5.4-2.4,8.2c-0.7,2.7-1.3,5.5-1.9,8.3
			C156.3,100.8,155.9,103.7,155.5,106.5z"/>
	</g>
	<g>
		<path class="st8" d="M94.5,106.5c-0.4-2.8-0.8-5.6-1.4-8.4c-0.5-2.8-1.1-5.6-1.9-8.3c-0.7-2.8-1.5-5.5-2.4-8.2
			c-0.4-1.4-0.9-2.7-1.4-4l-0.7-2c-0.3-0.7-0.5-1.3-0.8-2c0.7,1.3,1.3,2.5,1.9,3.8c0.6,1.3,1.1,2.6,1.7,4c1,2.7,1.9,5.4,2.6,8.2
			c0.7,2.8,1.3,5.6,1.6,8.4C94.3,100.8,94.5,103.6,94.5,106.5z"/>
	</g>
	<g>
		<path class="st9" d="M138.1,60.6c-8.4-3.8-17.1-3.4-26.1,0c-0.9-3.9-0.4-7.1,2.9-9.1c7.4-2.1,13.2-1.8,20.4,0
			C138.2,53.7,139,56.8,138.1,60.6z"/>
		<path class="st6" d="M114.8,51.5c-17.4,5.4-16.6,20.2-21.6,27.5c14.2,5.9,24.6,20,28.2,35.4C123.7,87.4,104.8,68,114.8,51.5z"/>
		<path class="st6" d="M135.2,51.5c17.4,5.4,16.6,20.2,21.6,27.5c-14.2,5.9-24.6,20-28.2,35.4C126.3,87.4,145.2,68,135.2,51.5z"/>
	</g>
</g>
</svg>
