<?xml version="1.0" encoding="utf-8"?>
<!-- Generator: Adobe Illustrator 24.1.2, SVG Export Plug-In . SVG Version: 6.00 Build 0)  -->
<svg version="1.1" id="Layer_1" xmlns="http://www.w3.org/2000/svg" xmlns:xlink="http://www.w3.org/1999/xlink" x="0px" y="0px"
	 viewBox="0 0 250 250" style="enable-background:new 0 0 250 250;" xml:space="preserve">
<style type="text/css">
	.st0{display:none;}
	.st1{fill:#496581;}
	.st2{fill:#7099C2;}
	.st3{fill:#12C3F4;}
	.st4{fill:none;stroke:#12C3F4;stroke-width:0.9333;stroke-linecap:round;stroke-linejoin:round;stroke-miterlimit:10;}
</style>
<g id="gide" class="st0">
</g>
<g>
	<g>
		<path class="st1" d="M59.6,129.5c1.6-1.1,10.8,4.9,19.9,6c8.7,1.1,17.1-2.8,24.9-6c0,0-4.6,18.5-24.4,17.5
			C60.2,146.1,59.6,129.5,59.6,129.5z"/>
		<path class="st2" d="M199.1,172.2c2.7,7.9-7,14.2-20.4,16.9c-11.8,2.4-43.1,0.4-73-0.3c-22.1-0.5-43.5-0.5-56.1-4.4
			c-0.1-8.7,2.3-20.3,3.6-31.6c1.4-12.5,1.8-22.8,6.5-23.3s10,12.3,25.5,9.7c15.5-2.6,15.9-12.8,25.5-10.4
			c9.6,2.4,15.2,27.1,48.3,31.2C173.1,161.7,193.8,164.1,199.1,172.2z"/>
		<path class="st3" d="M192.2,191.1c-6.9,5.5-15.4,8.4-24.1,8.7c-14.5,0.6-43.3-1.2-68.4-1.4c-23-0.1-42.9,1.6-46.8-2.5
			c-2.4-2.6-3.3-6.6-3.3-11.5c12.6,3.9,34,3.9,56.1,4.4c29.9,0.7,61.2,2.7,73,0.3c13.5-2.8,22.6-11.9,20.4-16.9
			c0.6,0.9,1,1.8,1.2,2.8C201.4,181.6,197.3,187.1,192.2,191.1z"/>
		<g>
			<path class="st4" d="M121.1,138.2c-4.6,2.6-7.9,6.6-10.7,11.3"/>
			<path class="st4" d="M127.7,146.2c-4.6,2.6-7.9,6.6-10.7,11.3"/>
			<path class="st4" d="M135.7,151.9c-4.6,2.6-7.9,6.6-10.7,11.3"/>
			<path class="st4" d="M144.4,156.7c-4.6,2.6-7.9,6.6-10.7,11.3"/>
			<path class="st4" d="M155.2,159.4c-4.6,2.6-7.9,6.6-10.7,11.3"/>
			<path class="st4" d="M167.6,161.1c-4.6,2.6-7.9,6.6-10.7,11.3"/>
			<path class="st4" d="M180.5,163.5c-4.6,2.6-7.9,6.6-10.7,11.3"/>
		</g>
	</g>
	<g>
		<path class="st1" d="M190.4,120.5c-1.6,1.1-10.8-4.9-19.9-6c-8.7-1.1-17.1,2.8-24.9,6c0,0,4.6-18.5,24.4-17.5
			C189.8,103.9,190.4,120.5,190.4,120.5z"/>
		<path class="st2" d="M50.9,77.8c-2.7-7.9,7-14.2,20.4-16.9c11.8-2.4,43.1-0.4,73,0.3c22.1,0.5,43.5,0.5,56.1,4.4
			c0.1,8.7-2.3,20.3-3.6,31.6c-1.4,12.5-1.8,22.8-6.5,23.3c-4.7,0.5-10-12.3-25.5-9.7c-15.5,2.6-15.9,12.8-25.5,10.4
			c-9.6-2.4-15.2-27.1-48.3-31.2C76.9,88.3,56.2,85.9,50.9,77.8z"/>
		<path class="st3" d="M57.8,58.9c6.9-5.5,15.4-8.4,24.1-8.7c14.5-0.6,43.3,1.2,68.4,1.4c23,0.1,42.9-1.6,46.8,2.5
			c2.4,2.6,3.3,6.6,3.3,11.5c-12.6-3.9-34-3.9-56.1-4.4c-29.9-0.7-61.2-2.7-73-0.3c-13.5,2.8-22.6,11.9-20.4,16.9
			C50.3,77,50,76,49.8,75C48.6,68.4,52.7,62.9,57.8,58.9z"/>
		<g>
			<path class="st4" d="M128.9,111.8c4.6-2.6,7.9-6.6,10.7-11.3"/>
			<path class="st4" d="M122.3,103.8c4.6-2.6,7.9-6.6,10.7-11.3"/>
			<path class="st4" d="M114.3,98.1c4.6-2.6,7.9-6.6,10.7-11.3"/>
			<path class="st4" d="M105.6,93.3c4.6-2.6,7.9-6.6,10.7-11.3"/>
			<path class="st4" d="M94.8,90.6c4.6-2.6,7.9-6.6,10.7-11.3"/>
			<path class="st4" d="M82.4,88.9c4.6-2.6,7.9-6.6,10.7-11.3"/>
			<path class="st4" d="M69.5,86.5c4.6-2.6,7.9-6.6,10.7-11.3"/>
		</g>
	</g>
</g>
</svg>
