<?xml version="1.0" encoding="utf-8"?>
<!-- Generator: Adobe Illustrator 24.1.2, SVG Export Plug-In . SVG Version: 6.00 Build 0)  -->
<svg version="1.1" id="Layer_1" xmlns="http://www.w3.org/2000/svg" xmlns:xlink="http://www.w3.org/1999/xlink" x="0px" y="0px"
	 viewBox="0 0 250 250" style="enable-background:new 0 0 250 250;" xml:space="preserve">
<style type="text/css">
	.st0{display:none;}
	.st1{fill:#85A9D4;}
	.st2{fill:#1C1C1C;}
	.st3{fill:#E4EAF2;}
	.st4{fill:#F0F7FF;}
	.st5{fill:#A0C0E3;}
	.st6{fill:#86A8C8;}
	.st7{fill:#121212;}
	.st8{fill:#4F70A6;}
	.st9{fill:url(#SVGID_1_);}
	.st10{fill:#7293B3;}
	.st11{fill:url(#SVGID_2_);}
	.st12{fill:#242424;}
	.st13{fill:#C4E1FF;}
	.st14{fill:#383838;}
	.st15{fill:#0C0C0C;}
	.st16{fill:#596F85;}
</style>
<g id="gide" class="st0">
</g>
<g>
	<path class="st1" d="M182.5,89.4c0,12.9-2.5,41.1-2.8,59c-0.3,15.3-2.2,30.1-4.3,34.2h-14.4c-0.6-3.6-0.3-9.7,0.1-31.7
		c0.4-21.9-1.1-40.2-1.7-45.6c3.3-16.5,9-35.1,9-35.1v0C176.5,72.6,182.5,77.6,182.5,89.4z"/>
	<path class="st2" d="M162.9,90.2c-1.2,4.8-2.4,10.1-3.4,15.1c0.5,5.4,2.1,23.7,1.7,45.6c-0.4,22.1-0.7,28.2-0.1,31.7h3
		C166.3,151.9,166.8,121,162.9,90.2z"/>
	<path class="st3" d="M160.7,178.6c0,1.8,0.1,3,0.3,4h14.4c0.7-1.3,1.3-3.7,1.9-6.8C172.4,178.4,166.8,179.6,160.7,178.6z"/>
	<path class="st4" d="M168.4,70.1L168.4,70.1c0,0-0.8,2.8-2.1,7.1c6,2.2,10.1,7.3,11,14c1.2,23.2-6.4,58-4.3,66.5
		c2,8.5,1.7,16.9,1.9,24.8h0.5c2.1-4.2,4-18.9,4.3-34.2c0.3-17.9,2.8-46.1,2.8-59C182.5,77.6,176.5,72.6,168.4,70.1z"/>
	<path class="st5" d="M175.4,182.6h1.3c-1.2,7.8-1.3,15.5-1.3,15.5h-14.5c-0.3-3.7-0.7-15.5-0.7-15.5h0.9H175.4z"/>
	<path class="st6" d="M159.5,105.3c-1,4.9-1.8,9.7-2.1,13.7c-1.5,17.5-1,68.5-1,68.5s-1.8,7.4-26.5,12.6l-3.5-34.1v0
		c0-2.8-0.1-5.8-0.2-8.8c-0.7-24.4-0.6-48.1-1.8-62.9c-0.3-3.3-0.1-6.2,0.2-8.7c1.2-8.7,5.3-13.1,6.3-17.8c0.3-1.5,0.9-2.7,1.6-3.7
		l0,0c4.5-3.4,6,6.7,6,6.7c3.3-3.1,5.6-5.9,8.2-8.7l0.2,0.2c0,0,10,5.1,19.2,7.3c0.8,0.2,1.5,0.4,2.3,0.6v0
		C168.4,70.2,162.8,88.7,159.5,105.3z"/>
	<path class="st3" d="M156.4,187.4c0,0-0.5-50.9,1-68.5c0.3-4,1.1-8.8,2.1-13.7c0.9-4.5,1.9-9.1,3-13.4c-16,32.2-11.7,63.2-15.7,103
		C155.5,191,156.4,187.4,156.4,187.4z"/>
	<path class="st4" d="M168.4,70.1c-0.7-0.2-1.5-0.4-2.3-0.6c-9.2-2.2-19.2-7.3-19.2-7.3l-0.2-0.2c-2.2,2.3-4.1,4.7-6.6,7.2
		c7.3,5.3,16.9,7.2,26,8.7C167.5,73.2,168.4,70.2,168.4,70.1L168.4,70.1z"/>
	<path class="st6" d="M137.7,67.1c-0.7-1.9-1.8-3.9-3.4-3.8C135.3,64.7,136.4,66,137.7,67.1z"/>
	<path class="st3" d="M133.3,68.1c2.2,2.2,3,5.8,3.6,9.6c4.5-4.4,8.6-9.1,12.3-14.3c-1.4-0.7-2.2-1.1-2.2-1.1l-0.2-0.2
		c-2.6,2.8-4.9,5.6-8.2,8.7c0,0-1.5-10.1-6-6.7l0,0c-0.7,0.9-1.2,2-1.5,3.3C132,66.6,132.9,66.6,133.3,68.1z"/>
	<path class="st7" d="M140,69.4c-0.4,0.4-0.9,0.9-1.4,1.3c0,0-1.5-10.1-6-6.7l0,0c-0.7,1-1.3,2.3-1.6,3.7c-1,4.7-5.1,9.1-6.3,17.8
		c-0.4,2.5-0.5,5.4-0.2,8.7c1.2,14.8,1,38.5,1.8,62.9c0.1,3,0.2,6,0.2,8.8v0l3.5,34.1c2.5-0.5,4.7-1.1,6.7-1.6
		C131.7,155.5,132.1,89.8,140,69.4z"/>
	<path class="st5" d="M141.6,53.7l5.4,8c-0.1,0.1-0.2,0.2-0.2,0.3c-2.6,2.8-4.9,5.6-8.2,8.7c0,0-1.5-10.1-6-6.7l0,0
		c1.1-1.6,2.6-2.8,4.2-4c1.5-1.2,3.1-2.4,4.5-4C141.9,55.1,142,54.4,141.6,53.7z"/>
	<path class="st8" d="M141.6,53.7c0.3,0.6,0.2,1.4-0.5,2.2c-1.3,1.5-2.9,2.7-4.5,4c-8.7-3.9-21.2-1.7-24.2-1.1l0,0
		c-2.3-2-4.5-3.8-4.8-5c-0.1-0.3,0-0.7,0.2-1c1.2-2,8-2.9,16.4-2.9C131.9,50,140.3,51.2,141.6,53.7z"/>
	<linearGradient id="SVGID_1_" gradientUnits="userSpaceOnUse" x1="109.0335" y1="54.3159" x2="138.6043" y2="55.1856">
		<stop  offset="3.058100e-03" style="stop-color:#B9C2C5"/>
		<stop  offset="0.107" style="stop-color:#F6F7F7"/>
		<stop  offset="0.2599" style="stop-color:#FCFDFD"/>
		<stop  offset="0.5229" style="stop-color:#FFFFFF"/>
		<stop  offset="0.7859" style="stop-color:#FAFBFB"/>
		<stop  offset="0.9327" style="stop-color:#E9ECED"/>
		<stop  offset="1" style="stop-color:#D3D7DA"/>
	</linearGradient>
	<path class="st9" d="M141.6,53.7c0.3,0.6,0.2,1.4-0.5,2.2c-1.3,1.5-2.9,2.7-4.5,4c-8.7-3.9-21.2-1.7-24.2-1.1l0,0
		c-2.3-2-4.5-3.8-4.8-5c-0.1-0.3,0-0.7,0.2-1c1.2-2,8-2.9,16.4-2.9C131.9,50,140.3,51.2,141.6,53.7z"/>
	<path class="st10" d="M136.7,59.9c-1.5,1.2-3,2.4-4.2,4c-0.7,1-1.3,2.3-1.6,3.7c-1,4.7-5.1,9.1-6.3,17.8c-1.2-6.2-3.2-8.3-5.6-10.3
		c-2.3-2,0-4.7-0.5-9c-0.1-0.8-0.5-1.6-1-2.4c-1.2-1.7-3.1-3.4-5-5l0,0C115.5,58.2,128,56,136.7,59.9z"/>
	<linearGradient id="SVGID_2_" gradientUnits="userSpaceOnUse" x1="123.7802" y1="82.5232" x2="124.6499" y2="58.4608">
		<stop  offset="0" style="stop-color:#FFFFFF"/>
		<stop  offset="0.3517" style="stop-color:#EBEDEE"/>
		<stop  offset="0.6728" style="stop-color:#D3D7DA"/>
		<stop  offset="1" style="stop-color:#9CA5AD"/>
	</linearGradient>
	<path class="st11" d="M136.7,59.9c-1.5,1.2-3,2.4-4.2,4c-0.7,1-1.3,2.3-1.6,3.7c-1,4.7-5.1,9.1-6.3,17.8c-1.2-6.2-3.2-8.3-5.6-10.3
		c-2.3-2,0-4.7-0.5-9c-0.1-0.8-0.5-1.6-1-2.4c-1.2-1.7-3.1-3.4-5-5l0,0C115.5,58.2,128,56,136.7,59.9z"/>
	<path class="st8" d="M133.4,66.8c0.5,0,0.9,0.4,0.9,0.9c0,0.5-0.4,0.9-0.9,0.9s-0.9-0.4-0.9-0.9C132.6,67.2,133,66.8,133.4,66.8z"
		/>
	<path class="st8" d="M130.2,113.4c0.5,0,0.9,0.4,0.9,0.9c0,0.5-0.4,0.9-0.9,0.9c-0.5,0-0.9-0.4-0.9-0.9
		C129.3,113.8,129.7,113.4,130.2,113.4z"/>
	<path class="st8" d="M130.2,140.9c0.5,0,0.9,0.4,0.9,0.9c0,0.5-0.4,0.9-0.9,0.9c-0.5,0-0.9-0.4-0.9-0.9
		C129.3,141.3,129.7,140.9,130.2,140.9z"/>
	<path class="st8" d="M130.2,166.9c0.5,0,0.9,0.4,0.9,0.9c0,0.5-0.4,0.9-0.9,0.9c-0.5,0-0.9-0.4-0.9-0.9
		C129.3,167.3,129.7,166.9,130.2,166.9z"/>
	<path class="st8" d="M129.3,89c0.5,0,0.9,0.4,0.9,0.9s-0.4,0.9-0.9,0.9c-0.5,0-0.9-0.4-0.9-0.9S128.8,89,129.3,89z"/>
	<path class="st5" d="M126.4,165.9c0.4,19.9-0.2,34.1-0.2,34.1c-20.5-3.7-30.4-13.9-30.4-13.9s-0.5-32.8-3-60.1
		c-0.5-5.5-1.4-11-2.6-16.3c0,0,0,0,0,0C85.4,89,77,72,77,72c2.1-1.1,4.4-1.8,6.8-2.4c9-2.1,18.7-7.1,19.2-7.3c0,0,0,0,0,0
		c1.4,1.5,4.4,5,6.7,8.5c0,0,3.8-8.8,7.8-6.9c0.6,0.8,1,1.6,1,2.4c0.5,4.3-1.8,7,0.5,9c2.3,2,4.4,4.1,5.6,10.3
		c-0.4,2.5-0.5,5.4-0.2,8.7c1.2,14.8,1,38.5,1.8,62.9C126.3,160.1,126.3,163,126.4,165.9L126.4,165.9z"/>
	<path class="st5" d="M99.7,63.8c-3.7,1.7-10,4.3-15.9,5.7c-2.4,0.6-4.8,1.3-6.8,2.4c0,0,8.4,17,13.1,37.7c0,0,0,0,0,0
		c1.2,5.3,2.1,10.7,2.6,16.3c2.5,27.3,3,60.1,3,60.1s10,10.2,30.4,13.9c0,0,0.6-14.2,0.2-34.1v0c0-2.8-0.1-5.8-0.2-8.8
		c-0.7-24.4-0.6-48.1-1.8-62.9c-0.3-3.3-0.1-6.2,0.2-8.7c-0.2-0.9-0.4-1.7-0.6-2.4C114.5,79.2,106,73.4,99.7,63.8z"/>
	<path class="st3" d="M109.7,70.7c-2.3-3.5-5.3-7-6.7-8.5c0,0,0,0,0,0c-0.2,0.1-1.4,0.7-3.3,1.6c3.2,4.8,6.9,8.7,11.1,11.9
		c0.9-2.9,2.4-5.6,4-7.6c1-0.7,2.3-1.6,3.7-2.4c-0.2-0.6-0.5-1.2-0.9-1.8C113.5,61.9,109.7,70.7,109.7,70.7z"/>
	<path class="st12" d="M118.6,66.2c-0.1-0.8-0.5-1.6-1-2.4c-4-1.9-7.8,6.9-7.8,6.9c-2.3-3.5-5.3-7-6.7-8.5c0,0,0,0,0,0
		c-0.5,0.2-10.2,5.2-19.2,7.3c-2.4,0.6-4.8,1.3-6.8,2.4c0,0,2,4,4.6,10.5c11.7-6.1,24.1-10.4,36.9-13.1
		C118.6,68.4,118.7,67.3,118.6,66.2z"/>
	<path class="st12" d="M103.7,145.4c-0.6-8.1-1.1-16.1-1.6-24c-1.9-13.4-10.1-27.6-13-42.6c-2.5,1.1-5,2.3-7.5,3.6
		c2.7,6.9,6.1,16.6,8.5,27.2c0,0,0,0,0,0c1.2,5.3,2.1,10.7,2.6,16.3c2.5,27.3,3,60.1,3,60.1s3.1,3.2,9.4,6.6
		C104.5,176.9,104.2,161.1,103.7,145.4z"/>
	<path class="st13" d="M117.5,63.8c-4-1.9-7.8,6.9-7.8,6.9c-2.3-3.5-5.3-7-6.7-8.5c0,0,0,0,0,0c-0.5-0.6-0.8-0.9-0.8-0.9l5.7-8.5
		c-0.2,0.3-0.2,0.6-0.2,1c0.3,1.2,2.5,3,4.8,5C114.4,60.4,116.4,62.1,117.5,63.8z"/>
	<path class="st1" d="M90.1,109.7C90.1,109.7,90.1,109.7,90.1,109.7c-0.7,8.1-1.6,23.5-1.3,41.2c0.4,22.1,0.7,28.2,0.1,31.7H74.6
		c-2.1-4.2-4-18.9-4.3-34.2c-0.3-17.9-2.8-46.1-2.8-59c0-9.4,3.9-14.5,9.6-17.5C77,72,85.4,89,90.1,109.7z"/>
	<path class="st3" d="M73.2,178.3c0.4,1.9,0.9,3.4,1.4,4.3H89c0.2-1,0.3-2.1,0.3-3.7C84,179.5,78.6,179.4,73.2,178.3z"/>
	<path class="st3" d="M85.3,182.6H89c0.6-3.6,0.3-9.7-0.1-31.7c-0.3-17.7,0.6-33.1,1.3-41.2c0,0,0,0,0,0c-0.8-3.4-1.6-6.6-2.5-9.7
		C85.3,126.8,83.2,155.1,85.3,182.6z"/>
	<path class="st2" d="M80,158.5c-10.2-25.5-7.8-51.9,1.6-76.1C79,76,77,72,77,72c-5.7,2.9-9.6,8-9.6,17.5c0,12.9,2.5,41.1,2.8,59
		c0.3,15.3,2.2,30.1,4.3,34.2h5.1c-0.6-1.9-1.2-3.7-2-5.6C75.4,171.3,81.2,164.3,80,158.5z"/>
	<path class="st5" d="M89,182.6h0.9c0,0-0.3,11.9-0.7,15.5H74.6c0,0-0.2-7.8-1.3-15.5h1.3H89z"/>
	<path class="st14" d="M74.6,182.6h-1.3c1.2,7.8,1.3,15.5,1.3,15.5h3.2c-0.6-5.2-1.1-10.4-1.3-15.5H74.6z"/>
	<path class="st3" d="M89.8,182.6H89h-3.1c0,5.1,0.1,10.3,0.1,15.5h3.3C89.5,194.5,89.8,182.6,89.8,182.6z"/>
	<g>
		<rect x="121.1" y="60.1" class="st15" width="7.4" height="3.3"/>
		<g>
			<path class="st16" d="M122.8,62.5V61h0.2v1.3h0.3v0.2H122.8z"/>
			<path class="st16" d="M124,62.4c-0.1,0.1-0.1,0.1-0.3,0.1c-0.1,0-0.2,0-0.3-0.1c-0.1-0.1-0.1-0.2-0.1-0.3v-0.7
				c0-0.3,0.1-0.4,0.3-0.4c0.1,0,0.2,0,0.2,0.1c0.1,0.1,0.1,0.2,0.1,0.3V62C124.1,62.2,124.1,62.3,124,62.4z M123.7,62.2
				C123.7,62.3,123.7,62.3,123.7,62.2c0.1,0.1,0.1,0,0.2,0c0,0,0-0.1,0-0.2v-0.7c0-0.1,0-0.1,0-0.2c0,0,0,0-0.1,0c0,0-0.1,0-0.1,0
				c0,0,0,0.1,0,0.2V62C123.6,62.1,123.7,62.2,123.7,62.2z"/>
			<path class="st16" d="M124.6,61.7L124.6,61.7l-0.1,0.7h-0.2V61h0.4c0.1,0,0.1,0,0.2,0c0,0,0.1,0.1,0.1,0.1c0,0.1,0,0.1,0,0.2
				c0,0.1,0,0.2,0,0.2c0,0-0.1,0.1-0.1,0.1c0.1,0,0.1,0,0.1,0.1c0,0.1,0,0.2,0,0.4c0,0.2,0,0.3,0,0.3h-0.2c0,0,0-0.2,0-0.5
				C124.7,61.8,124.7,61.8,124.6,61.7C124.7,61.8,124.6,61.8,124.6,61.7z M124.5,61.6L124.5,61.6c0.1,0,0.1,0,0.2,0c0,0,0,0,0-0.1
				c0,0,0-0.1,0-0.1v0c0-0.1,0-0.1,0-0.2s0,0-0.1,0h-0.1V61.6z"/>
			<path class="st16" d="M125.1,62.5V61h0.5v0.2h-0.3v0.4h0.3v0.2h-0.3v0.5h0.3v0.2H125.1z"/>
			<path class="st16" d="M125.8,62.5V61h0.3l0.2,1.1l0.2-1.1h0.3v1.5h-0.2v-0.6l0-0.5l-0.2,1.1h-0.2l-0.2-1.1l0,0.5v0.6H125.8z"/>
		</g>
	</g>
</g>
</svg>
