<?xml version="1.0" encoding="utf-8"?>
<!-- Generator: Adobe Illustrator 24.1.2, SVG Export Plug-In . SVG Version: 6.00 Build 0)  -->
<svg version="1.1" xmlns="http://www.w3.org/2000/svg" xmlns:xlink="http://www.w3.org/1999/xlink" x="0px" y="0px"
	 viewBox="0 0 500 500" style="enable-background:new 0 0 500 500;" xml:space="preserve">
<style type="text/css">
	.st0{display:none;}
	.st1{display:inline;fill:#DEEFFD;}
	.st2{fill:#191E40;}
	.st3{fill:#1E245A;}
	.st4{fill:#32398B;}
	.st5{fill:#D3DEFD;}
	.st6{fill:#FFFFFF;}
	.st7{fill:#676FBD;}
	.st8{fill:#C8D8F2;}
	.st9{fill:#BACCE7;}
	.st10{opacity:0.53;fill:#D1D1D1;}
	.st11{fill:#ABC0DA;}
	.st12{fill:#7280A6;}
	.st13{fill:#6276CC;}
	.st14{fill:#7C91E1;}
	.st15{fill:#4F65B7;}
	.st16{fill:#E8C0B3;}
	.st17{fill:#141627;}
	.st18{fill:#5B65AD;}
	.st19{fill:#2B3285;}
	.st20{fill:#D4E1F9;}
	.st21{fill:#E8E8E8;}
	.st22{fill:none;stroke:#1C1E1D;stroke-width:1.9075;stroke-linecap:round;stroke-linejoin:round;stroke-miterlimit:10;}
	.st23{display:inline;}
	.st24{fill:#222221;}
</style>
<g id="BACKGROUND" class="st0">
	<rect class="st1" width="500" height="500"/>
</g>
<g id="OBJECTS">
	<g>
		<g>
			<g>
				<g>
					<polygon class="st2" points="235.2,257 213.7,257 216.7,236.3 238.2,236.3 					"/>
					<polygon class="st3" points="239,257 217.5,257 220.5,236.3 242,236.3 					"/>
					<path class="st3" d="M178.2,237.3h-8c-2.1,0-3.8-1.7-3.8-3.8v-69.2c0-2.1,1.7-3.8,3.8-3.8h8c2.1,0,3.8,1.7,3.8,3.8v69.2
						C182,235.6,180.3,237.3,178.2,237.3z"/>
					<path class="st4" d="M283.4,237.3H177c-2,0-3.7-1.6-3.7-3.7v-69.5c0-2,1.6-3.7,3.7-3.7h106.4c2,0,3.7,1.6,3.7,3.7v69.5
						C287,235.7,285.4,237.3,283.4,237.3z"/>
					
						<rect x="179.8" y="166.6" transform="matrix(-1 -1.224647e-16 1.224647e-16 -1 461.1148 392.8401)" class="st5" width="101.5" height="59.7"/>
				</g>
				<path class="st4" d="M202.5,255.5h71.6c1.3,0,2.4,1.1,2.4,2.4l0,0c0,1.3-1.1,2.4-2.4,2.4h-71.6V255.5z"/>
				<path class="st3" d="M181.3,255.5h21.2v4.8h-21.2c-1.3,0-2.4-1.1-2.4-2.4l0,0C178.9,256.6,180,255.5,181.3,255.5z"/>
			</g>
			<g>
				<path class="st6" d="M272.8,219.8h-45.6c-1.1,0-2-0.9-2-2v-40.6c0-1.1,0.9-2,2-2h45.6c1.1,0,2,0.9,2,2v40.6
					C274.8,218.9,273.9,219.8,272.8,219.8z"/>
				<path class="st6" d="M218,219.8h-29.2c-1.1,0-2-0.9-2-2v-20c0-1.1,0.9-2,2-2H218c1.1,0,2,0.9,2,2v20
					C220.1,218.9,219.1,219.8,218,219.8z"/>
				<g>
					<g>
						<path class="st5" d="M215.6,212.7h-24.3c-0.4,0-0.7-0.3-0.7-0.7V212c0-0.4,0.3-0.7,0.7-0.7h24.3c0.4,0,0.7,0.3,0.7,0.7v0.1
							C216.2,212.4,215.9,212.7,215.6,212.7z"/>
						<path class="st5" d="M205.1,216.1h-13.8c-0.4,0-0.7-0.3-0.7-0.7v-0.1c0-0.4,0.3-0.7,0.7-0.7h13.8c0.4,0,0.7,0.3,0.7,0.7v0.1
							C205.8,215.8,205.5,216.1,205.1,216.1z"/>
					</g>
					<path class="st5" d="M198.9,203.1c0,2.5-2,4.6-4.6,4.6c-2.5,0-4.6-2-4.6-4.6s2-4.6,4.6-4.6
						C196.8,198.5,198.9,200.5,198.9,203.1z"/>
				</g>
				<path class="st7" d="M265,214.5h-10.6c-1.6,0-3-1.3-3-3v-10.6c0-1.6,1.3-3,3-3H265c1.6,0,3,1.3,3,3v10.6
					C268,213.2,266.6,214.5,265,214.5z"/>
				<g>
					<path class="st6" d="M213.1,183.2h-25.4c-0.4,0-0.7-0.3-0.7-0.7v-0.1c0-0.4,0.3-0.7,0.7-0.7h25.4c0.4,0,0.7,0.3,0.7,0.7v0.1
						C213.8,182.9,213.5,183.2,213.1,183.2z"/>
					<path class="st6" d="M213.1,192.3h-25.4c-0.4,0-0.7-0.3-0.7-0.7v-0.1c0-0.4,0.3-0.7,0.7-0.7h25.4c0.4,0,0.7,0.3,0.7,0.7v0.1
						C213.8,192,213.5,192.3,213.1,192.3z"/>
					<path class="st6" d="M219.2,187.7h-31.4c-0.4,0-0.7-0.3-0.7-0.7V187c0-0.4,0.3-0.7,0.7-0.7h31.4c0.4,0,0.7,0.3,0.7,0.7v0.1
						C219.9,187.4,219.6,187.7,219.2,187.7z"/>
				</g>
			</g>
		</g>
		<g>
			<g>
				<path class="st8" d="M147.6,254c1.8,0,5.9-0.2,8.7-2.2c1.8-1.3,2.8-3,2.8-5.2c0-2.4-1-4.2-2.9-5.6c-3.1-2.1-7.4-1.8-7.6-1.8
					l0.3,2.9c0,0,2.9-0.2,4.7,1.1c1.1,0.7,1.6,1.9,1.6,3.4c0,1.3-0.5,2.3-1.5,3c-2.3,1.6-6.6,1.4-6.6,1.4l-0.3,2.9
					C146.8,253.9,147.1,254,147.6,254z"/>
				<polygon class="st8" points="151.3,233.4 123.2,233.4 127.4,260.1 146.9,260.1 				"/>
			</g>
			<path class="st6" d="M137.1,226.5c1.8-1.4,3.3-2.8,4.8-4.6c1.4-1.8,2.6-3.9,3.1-6.5c0.6-2.6,0-5.8-1.4-8.1
				c-1.4-2.4-3.3-4.1-5.2-5.5c-0.3-0.2-0.5-0.3-0.6-0.5l-0.6-0.4L136,200c-0.7-0.6-1.4-1.2-2-1.8c-1.2-1.2-2.4-2.5-2.8-3.4
				c-0.2-0.4,0-0.6,0.2-0.2c0.1,0.2,0.2,0.6,0.2,0.8c0,0.3,0,0.4,0,0.5c0.1,0.1,0.4-0.3,0.9-0.6c0.5-0.4,1.2-0.9,1.9-1.3
				c3.3-2.3,4.2-6.8,1.9-10.1c-2.3-3.3-6.8-4.2-10.1-1.9c-0.5,0.3-0.9,0.7-1.2,1l-0.1,0.2c-0.7,0.8-1.5,1.7-2.4,2.7
				c-0.8,1.1-1.7,2.2-2.6,4.1c-0.8,1.7-1.4,4.6-0.7,7c0.6,2.4,1.8,3.9,2.8,5.1c1.1,1.1,2.1,1.9,3.1,2.6c1,0.7,2,1.3,2.9,1.8
				c1,0.5,1.9,1,2.9,1.5l2.8,1.3c1.4,0.7,2.6,1.4,3.5,2.3c0.8,0.9,1.2,1.8,1.3,3.1c0.1,2.6-1.9,6.1-4.1,8.7l-0.1,0.1
				c-0.8,0.9-0.7,2.2,0.2,3C135.2,227.1,136.3,227.1,137.1,226.5z"/>
		</g>
		<g>
			<g>
				<path class="st9" d="M94.2,285h-5v114.8c0,1.4,1.1,2.5,2.5,2.5h2.5h2.5c1.4,0,2.5-1.1,2.5-2.5V285H94.2z"/>
				<polygon class="st10" points="99.2,292.2 89.2,287.2 89.2,285 99.2,285 				"/>
			</g>
			<g>
				<path class="st9" d="M136.4,402.3h-5c-1.4,0-2.5-1.1-2.5-2.5V285h10v114.8C138.9,401.2,137.8,402.3,136.4,402.3z"/>
				<polygon class="st10" points="138.9,292.2 128.9,287.2 128.9,285 138.9,285 				"/>
			</g>
			<g>
				<path class="st11" d="M368.6,285h-5v114.8c0,1.4,1.1,2.5,2.5,2.5h2.5h2.5c1.4,0,2.5-1.1,2.5-2.5V285H368.6z"/>
				<polygon class="st12" points="373.6,292.2 363.6,287.2 363.6,285 373.6,285 				"/>
			</g>
			<g>
				<path class="st9" d="M410.8,402.3h-5c-1.4,0-2.5-1.1-2.5-2.5V285h10v114.8C413.3,401.2,412.2,402.3,410.8,402.3z"/>
				<polygon class="st10" points="413.3,292.2 403.3,287.2 403.3,285 413.3,285 				"/>
			</g>
			
				<rect x="123.5" y="260.3" transform="matrix(-1 -1.224647e-16 1.224647e-16 -1 556.3458 531.1516)" class="st13" width="309.4" height="10.5"/>
			
				<rect x="68.5" y="260.3" transform="matrix(-1 -1.224647e-16 1.224647e-16 -1 191.9806 531.1516)" class="st14" width="55" height="10.5"/>
			
				<rect x="89.2" y="275.5" transform="matrix(-1 -1.224647e-16 1.224647e-16 -1 218.2837 560.4917)" class="st14" width="39.8" height="9.5"/>
			
				<rect x="89.2" y="271" transform="matrix(-1 -1.224647e-16 1.224647e-16 -1 502.5331 546.461)" class="st15" width="324.1" height="4.5"/>
			
				<rect x="129.1" y="275.5" transform="matrix(-1 -1.224647e-16 1.224647e-16 -1 542.373 560.4917)" class="st13" width="284.2" height="9.5"/>
		</g>
		<g>
			<g>
				
					<rect x="296.1" y="370.8" transform="matrix(-1 -1.224647e-16 1.224647e-16 -1 606.108 759.2339)" class="st16" width="13.9" height="17.7"/>
				<path class="st17" d="M310,384.8l0.7,0.5c1.1,0.8,1.7,2,1.7,3.3v11.9h-36.3l0.2-2.4c0.4-3.9,3-7.3,6.6-8.7l13.1-4.7H310z"/>
				<rect x="292.3" y="306.9" class="st18" width="24.2" height="70.8"/>
			</g>
			<polygon class="st16" points="259.2,249.2 244.3,249.2 244.3,260.3 264.6,260.3 264.6,249.3 			"/>
			
				<rect x="248.5" y="370.8" transform="matrix(-1 -1.224647e-16 1.224647e-16 -1 510.8768 759.2339)" class="st16" width="13.9" height="17.7"/>
			<path class="st17" d="M262.4,384.8l0.7,0.5c1.1,0.8,1.7,2,1.7,3.3v11.9h-36.3l0.2-2.4c0.4-3.9,3-7.3,6.6-8.7l13.1-4.7H262.4z"/>
			<path class="st16" d="M306.7,158.8V187c0,5,3.9,9.2,8.9,9.5l13.9,0.3v-38H306.7z"/>
			<path class="st16" d="M308.3,174.5l-4.6,3.8c-0.5,0.4-0.8,1-0.8,1.7l0,0c0,1.2,1,2.2,2.2,2.2h5.5L308.3,174.5z"/>
			<polygon class="st16" points="330,203.5 349.5,203.5 346.5,179 327,179 			"/>
			<path class="st3" d="M314.4,180.5L314.4,180.5c0.3-0.5,0.4-1.1,0.4-1.7v-11.7h6.8l0,29.6h-3.8c-7.8,0-11.1-4.4-11.1-10.6v-3.4
				h4.2C312.4,182.7,313.7,181.8,314.4,180.5z"/>
			<path class="st3" d="M327,179L327,179c0,3,2.4,5.4,5.4,5.4h14.7c3,0,5.4-2.4,5.4-5.4v-21c0-6.8-5.5-12.4-12.4-12.4h-23.3
				l-5.3,10.6c-1.3,17.3,14.8,13.6,14.8,13.6L327,179z"/>
			<path class="st3" d="M311.5,158.8c0,0-4.9,7.8-12.3-0.7c0,0,6.6,1.3,6.6-5.5c0-6.7,4.8-7.5,11.1-7.1c4.8,0.3,5.6,8.1,5.6,8.1
				L311.5,158.8z"/>
			<circle class="st16" cx="327" cy="173" r="6"/>
			<path class="st7" d="M268.7,377.7l0.4-61.3l52.5-1.6l-0.7-24.1l-64.1,1.9c-6.5,0.2-11.7,5.5-11.7,12l-0.4,72.9L268.7,377.7z"/>
			<path class="st19" d="M328.6,308.4h48.6v-81c0-14.8-12-26.8-26.8-26.8H335c-14.8,0-26.8,12-26.8,26.8c0,0,5.2,32.6,2.9,62.1
				C310.3,299.7,318.4,308.4,328.6,308.4z"/>
			<path class="st19" d="M256.2,261.1c0.1,0,0.3,0,0.4,0l40.3-0.3c3.4-0.1,6.6-2.8,8.6-5.6l27.6-32.2c3.7-5,2.6-12-2.3-15.6
				c-5-3.7-12-2.6-15.6,2.3l-24.4,28.9l-34.9,4.4c-6.4,0.9-7.9,3.7-7.6,9.9C248.4,258.8,250.2,261.1,256.2,261.1z"/>
			<g>
				<g>
					<path class="st3" d="M333.7,361.2c0.2,0,0.3,0,0.4-0.1l31.3-23.1c0.3-0.2,0.4-0.7,0.2-1.1c-0.2-0.3-0.7-0.4-1.1-0.2l-31.3,23.1
						c-0.3,0.2-0.4,0.7-0.2,1.1C333.2,361,333.5,361.2,333.7,361.2z"/>
					<path class="st3" d="M368.2,360c0.2,0,0.5-0.1,0.6-0.3c0.2-0.3,0.2-0.8-0.2-1.1l-31.6-23.2c-0.3-0.2-0.8-0.2-1.1,0.2
						c-0.2,0.3-0.2,0.8,0.2,1.1l31.6,23.2C367.9,359.9,368.1,360,368.2,360z"/>
				</g>
				<g>
					<path class="st3" d="M293.1,362.7c0.1,0,0.3,0,0.4-0.1l38.9-24.6c0.4-0.2,0.5-0.7,0.2-1c-0.2-0.4-0.7-0.5-1-0.2l-38.9,24.6
						c-0.4,0.2-0.5,0.7-0.2,1C292.6,362.5,292.8,362.7,293.1,362.7z"/>
					<path class="st3" d="M330.7,360c0.2,0,0.4-0.1,0.6-0.3c0.3-0.3,0.2-0.8-0.1-1.1L298,332.4c-0.3-0.3-0.8-0.2-1.1,0.1
						c-0.3,0.3-0.2,0.8,0.1,1.1l33.1,26.2C330.3,359.9,330.5,360,330.7,360z"/>
				</g>
				<path class="st20" d="M278,402.5c1.8,0,3.3-1.2,3.8-3l17.9-73.4c0.5-2.1-0.8-4.2-2.9-4.7c-2.1-0.5-4.2,0.8-4.7,2.9l-17.9,73.4
					c-0.5,2.1,0.8,4.2,2.9,4.7C277.4,402.5,277.7,402.5,278,402.5z"/>
				<path class="st20" d="M331.8,403.4c1.7-0.3,3.1-1.7,3.3-3.5l6.2-75.3c0.2-2.1-1.4-4-3.6-4.2c-2.1-0.2-4,1.4-4.2,3.6l-6.2,75.3
					c-0.2,2.1,1.4,4,3.6,4.2C331.2,403.5,331.5,403.4,331.8,403.4z"/>
				<path class="st20" d="M382.1,402.3c1.6-0.8,2.5-2.5,2.1-4.3l-15.9-73.9c-0.5-2.1-2.5-3.4-4.6-3c-2.1,0.5-3.4,2.5-3,4.6
					l15.9,73.9c0.5,2.1,2.5,3.4,4.6,3C381.5,402.6,381.8,402.5,382.1,402.3z"/>
				<g>
					<path class="st6" d="M400.7,240.5c1.4-4-1.5-8.1-5.8-8.1l-31.7,0c0,0-20.5,0-31.9,45.4c0,0-7.1,39.4-36.4,38.1h-12.7
						c-3,0-5.3,2.4-5.3,5.3l0,0c0,3,2.4,5.3,5.3,5.3h76.3c15.1,0,27.8-11.3,29.5-26.3l2.5-21.7c0.2-1.9,0.6-3.8,1-5.7
						C392.9,266.8,396.3,253,400.7,240.5z"/>
					<path class="st21" d="M400.7,240.5l-29-0.7c-10.4-0.3-20.2,5.4-25,14.7c-2.3,4.5-4.6,10.2-6.6,17.6c0,0,36.7-27.9,52.9-5.4
						L400.7,240.5z"/>
					<path class="st21" d="M383.2,313.2c0,0-17.2,10.1-57.1-1.8c0,0-6.5,9-20,9.9l-15.2,0c-3.2,0-6.3,1.3-8.6,3.6l-1.4,1.4l77.5,0.2
						C358.5,326.5,374.6,326.8,383.2,313.2z"/>
				</g>
			</g>
			<path class="st16" d="M247.7,250.6c0,0-5.8-5.1-11-6c-8.4-1.4-16,4.4-16,11.9v3.9h23.7L247.7,250.6z"/>
		</g>
		<path class="st14" d="M45.4,403.9h411.4c0.9,0,1.6-0.7,1.6-1.6c0-0.9-0.7-1.6-1.6-1.6H45.4c-0.9,0-1.6,0.7-1.6,1.6
			C43.8,403.2,44.6,403.9,45.4,403.9z"/>
		<g>
			
				<ellipse transform="matrix(0.927 -0.3752 0.3752 0.927 -29.0719 50.694)" class="st14" cx="115.6" cy="100" rx="32.6" ry="32.6"/>
			<circle class="st6" cx="115.6" cy="100" r="25.7"/>
			<polyline class="st22" points="115.6,82.2 115.6,100 105.2,106.6 			"/>
		</g>
	</g>
</g>
<g id="DESIGNED_BY_FREEPIK" class="st0">
	<g class="st23">
		<g id="XMLID_319_">
			<g id="XMLID_338_">
				<path id="XMLID_346_" class="st24" d="M260.1,465.5c-0.4,0.4-0.8,0.9-1.1,1.5l-0.5-0.2c-0.1-0.3-0.3-0.5-0.7-0.5
					c-0.3,0-0.6,0.3-0.5,0.7s0.3,0.6,0.7,0.5c0.1,0,0.1,0,0.2-0.1l0.5,0.2c-0.3,0.6-0.4,1.1-0.5,1.7l0.7,0.1
					c0.2-1.3,0.8-2.5,1.8-3.5L260.1,465.5z"/>
				<path id="XMLID_345_" class="st24" d="M265.6,463.2c-0.2,0-0.3,0-0.5,0l-0.1-0.6c0.2-0.1,0.3-0.4,0.3-0.6c0-0.4-0.4-0.7-0.8-0.6
					s-0.7,0.4-0.6,0.8c0,0.3,0.2,0.5,0.4,0.6l0.1,0.6c-0.7,0.1-1.4,0.3-2.1,0.6l0.3,0.7c0.9-0.4,1.9-0.7,3-0.7c0.5,0,1,0.1,1.5,0.2
					l0.2-0.7C266.7,463.2,266.1,463.2,265.6,463.2z"/>
				<path id="XMLID_344_" class="st24" d="M272.2,465.7c0.3,0,0.6-0.3,0.5-0.7c0-0.3-0.3-0.6-0.7-0.5c-0.3,0-0.5,0.3-0.5,0.6
					l-0.4,0.4c-0.4-0.4-0.9-0.8-1.4-1.1l-0.4,0.6c1.1,0.7,2,1.7,2.6,2.9l0.7-0.3c-0.3-0.6-0.6-1.1-0.9-1.5l0.4-0.4
					C272.1,465.7,272.1,465.7,272.2,465.7z"/>
				<path id="XMLID_343_" class="st24" d="M265,473.4c-0.4,0-0.8,0-1.2,0c-0.9,0-1.7-0.1-2.5-0.2c-0.4-0.1-0.8-0.2-1.3-0.3
					c1,1.9,3.1,3.1,5.4,3.1c2.9,0,5.3-1.9,5.9-4.5c-0.7,0.4-1.5,0.8-2.5,1.1C267.8,473,266.5,473.3,265,473.4z"/>
				<path id="XMLID_339_" class="st24" d="M265.6,464.7c-3.4,0-6.1,2.7-6.1,5.9c0,0.4,0,0.8,0.1,1.3c0.7,0.5,2.7,0.9,5.3,0.7
					c2.9-0.2,5.3-1,6.7-2.2c0-0.2,0-0.4,0-0.6C271.2,466.9,268.7,464.7,265.6,464.7z M263.4,471.2c-1,0-1.8-0.8-1.8-1.8
					c0-1,0.8-1.8,1.8-1.8c1,0,1.8,0.8,1.8,1.8C265.3,470.4,264.5,471.2,263.4,471.2z M268.2,470.3c-0.8,0-1.4-0.6-1.4-1.4
					s0.6-1.4,1.4-1.4c0.8,0,1.4,0.6,1.4,1.4S268.9,470.3,268.2,470.3z"/>
			</g>
			<path id="XMLID_336_" class="st24" d="M281.6,466.5c-0.3-0.1-0.8-0.3-1.4-0.2c-0.6,0.1-0.8,0.3-0.8,1v0.9h2.2v1.7h-2.2v5.5h-1.9
				v-5.5h-1.3v-1.7h1.3v-0.9c0-1.7,0.9-2.8,2.6-2.8c0.6,0,1.2,0.1,1.6,0.3L281.6,466.5z"/>
			<path id="XMLID_334_" class="st24" d="M286.3,469.9c-0.2,0-0.4,0-0.5,0c-0.9,0-1.5,0.5-1.5,1.6v3.9h-1.9v-7.2h1.9v0.8
				c0.5-0.7,1.1-1,2-1c0.4,0,0.8,0.1,1.1,0.3L286.3,469.9z"/>
			<path id="XMLID_331_" class="st24" d="M294,471.8c0,0.2,0,0.5,0,0.7h-5.1c0.2,1,0.9,1.5,1.8,1.5c0.6,0,1.3-0.3,1.8-0.7l1.1,1.2
				c-0.8,0.7-1.9,1.1-3.1,1.1c-2.2,0-3.7-1.5-3.7-3.8c0-2.3,1.5-3.8,3.6-3.8C292.5,468,294,469.5,294,471.8z M288.9,471.1h3.2
				c-0.2-0.9-0.7-1.4-1.6-1.4C289.6,469.7,289,470.2,288.9,471.1z"/>
			<path id="XMLID_328_" class="st24" d="M301.6,471.8c0,0.2,0,0.5,0,0.7h-5.1c0.2,1,0.9,1.5,1.8,1.5c0.6,0,1.3-0.3,1.8-0.7l1.1,1.2
				c-0.8,0.7-1.9,1.1-3.1,1.1c-2.2,0-3.7-1.5-3.7-3.8c0-2.3,1.5-3.8,3.6-3.8C300.2,468,301.6,469.5,301.6,471.8z M296.5,471.1h3.2
				c-0.2-0.9-0.7-1.4-1.6-1.4C297.2,469.7,296.7,470.2,296.5,471.1z"/>
			<path id="XMLID_325_" class="st24" d="M310,471.8c0,2.2-1.5,3.8-3.5,3.8c-1,0-1.6-0.4-2.1-0.9v3.7h-1.9v-10.1h1.9v0.8
				c0.5-0.6,1.2-1,2.1-1C308.5,468,310,469.6,310,471.8z M304.3,471.8c0,1.1,0.7,2,1.8,2c1.1,0,1.9-0.9,1.9-2c0-1.1-0.7-2-1.9-2
				C305,469.8,304.3,470.6,304.3,471.8z"/>
			<path id="XMLID_322_" class="st24" d="M313.1,465.8c0,0.7-0.5,1.2-1.2,1.2c-0.7,0-1.2-0.5-1.2-1.2c0-0.7,0.5-1.2,1.2-1.2
				C312.5,464.6,313.1,465.1,313.1,465.8z M312.8,475.4h-1.9v-7.2h1.9V475.4z"/>
			<path id="XMLID_320_" class="st24" d="M316,470.7l2.7-2.6h2.4l-3.5,3.4l3.5,3.8h-2.4l-2.7-2.9v2.9h-1.9v-10.7h1.9V470.7z"/>
		</g>
		<g>
			<path class="st24" d="M184.4,475.3v-1.1c-0.5,0.7-1.4,1.2-2.4,1.2c-1.8,0-3.1-1.4-3.1-3.7c0-2.3,1.3-3.7,3.1-3.7
				c1,0,1.8,0.5,2.4,1.2v-3.8h1.1v9.8H184.4z M184.4,473.4v-3.2c-0.4-0.6-1.2-1.1-2.1-1.1c-1.4,0-2.3,1.2-2.3,2.7
				c0,1.6,0.8,2.7,2.3,2.7C183.2,474.5,184,474,184.4,473.4z"/>
			<path class="st24" d="M186.9,471.7c0-2.1,1.5-3.7,3.5-3.7c2.1,0,3.4,1.7,3.4,3.8v0.3h-5.7c0.1,1.3,1,2.4,2.5,2.4
				c0.8,0,1.6-0.3,2.2-0.9l0.5,0.7c-0.7,0.7-1.7,1.1-2.8,1.1C188.4,475.5,186.9,474,186.9,471.7z M190.4,468.9
				c-1.5,0-2.3,1.3-2.3,2.4h4.6C192.7,470.3,192,468.9,190.4,468.9z"/>
			<path class="st24" d="M194.6,474.4l0.6-0.8c0.5,0.5,1.4,1,2.3,1c1.1,0,1.7-0.5,1.7-1.2c0-1.7-4.4-0.7-4.4-3.3c0-1.1,1-2,2.6-2
				c1.2,0,2.1,0.5,2.6,1l-0.5,0.8c-0.4-0.5-1.2-0.9-2.1-0.9c-1,0-1.6,0.5-1.6,1.1c0,1.6,4.4,0.5,4.4,3.3c0,1.2-1,2.1-2.8,2.1
				C196.3,475.5,195.3,475.1,194.6,474.4z"/>
			<path class="st24" d="M201.5,466.5c0-0.4,0.3-0.7,0.7-0.7c0.4,0,0.7,0.3,0.7,0.7c0,0.4-0.3,0.7-0.7,0.7
				C201.8,467.2,201.5,466.9,201.5,466.5z M201.7,475.3v-7.1h1.1v7.1H201.7z"/>
			<path class="st24" d="M204.6,477.1l0.6-0.8c0.6,0.7,1.3,1,2.3,1c1.2,0,2.3-0.6,2.3-2.1v-1c-0.5,0.7-1.4,1.3-2.4,1.3
				c-1.8,0-3.1-1.4-3.1-3.7c0-2.3,1.3-3.7,3.1-3.7c1,0,1.8,0.5,2.4,1.2v-1.1h1.1v6.9c0,2.3-1.6,3.1-3.4,3.1
				C206.2,478.2,205.4,477.9,204.6,477.1z M209.7,473.3v-3.1c-0.4-0.6-1.2-1.1-2.1-1.1c-1.4,0-2.3,1.1-2.3,2.7
				c0,1.6,0.8,2.7,2.3,2.7C208.5,474.4,209.3,473.9,209.7,473.3z"/>
			<path class="st24" d="M217.4,475.3v-4.6c0-1.2-0.6-1.6-1.6-1.6c-0.9,0-1.7,0.5-2.1,1.1v5.2h-1.1v-7.1h1.1v1
				c0.5-0.6,1.5-1.2,2.5-1.2c1.5,0,2.3,0.7,2.3,2.3v5H217.4z"/>
			<path class="st24" d="M219.9,471.7c0-2.1,1.5-3.7,3.5-3.7c2.1,0,3.4,1.7,3.4,3.8v0.3h-5.7c0.1,1.3,1,2.4,2.5,2.4
				c0.8,0,1.6-0.3,2.2-0.9l0.5,0.7c-0.7,0.7-1.7,1.1-2.8,1.1C221.4,475.5,219.9,474,219.9,471.7z M223.4,468.9
				c-1.5,0-2.3,1.3-2.3,2.4h4.6C225.7,470.3,225,468.9,223.4,468.9z"/>
			<path class="st24" d="M233.4,475.3v-1.1c-0.5,0.7-1.4,1.2-2.4,1.2c-1.8,0-3.1-1.4-3.1-3.7c0-2.3,1.3-3.7,3.1-3.7
				c1,0,1.8,0.5,2.4,1.2v-3.8h1.1v9.8H233.4z M233.4,473.4v-3.2c-0.4-0.6-1.2-1.1-2.1-1.1c-1.4,0-2.3,1.2-2.3,2.7
				c0,1.6,0.8,2.7,2.3,2.7C232.1,474.5,233,474,233.4,473.4z"/>
			<path class="st24" d="M239.7,475.3v-9.8h1.1v3.8c0.6-0.8,1.4-1.2,2.4-1.2c1.8,0,3.1,1.5,3.1,3.7c0,2.3-1.3,3.7-3.1,3.7
				c-1,0-1.9-0.5-2.4-1.2v1.1H239.7z M242.9,474.5c1.4,0,2.3-1.2,2.3-2.7c0-1.6-0.8-2.7-2.3-2.7c-0.9,0-1.7,0.5-2.1,1.1v3.2
				C241.2,474,242,474.5,242.9,474.5z"/>
			<path class="st24" d="M247.5,477.1c0.2,0.1,0.4,0.1,0.6,0.1c0.5,0,0.8-0.2,1.1-0.7l0.5-1.1l-3-7.1h1.2l2.4,5.8l2.3-5.8h1.2
				l-3.5,8.5c-0.4,1-1.1,1.4-2.1,1.4c-0.2,0-0.6,0-0.8-0.1L247.5,477.1z"/>
		</g>
	</g>
</g>
</svg>
