<?xml version="1.0" encoding="utf-8"?>
<!-- Generator: Adobe Illustrator 24.1.2, SVG Export Plug-In . SVG Version: 6.00 Build 0)  -->
<svg version="1.1" xmlns="http://www.w3.org/2000/svg" xmlns:xlink="http://www.w3.org/1999/xlink" x="0px" y="0px"
	 viewBox="0 0 500 500" style="enable-background:new 0 0 500 500;" xml:space="preserve">
<style type="text/css">
	.st0{display:none;}
	.st1{display:inline;fill:#EEEBE4;}
	.st2{fill:#3B2E40;}
	.st3{fill:#3E8BA7;}
	.st4{fill:none;stroke:#479EBF;stroke-width:0.75;stroke-miterlimit:10;}
	.st5{fill:#0A293D;}
	.st6{fill:#FFFFFF;}
	.st7{fill:#744A4C;}
	.st8{fill:#EE8D6A;}
	.st9{fill:#D17B5D;}
	.st10{fill:#C4C4C4;}
	.st11{fill:#D45956;}
	.st12{fill:#5DA8C8;}
	.st13{fill:none;stroke:#69BEE3;stroke-width:0.75;stroke-miterlimit:10;}
	.st14{fill:#ED6360;}
	.st15{fill:none;stroke:#FF7470;stroke-width:0.75;stroke-miterlimit:10;}
	.st16{fill:#DE8362;}
	.st17{fill:#BFBCB5;}
	.st18{fill:#E3DFD8;}
	.st19{fill:#13B88D;}
	.st20{fill:none;stroke:#4E505D;stroke-miterlimit:10;}
	.st21{fill:#F2F2F2;}
	.st22{fill:#4C3B52;}
	.st23{fill:#695273;}
	.st24{fill:#0D3852;}
	.st25{display:inline;}
	.st26{fill:#1C1C1B;}
</style>
<g id="BACKGROUND" class="st0">
	<rect x="0.1" class="st1" width="499.8" height="500"/>
</g>
<g id="OBJECTS">
	<g>
		<path class="st2" d="M258.2,389l-16.8,11.4l-9.5-12.3c0,0,5.3-6.6,10.2,3.4l11.3-10.2L258.2,389z"/>
		<g>
			<polygon class="st3" points="325.7,295.2 244.7,387.8 251,396.4 347.5,312.9 			"/>
			<line class="st4" x1="320.1" y1="324.1" x2="247.9" y2="392.1"/>
		</g>
	</g>
	<g>
		<g>
			<g>
				<g>
					<polygon class="st5" points="414.3,400.4 421.8,400.4 410.3,333.3 402.8,333.3 					"/>
				</g>
				<g>
					<polygon class="st5" points="327.1,400.4 319.6,400.4 331.1,333.3 338.6,333.3 					"/>
				</g>
				<g>
					<rect x="332" y="333.3" class="st5" width="78.3" height="5.8"/>
				</g>
			</g>
		</g>
		<path class="st6" d="M317.3,333.3h89.1c11.4,0,21.6-7.3,25.3-18.1l27.4-80.1c0.7-2.1-0.4-4.4-2.5-5.1l0,0
			c-2.1-0.7-4.4,0.4-5.1,2.5l-27.4,80.1c-2.6,7.6-9.7,12.7-17.7,12.7h-89.1V333.3z"/>
	</g>
	<g>
		<g>
			<path class="st7" d="M352,135.5c3.5,0.4,6.1,1.6,8.2,4.5c-0.9-1.2,5.1-3.7,6.4-3.1c2.3,1.1,2.8,4.4,2.8,6.6
				c0.2,6.6-0.2,13.2,2.2,19.5c0.6,1.6,1.4,3.3,1.6,5c0.3,4.6-5.7,6.4-9.4,5.2c-3.3-1.1-5.5-3.7-7.4-6.5c-1-1.5-2-2.8-2.7-4.5
				c-0.2-0.5-1.6-5.4-1-5.6c-6.6,1.9-14.9,2.6-20.8-1.6c-6.4-4.5-7.3-13.5-3-19.8c0.2-0.2,0.4-0.5,0.6-0.6c0.3-0.1,0.6,0.1,0.8,0.2
				C336.9,138,345,134.6,352,135.5z"/>
			<path class="st8" d="M357.6,189.3l-3.9-12l-15.1,4.3l-1.5-12.7l-3.8-0.2l0-16.9c8.3,4.6,18-0.8,18-0.8l4.3,7.7
				c0.9-3.1,2.5-8,6.2-5.2c3.7,2.8,0.3,9.8,0.3,9.8l10.8,19.2C372.9,182.5,366.2,195,357.6,189.3z"/>
			<path class="st7" d="M331.6,152.4c0,0,3.1,5.8,10.1,2.8c0,0-5.2,0.5-6.3-4.4L331.6,152.4z"/>
		</g>
		<g>
			<g>
				<g>
					<path class="st9" d="M308.1,245c0,0,9.4,0.3,22.4,4.5l2.5-8.8c0,0-10.6-1.7-23.4-2.4c-1.9-1.2-4.1-2.6-6-3.8
						c-0.7-0.4-1.8-0.4-2.5,0c-2.7,1.6-5.2,3.5-7.7,5.4c-0.5,0.3-0.6,1-0.4,1.5c0.6,1.6,1.3,3,1.8,4.7c0.6,1.1,1.8,0.5,2.1-0.6
						c0.3-1.1-0.2-3-0.8-3.8c0.8-0.2,4.1-2.3,4.8-2.1C301.5,239.8,305.5,244.3,308.1,245z"/>
				</g>
				<path class="st9" d="M300.8,239.4l-3.5,5.3c0,0,0,2.3,2.6,0c2.6-2.3,3.9-4.3,3.9-4.3L300.8,239.4z"/>
			</g>
			<polygon class="st10" points="322.9,238 315.4,236.9 313.7,247.7 320.5,248.8 			"/>
			<polygon class="st11" points="382.2,195.7 350.9,239.9 318.9,236.2 316,249.2 354.9,255.4 402.8,220.4 			"/>
		</g>
		<g>
			<path class="st2" d="M337.1,380.4l2,20H321c0,0,0.7-8.1,10.7-5.8l-2.9-14.2H337.1z"/>
			<g>
				<path class="st12" d="M422.6,293.8c0,0,1.3,30.7-35.3,31.3c-36.7,0.7-56.8,0-56.8,0l8.8,65.3h-9.2l-19.3-71.8
					c-3.4-12.5,6-24.7,19-24.7H422.6z"/>
				<path class="st13" d="M402.8,293.8c0,0,0.5,17.3-25.8,18.3c-19.4,0.7-41.8,0.4-52.1,0.1c-3-0.1-5.3,2.6-4.7,5.6l14.1,72.6"/>
			</g>
		</g>
		<g>
			<path class="st14" d="M422.6,293.8c0,0-3.3-78-15.3-94.7c-12-16.7-26-22-26-22L354,193.1c0,0,16.1,55.4,12.4,100.7H422.6z"/>
			<polygon class="st6" points="377.6,171.1 384.5,178.6 367.1,192.9 356.6,185.6 			"/>
			<polygon class="st10" points="356.6,185.6 354,193.1 361.2,188.8 			"/>
			<path class="st15" d="M412,289.4c-16.3-6.2-29.4-18.5-42-30.5"/>
			<path class="st15" d="M385.3,286.7c-3.9-4.2-7.3-9-9.9-14.1"/>
		</g>
		<g>
			<g>
				<path class="st9" d="M301.7,240.9l-5.5,1c-0.6,0.1-0.9,0.8-0.7,1.4l2.6,7.4c0,0,1.8,0.6,1.6-2.2c-0.2-2.9-0.6-4.5-0.6-4.5
					L301.7,240.9z"/>
				<path class="st16" d="M299.1,241.6l-5.4,1.6c-0.5,0.2-0.8,0.9-0.6,1.5l3.1,7.1c0,0,2.2,0.6,1.8-2.3s-0.9-4.5-0.9-4.5
					L299.1,241.6z"/>
				<path class="st8" d="M308.3,250.8c0,0,9.4,0.1,22.6,4.1l1.8-9.3c0,0-10.6-1.5-23.4-1.9c-1.9-1.2-4.3-2.6-6.3-3.8
					c-0.7-0.4-1.8-0.4-2.5,0.1c-2.5,1.8-4.9,3.8-7.2,5.9c-0.4,0.4-0.6,1-0.3,1.6c0.7,1.7,1.5,3.1,2.1,4.9c0.7,1.1,1.8,0.4,2.1-0.7
					c0.2-1.1-0.5-3.1-1.1-4c0.7-0.3,3.9-2.5,4.6-2.3C301.3,245.4,305.7,250.1,308.3,250.8z"/>
			</g>
			<g>
				<polygon class="st6" points="322.9,243.2 315.4,242.1 313.7,252.9 320.5,254 				"/>
				<polygon class="st14" points="382.2,201 350.9,245.1 318.9,241.4 316,254.4 354.9,260.6 402.8,225.6 				"/>
				<line class="st15" x1="362.1" y1="229.3" x2="384.5" y2="198.1"/>
				<line class="st15" x1="365.4" y1="252.9" x2="404.9" y2="224.1"/>
			</g>
		</g>
	</g>
	<g>
		<g>
			<polygon class="st17" points="96.9,400.4 101.9,400.4 80.6,194.5 75.6,194.5 			"/>
			<polygon class="st17" points="54.2,400.4 49.2,400.4 70.6,194.5 75.6,194.5 			"/>
			<polygon class="st17" points="195.6,400.4 200.6,400.4 179.3,194.5 174.3,194.5 			"/>
			<polygon class="st17" points="152.9,400.4 147.9,400.4 169.3,194.5 174.3,194.5 			"/>
			<polygon class="st17" points="73.5,306.9 200.5,306.9 187.4,109.9 60.4,109.9 			"/>
			<polygon class="st18" points="78,306.9 205,306.9 191.9,109.9 64.9,109.9 			"/>
		</g>
		<g>
			<path class="st17" d="M145.1,192.7v-11.5l-7-1.2c-0.4-1.1-0.8-2.2-1.3-3.2l4.1-5.8l-8.1-8.1L127,167c-1-0.5-2.1-1-3.2-1.3l-1.2-7
				h-5.7h-5.7l-1.2,7c-1.1,0.4-2.2,0.8-3.2,1.3L101,163l-8.1,8.1l4.1,5.8c-0.5,1-1,2.1-1.3,3.2l-7,1.2v11.5l7,1.2
				c0.4,1.1,0.8,2.2,1.3,3.2l-4.1,5.8l8.1,8.1l5.8-4.1c1,0.5,2.1,1,3.2,1.3l1.2,7h5.7h5.7l1.2-7c1.1-0.4,2.2-0.8,3.2-1.3l5.8,4.1
				l8.1-8.1l-4.1-5.8c0.5-1,1-2.1,1.3-3.2L145.1,192.7z M116.9,197.7c-5.9,0-10.7-4.8-10.7-10.7c0-5.9,4.8-10.7,10.7-10.7
				s10.7,4.8,10.7,10.7C127.7,192.9,122.9,197.7,116.9,197.7z"/>
			<path class="st19" d="M181.7,213.2V206l-4.4-0.7c-0.2-0.7-0.5-1.4-0.8-2l2.6-3.6l-5.1-5.1l-3.6,2.6c-0.6-0.3-1.3-0.6-2-0.8
				l-0.7-4.4h-3.6h-3.6l-0.7,4.4c-0.7,0.2-1.4,0.5-2,0.8l-3.6-2.6l-5.1,5.1l2.6,3.6c-0.3,0.6-0.6,1.3-0.8,2l-4.4,0.7v7.2l4.4,0.7
				c0.2,0.7,0.5,1.4,0.8,2l-2.6,3.6l5.1,5.1l3.6-2.6c0.6,0.3,1.3,0.6,2,0.8l0.7,4.4h3.6h3.6l0.7-4.4c0.7-0.2,1.4-0.5,2-0.8l3.6,2.6
				l5.1-5.1l-2.6-3.6c0.3-0.6,0.6-1.3,0.8-2L181.7,213.2z M163.9,216.4c-3.7,0-6.8-3-6.8-6.8c0-3.7,3-6.8,6.8-6.8s6.8,3,6.8,6.8
				C170.7,213.3,167.7,216.4,163.9,216.4z"/>
		</g>
		<polyline class="st20" points="125,170.9 137.9,134.7 155.2,134.7 		"/>
		<g>
			<g>
				<g>
					<rect x="85.3" y="242.2" class="st21" width="35.5" height="3.3"/>
				</g>
				<g>
					<rect x="125.3" y="242.2" class="st21" width="7.2" height="3.3"/>
				</g>
				<g>
					<rect x="85.3" y="251.4" class="st21" width="22.2" height="3.3"/>
				</g>
			</g>
		</g>
		<g>
			<g>
				<g>
					<rect x="158.1" y="128.4" class="st21" width="22" height="3.3"/>
				</g>
				<g>
					<rect x="183" y="128.4" class="st21" width="4.5" height="3.3"/>
				</g>
				<g>
					<rect x="158.1" y="137.6" class="st21" width="13.8" height="3.3"/>
				</g>
			</g>
		</g>
	</g>
	<g>
		<path class="st2" d="M257.9,255.6h66.5c1.4,0,2.5,1.1,2.5,2.5l0,0c0,1.4-1.1,2.5-2.5,2.5h-66.5c-1.4,0-2.5-1.1-2.5-2.5l0,0
			C255.4,256.7,256.5,255.6,257.9,255.6z"/>
		<path class="st22" d="M257.6,255.6h5.5l-21.6-58.4c-0.4-1-1.3-1.7-2.4-1.7l0,0c-1.8,0-3,1.8-2.4,3.5L257.6,255.6z"/>
		<path class="st23" d="M302.9,259h11.5c0.5,0,0.9-0.4,0.9-0.9l0,0c0-0.5-0.4-0.9-0.9-0.9h-11.5c-0.5,0-0.9,0.4-0.9,0.9l0,0
			C302.1,258.6,302.5,259,302.9,259z"/>
		<circle class="st23" cx="299.9" cy="258.1" r="0.9"/>
		<circle class="st23" cx="296.8" cy="258.1" r="0.9"/>
		<circle class="st23" cx="261" cy="258.1" r="0.9"/>
	</g>
	<g>
		
			<rect x="108.9" y="260.6" transform="matrix(-1 -1.224647e-16 1.224647e-16 -1 463.7346 531.2976)" class="st6" width="246" height="10"/>
		<polygon class="st24" points="349.9,400.4 354.9,400.4 333.5,270.6 328.5,270.6 		"/>
		<polygon class="st24" points="113.9,400.4 108.9,400.4 130.2,270.6 135.2,270.6 		"/>
	</g>
	<line class="st20" x1="32.2" y1="400.4" x2="467.8" y2="400.4"/>
</g>
<g id="DESIGNED_BY_FREEPIK" class="st0">
	<g class="st25">
		<g id="XMLID_319_">
			<g id="XMLID_338_">
				<path id="XMLID_346_" class="st26" d="M261.4,464.9c-0.5,0.5-0.9,1.1-1.3,1.6l-0.5-0.3c-0.1-0.3-0.4-0.6-0.7-0.5
					c-0.4,0-0.6,0.4-0.6,0.8c0,0.4,0.4,0.6,0.8,0.6c0.1,0,0.1,0,0.2-0.1l0.5,0.3c-0.3,0.6-0.5,1.3-0.6,2l0.8,0.1
					c0.3-1.5,1-2.8,2-3.9L261.4,464.9z"/>
				<path id="XMLID_345_" class="st26" d="M267.7,462.3c-0.2,0-0.4,0-0.6,0l-0.1-0.7c0.2-0.2,0.3-0.4,0.3-0.7
					c-0.1-0.4-0.5-0.8-0.9-0.7c-0.4,0.1-0.8,0.5-0.7,0.9c0,0.3,0.2,0.5,0.5,0.6l0.1,0.7c-0.8,0.1-1.6,0.4-2.3,0.7l0.4,0.8
					c1.1-0.5,2.2-0.8,3.4-0.8c0.6,0,1.1,0.1,1.7,0.2l0.2-0.8C268.9,462.4,268.3,462.3,267.7,462.3z"/>
				<path id="XMLID_344_" class="st26" d="M275.1,465.2c0.4,0,0.6-0.4,0.6-0.8c0-0.4-0.4-0.6-0.8-0.6c-0.4,0-0.6,0.3-0.6,0.7
					l-0.5,0.4c-0.5-0.5-1-0.9-1.6-1.3l-0.5,0.7c1.3,0.8,2.3,2,2.9,3.3l0.8-0.4c-0.3-0.6-0.6-1.2-1.1-1.7l0.5-0.4
					C275,465.2,275.1,465.2,275.1,465.2z"/>
				<path id="XMLID_343_" class="st26" d="M267,473.8c-0.4,0-0.9,0-1.3,0c-1,0-2-0.1-2.8-0.2c-0.4-0.1-1-0.2-1.4-0.3
					c1.2,2.1,3.5,3.5,6.1,3.5c3.2,0,6-2.2,6.7-5.1c-0.8,0.5-1.7,0.9-2.8,1.3C270.2,473.5,268.6,473.7,267,473.8z"/>
				<path id="XMLID_339_" class="st26" d="M267.7,464c-3.8,0-6.9,3-6.9,6.7c0,0.5,0.1,1,0.2,1.4c0.8,0.5,3.1,1,6.1,0.8
					c3.3-0.2,6-1.1,7.6-2.4c0-0.2,0-0.4-0.1-0.7C274.1,466.5,271.1,464,267.7,464z M265.2,471.4c-1.2,0-2.1-0.9-2.1-2.1
					c0-1.2,0.9-2.1,2.1-2.1c1.2,0,2.1,0.9,2.1,2.1C267.3,470.4,266.4,471.4,265.2,471.4z M270.6,470.4c-0.8,0-1.5-0.7-1.5-1.5
					c0-0.8,0.7-1.5,1.5-1.5c0.8,0,1.5,0.7,1.5,1.5C272.1,469.7,271.4,470.4,270.6,470.4z"/>
			</g>
			<path id="XMLID_336_" class="st26" d="M285.8,466.1c-0.3-0.1-0.9-0.3-1.6-0.3c-0.6,0.1-1,0.4-1,1.1v1h2.5v1.9h-2.5v6.2h-2.2v-6.2
				h-1.5V468h1.5v-1c0-1.9,1-3.2,2.9-3.2c0.7,0,1.3,0.1,1.8,0.3L285.8,466.1z"/>
			<path id="XMLID_334_" class="st26" d="M291.1,469.9c-0.2,0-0.4-0.1-0.6-0.1c-1,0-1.7,0.6-1.7,1.8v4.4h-2.2V468h2.1v0.9
				c0.5-0.8,1.3-1.1,2.3-1.1c0.5,0,1,0.1,1.2,0.4L291.1,469.9z"/>
			<path id="XMLID_331_" class="st26" d="M299.8,472c0,0.3,0,0.6,0,0.7H294c0.2,1.2,1.1,1.7,2.1,1.7c0.7,0,1.5-0.3,2.1-0.8l1.3,1.4
				c-0.9,0.8-2.1,1.2-3.5,1.2c-2.5,0-4.2-1.7-4.2-4.2c0-2.6,1.7-4.3,4.1-4.3C298.2,467.8,299.8,469.5,299.8,472z M294,471.3h3.6
				c-0.2-1-0.8-1.6-1.8-1.6C294.8,469.6,294.2,470.3,294,471.3z"/>
			<path id="XMLID_328_" class="st26" d="M308.5,472c0,0.3,0,0.6,0,0.7h-5.8c0.2,1.2,1.1,1.7,2.1,1.7c0.7,0,1.5-0.3,2.1-0.8l1.3,1.4
				c-0.9,0.8-2.1,1.2-3.5,1.2c-2.5,0-4.2-1.7-4.2-4.2c0-2.6,1.7-4.3,4.1-4.3C306.8,467.8,308.4,469.5,308.5,472z M302.7,471.3h3.6
				c-0.2-1-0.8-1.6-1.8-1.6C303.5,469.6,302.9,470.3,302.7,471.3z"/>
			<path id="XMLID_325_" class="st26" d="M317.9,472c0,2.4-1.7,4.3-3.9,4.3c-1.1,0-1.9-0.4-2.4-1.1v4.2h-2.2V468h2.1v0.9
				c0.5-0.7,1.3-1.1,2.4-1.1C316.2,467.8,317.9,469.6,317.9,472z M311.5,472c0,1.3,0.8,2.2,2.1,2.2c1.3,0,2.1-1,2.1-2.2
				c0-1.2-0.8-2.2-2.1-2.2C312.3,469.8,311.5,470.7,311.5,472z"/>
			<path id="XMLID_322_" class="st26" d="M321.4,465.3c0,0.8-0.6,1.4-1.4,1.4c-0.8,0-1.4-0.6-1.4-1.4c0-0.8,0.6-1.4,1.4-1.4
				C320.8,463.9,321.4,464.5,321.4,465.3z M321.1,476.1h-2.2V468h2.2V476.1z"/>
			<path id="XMLID_320_" class="st26" d="M324.8,470.9l3.1-2.9h2.7l-3.9,3.8l4,4.3h-2.7l-3.1-3.3v3.3h-2.2V464h2.2V470.9z"/>
		</g>
		<g>
			<path class="st26" d="M175.7,476v-1.2c-0.6,0.8-1.6,1.4-2.7,1.4c-2.1,0-3.6-1.6-3.6-4.2c0-2.6,1.5-4.2,3.6-4.2
				c1.1,0,2.1,0.5,2.7,1.4V465h1.2V476H175.7z M175.7,473.8v-3.6c-0.4-0.7-1.4-1.3-2.4-1.3c-1.6,0-2.6,1.3-2.6,3.1
				c0,1.8,1,3.1,2.6,3.1C174.3,475.1,175.3,474.5,175.7,473.8z"/>
			<path class="st26" d="M178.6,472c0-2.3,1.7-4.2,3.9-4.2c2.4,0,3.8,1.9,3.8,4.3v0.3h-6.5c0.1,1.5,1.2,2.8,2.9,2.8
				c0.9,0,1.8-0.4,2.5-1l0.6,0.8c-0.8,0.8-1.9,1.2-3.2,1.2C180.3,476.2,178.6,474.5,178.6,472z M182.5,468.8c-1.7,0-2.6,1.4-2.6,2.7
				h5.3C185.1,470.3,184.3,468.8,182.5,468.8z"/>
			<path class="st26" d="M187.3,475l0.6-0.9c0.5,0.6,1.5,1.1,2.6,1.1c1.2,0,1.9-0.6,1.9-1.4c0-1.9-5-0.7-5-3.7c0-1.2,1.1-2.3,3-2.3
				c1.4,0,2.3,0.5,3,1.2l-0.6,0.9c-0.5-0.6-1.4-1-2.4-1c-1.1,0-1.8,0.5-1.8,1.3c0,1.8,5,0.6,5,3.7c0,1.3-1.1,2.4-3.2,2.4
				C189.2,476.2,188.1,475.8,187.3,475z"/>
			<path class="st26" d="M195.1,466c0-0.5,0.4-0.8,0.8-0.8c0.5,0,0.8,0.4,0.8,0.8c0,0.5-0.4,0.8-0.8,0.8
				C195.4,466.9,195.1,466.5,195.1,466z M195.3,476v-8h1.2v8H195.3z"/>
			<path class="st26" d="M198.6,478.1l0.6-0.9c0.7,0.8,1.5,1.1,2.6,1.1c1.3,0,2.6-0.6,2.6-2.4v-1.1c-0.6,0.8-1.6,1.4-2.7,1.4
				c-2.1,0-3.6-1.6-3.6-4.1c0-2.6,1.5-4.2,3.6-4.2c1.1,0,2,0.5,2.7,1.4V468h1.2v7.8c0,2.7-1.9,3.5-3.8,3.5
				C200.4,479.3,199.5,479,198.6,478.1z M204.4,473.7v-3.5c-0.4-0.7-1.4-1.3-2.4-1.3c-1.6,0-2.6,1.3-2.6,3.1c0,1.8,1,3.1,2.6,3.1
				C203,475,203.9,474.4,204.4,473.7z"/>
			<path class="st26" d="M213.1,476v-5.2c0-1.4-0.7-1.9-1.8-1.9c-1,0-1.9,0.6-2.4,1.2v5.9h-1.2v-8h1.2v1.2c0.6-0.7,1.7-1.4,2.9-1.4
				c1.7,0,2.6,0.8,2.6,2.6v5.6H213.1z"/>
			<path class="st26" d="M216,472c0-2.3,1.7-4.2,3.9-4.2c2.4,0,3.8,1.9,3.8,4.3v0.3h-6.5c0.1,1.5,1.2,2.8,2.9,2.8
				c0.9,0,1.8-0.4,2.5-1l0.6,0.8c-0.8,0.8-1.9,1.2-3.2,1.2C217.7,476.2,216,474.5,216,472z M219.9,468.8c-1.7,0-2.6,1.4-2.6,2.7h5.3
				C222.5,470.3,221.7,468.8,219.9,468.8z"/>
			<path class="st26" d="M231.1,476v-1.2c-0.6,0.8-1.6,1.4-2.7,1.4c-2.1,0-3.6-1.6-3.6-4.2c0-2.6,1.5-4.2,3.6-4.2
				c1.1,0,2.1,0.5,2.7,1.4V465h1.2V476H231.1z M231.1,473.8v-3.6c-0.4-0.7-1.4-1.3-2.4-1.3c-1.6,0-2.6,1.3-2.6,3.1
				c0,1.8,1,3.1,2.6,3.1C229.7,475.1,230.7,474.5,231.1,473.8z"/>
			<path class="st26" d="M238.3,476V465h1.2v4.3c0.6-0.9,1.6-1.4,2.7-1.4c2.1,0,3.6,1.7,3.6,4.2c0,2.6-1.5,4.2-3.6,4.2
				c-1.1,0-2.1-0.6-2.7-1.4v1.2H238.3z M242,475.1c1.6,0,2.6-1.3,2.6-3.1c0-1.8-1-3.1-2.6-3.1c-1,0-2,0.6-2.4,1.3v3.6
				C240,474.5,241,475.1,242,475.1z"/>
			<path class="st26" d="M247.2,478c0.2,0.1,0.5,0.1,0.7,0.1c0.5,0,0.9-0.2,1.2-0.8l0.5-1.2l-3.4-8.1h1.3l2.7,6.6l2.7-6.6h1.4
				l-4,9.6c-0.5,1.2-1.3,1.6-2.4,1.6c-0.3,0-0.7,0-0.9-0.1L247.2,478z"/>
		</g>
	</g>
</g>
</svg>
