<?xml version="1.0" encoding="utf-8"?>
<!-- Generator: Adobe Illustrator 24.1.2, SVG Export Plug-In . SVG Version: 6.00 Build 0)  -->
<svg version="1.1" xmlns="http://www.w3.org/2000/svg" xmlns:xlink="http://www.w3.org/1999/xlink" x="0px" y="0px"
	 viewBox="0 0 150 150" style="enable-background:new 0 0 150 150;" xml:space="preserve">
<style type="text/css">
	.st0{fill:#4F76B8;}
	.st1{fill:#E2DAD8;}
	.st2{opacity:0.53;}
	.st3{fill:#3D2A41;}
	.st4{fill:#5188C7;}
	.st5{fill:#B9C5DE;}
</style>
<g id="Layer_2">
</g>
<g id="Layer_1">
	<g>
		<g>
			<path class="st0" d="M62.69,15.51c0,0,5.85-1.77,12.93-1.77c7.08,0,11.8,1.77,11.8,1.77l-11.8,13.87L62.69,15.51z"/>
		</g>
		<g>
			<path class="st1" d="M111.66,136.16c0,0-1.23-11.51-2.41-25.67c-1.18-14.16,1.18-42.48,1.18-42.48s0.88,2.27,2.07,6.59
				l21.88-7.47c-5.31-15.04-10.49-28.85-16.87-34.52c-10.62-9.44-27.73-9.44-27.73-9.44c-1.42-5.01-2.36-7.67-2.36-7.67
				c-0.58,6.33-11.81,12.1-12.36,12.38c-0.55-0.28-11.79-6.05-12.36-12.38c0,0-0.94,2.66-2.36,7.67c0,0-17.11,0-27.73,9.44
				c-6.38,5.67-11.56,19.47-16.87,34.52l21.88,7.47c1.18-4.31,2.07-6.59,2.07-6.59s2.36,28.32,1.18,42.48
				c-1.18,14.16-1.82,25.76-1.82,25.76L111.66,136.16z"/>
		</g>
		<g class="st2">
			<path class="st3" d="M110.48,68.31c-0.15,0-0.27-0.11-0.29-0.26c-1.68-13.96-0.76-26.89,2.74-38.46c0.05-0.16,0.21-0.25,0.37-0.2
				c0.16,0.05,0.24,0.21,0.2,0.37c-3.48,11.48-4.39,24.34-2.72,38.21c0.02,0.16-0.1,0.31-0.26,0.33
				C110.5,68.31,110.49,68.31,110.48,68.31z"/>
		</g>
		<g class="st2">
			<path class="st3" d="M39.62,68.31c-0.01,0-0.02,0-0.04,0c-0.16-0.02-0.28-0.17-0.26-0.33c1.67-13.87,0.76-26.73-2.72-38.21
				c-0.05-0.16,0.04-0.32,0.2-0.37c0.16-0.05,0.32,0.04,0.37,0.2c3.5,11.56,4.42,24.5,2.74,38.46C39.9,68.2,39.77,68.31,39.62,68.31
				z"/>
		</g>
		<g>
			<g>
				<path class="st4" d="M74.14,42.65c0-0.65,0.53-1.18,1.18-1.18c0.65,0,1.18,0.53,1.18,1.18c0,0.65-0.53,1.18-1.18,1.18
					C74.67,43.83,74.14,43.3,74.14,42.65z"/>
			</g>
			<g>
				<path class="st4" d="M17.63,66.17c0-0.65,0.53-1.18,1.18-1.18c0.65,0,1.18,0.53,1.18,1.18s-0.53,1.18-1.18,1.18
					C18.16,67.35,17.63,66.82,17.63,66.17z"/>
			</g>
			<g>
				<path class="st4" d="M74.14,54.2c0-0.65,0.53-1.18,1.18-1.18c0.65,0,1.18,0.53,1.18,1.18c0,0.65-0.53,1.18-1.18,1.18
					C74.67,55.38,74.14,54.85,74.14,54.2z"/>
			</g>
			<g>
				<path class="st4" d="M74.14,65.74c0-0.65,0.53-1.18,1.18-1.18c0.65,0,1.18,0.53,1.18,1.18c0,0.65-0.53,1.18-1.18,1.18
					C74.67,66.92,74.14,66.39,74.14,65.74z"/>
			</g>
			<g>
				<path class="st4" d="M74.14,77.29c0-0.65,0.53-1.18,1.18-1.18c0.65,0,1.18,0.53,1.18,1.18c0,0.65-0.53,1.18-1.18,1.18
					C74.67,78.47,74.14,77.94,74.14,77.29z"/>
			</g>
			<g>
				<path class="st4" d="M74.14,88.84c0-0.65,0.53-1.18,1.18-1.18c0.65,0,1.18,0.53,1.18,1.18c0,0.65-0.53,1.18-1.18,1.18
					C74.67,90.02,74.14,89.49,74.14,88.84z"/>
			</g>
			<g>
				<path class="st4" d="M74.14,100.38c0-0.65,0.53-1.18,1.18-1.18c0.65,0,1.18,0.53,1.18,1.18c0,0.65-0.53,1.18-1.18,1.18
					C74.67,101.56,74.14,101.04,74.14,100.38z"/>
			</g>
			<g>
				<path class="st4" d="M74.14,111.93c0-0.65,0.53-1.18,1.18-1.18c0.65,0,1.18,0.53,1.18,1.18c0,0.65-0.53,1.18-1.18,1.18
					C74.67,113.11,74.14,112.58,74.14,111.93z"/>
			</g>
			<g>
				<path class="st4" d="M74.14,123.48c0-0.65,0.53-1.18,1.18-1.18c0.65,0,1.18,0.53,1.18,1.18c0,0.65-0.53,1.18-1.18,1.18
					C74.67,124.66,74.14,124.13,74.14,123.48z"/>
			</g>
		</g>
		<g class="st2">
			<path class="st3" d="M78.54,136.16c-0.16,0-0.3-0.13-0.3-0.3V25.54c0-0.16,0.13-0.3,0.3-0.3c0.16,0,0.3,0.13,0.3,0.3v110.33
				C78.83,136.03,78.7,136.16,78.54,136.16z"/>
		</g>
		<g class="st2">
			<path class="st3" d="M72.05,136.16c-0.16,0-0.3-0.13-0.3-0.3V25.54c0-0.16,0.13-0.3,0.3-0.3s0.3,0.13,0.3,0.3v110.33
				C72.34,136.03,72.21,136.16,72.05,136.16z"/>
		</g>
		<g>
			<path class="st5" d="M87.41,15.51L75.02,27.9l5.95,7.38c0,0,8.55-6.19,9.73-12.09L87.41,15.51z"/>
		</g>
		<g>
			<path class="st5" d="M62.69,15.51L75.08,27.9l-5.95,7.38c0,0-8.55-6.19-9.73-12.09L62.69,15.51z"/>
		</g>
		<g>
			<polygon class="st5" points="112.49,74.6 134.37,67.13 132.97,63.35 111.39,70.7 			"/>
		</g>
		<g>
			<polygon class="st5" points="37.51,74.6 15.63,67.13 17.09,63.35 38.83,70.86 			"/>
		</g>
	</g>
</g>
</svg>
