<?xml version="1.0" encoding="utf-8"?>
<!-- Generator: Adobe Illustrator 24.1.2, SVG Export Plug-In . SVG Version: 6.00 Build 0)  -->
<svg version="1.1" xmlns="http://www.w3.org/2000/svg" xmlns:xlink="http://www.w3.org/1999/xlink" x="0px" y="0px"
	 viewBox="0 0 150 150" style="enable-background:new 0 0 150 150;" xml:space="preserve">
<style type="text/css">
	.st0{fill:#4F76B8;}
	.st1{fill:#E2DAD8;}
	.st2{opacity:0.53;}
	.st3{fill:#3D2A41;}
	.st4{fill:#5188C7;}
	.st5{fill:#B9C5DE;}
	.st6{fill:#2296D3;}
	.st7{fill:#8A81AF;}
</style>
<g id="Layer_2">
</g>
<g id="Layer_1">
	<g>
		<g>
			<path class="st0" d="M278.16,17.8c0,0,5.85-1.77,12.93-1.77c7.08,0,11.8,1.77,11.8,1.77l-11.8,13.87L278.16,17.8z"/>
		</g>
		<g>
			<path class="st1" d="M327.13,138.45c0,0-1.23-11.51-2.41-25.67c-1.18-14.16,1.18-42.48,1.18-42.48s0.88,2.27,2.07,6.59
				l21.88-7.47c-5.31-15.04-10.49-28.85-16.87-34.52c-10.62-9.44-27.73-9.44-27.73-9.44c-1.42-5.01-2.36-7.67-2.36-7.67
				c-0.58,6.33-11.81,12.1-12.36,12.38c-0.55-0.28-11.79-6.05-12.36-12.38c0,0-0.94,2.66-2.36,7.67c0,0-17.11,0-27.73,9.44
				c-6.38,5.67-11.56,19.47-16.87,34.52l21.88,7.47c1.18-4.31,2.07-6.59,2.07-6.59s2.36,28.32,1.18,42.48
				c-1.18,14.16-1.82,25.76-1.82,25.76L327.13,138.45z"/>
		</g>
		<g class="st2">
			<path class="st3" d="M325.95,70.6c-0.15,0-0.27-0.11-0.29-0.26c-1.68-13.96-0.76-26.89,2.74-38.46c0.05-0.16,0.21-0.25,0.37-0.2
				c0.16,0.05,0.24,0.21,0.2,0.37c-3.48,11.48-4.39,24.34-2.72,38.21c0.02,0.16-0.1,0.31-0.26,0.33
				C325.98,70.6,325.97,70.6,325.95,70.6z"/>
		</g>
		<g class="st2">
			<path class="st3" d="M255.1,70.6c-0.01,0-0.02,0-0.04,0c-0.16-0.02-0.28-0.17-0.26-0.33c1.67-13.87,0.76-26.73-2.72-38.21
				c-0.05-0.16,0.04-0.32,0.2-0.37c0.16-0.05,0.32,0.04,0.37,0.2c3.5,11.56,4.42,24.5,2.74,38.46
				C255.38,70.49,255.25,70.6,255.1,70.6z"/>
		</g>
		<g>
			<g>
				<path class="st4" d="M289.62,44.94c0-0.65,0.53-1.18,1.18-1.18s1.18,0.53,1.18,1.18c0,0.65-0.53,1.18-1.18,1.18
					S289.62,45.59,289.62,44.94z"/>
			</g>
			<g>
				<path class="st4" d="M233.11,68.46c0-0.65,0.53-1.18,1.18-1.18c0.65,0,1.18,0.53,1.18,1.18s-0.53,1.18-1.18,1.18
					C233.63,69.64,233.11,69.11,233.11,68.46z"/>
			</g>
			<g>
				<path class="st4" d="M289.62,56.49c0-0.65,0.53-1.18,1.18-1.18s1.18,0.53,1.18,1.18c0,0.65-0.53,1.18-1.18,1.18
					S289.62,57.14,289.62,56.49z"/>
			</g>
			<g>
				<path class="st4" d="M289.62,68.03c0-0.65,0.53-1.18,1.18-1.18s1.18,0.53,1.18,1.18c0,0.65-0.53,1.18-1.18,1.18
					S289.62,68.68,289.62,68.03z"/>
			</g>
			<g>
				<path class="st4" d="M289.62,79.58c0-0.65,0.53-1.18,1.18-1.18s1.18,0.53,1.18,1.18c0,0.65-0.53,1.18-1.18,1.18
					S289.62,80.23,289.62,79.58z"/>
			</g>
			<g>
				<path class="st4" d="M289.62,91.13c0-0.65,0.53-1.18,1.18-1.18s1.18,0.53,1.18,1.18c0,0.65-0.53,1.18-1.18,1.18
					S289.62,91.78,289.62,91.13z"/>
			</g>
			<g>
				<path class="st4" d="M289.62,102.67c0-0.65,0.53-1.18,1.18-1.18s1.18,0.53,1.18,1.18c0,0.65-0.53,1.18-1.18,1.18
					S289.62,103.33,289.62,102.67z"/>
			</g>
			<g>
				<path class="st4" d="M289.62,114.22c0-0.65,0.53-1.18,1.18-1.18s1.18,0.53,1.18,1.18c0,0.65-0.53,1.18-1.18,1.18
					S289.62,114.87,289.62,114.22z"/>
			</g>
			<g>
				<path class="st4" d="M289.62,125.77c0-0.65,0.53-1.18,1.18-1.18s1.18,0.53,1.18,1.18c0,0.65-0.53,1.18-1.18,1.18
					S289.62,126.42,289.62,125.77z"/>
			</g>
		</g>
		<g class="st2">
			<path class="st3" d="M294.02,138.45c-0.16,0-0.3-0.13-0.3-0.3V27.83c0-0.16,0.13-0.3,0.3-0.3c0.16,0,0.3,0.13,0.3,0.3v110.33
				C294.31,138.32,294.18,138.45,294.02,138.45z"/>
		</g>
		<g class="st2">
			<path class="st3" d="M287.53,138.45c-0.16,0-0.3-0.13-0.3-0.3V27.83c0-0.16,0.13-0.3,0.3-0.3s0.3,0.13,0.3,0.3v110.33
				C287.82,138.32,287.69,138.45,287.53,138.45z"/>
		</g>
		<g>
			<path class="st5" d="M302.89,17.8L290.5,30.19l5.95,7.38c0,0,8.55-6.19,9.73-12.09L302.89,17.8z"/>
		</g>
		<g>
			<path class="st5" d="M278.16,17.8l12.39,12.39l-5.95,7.38c0,0-8.55-6.19-9.73-12.09L278.16,17.8z"/>
		</g>
		<g>
			<polygon class="st5" points="327.97,76.89 349.85,69.42 348.45,65.64 326.87,72.99 			"/>
		</g>
		<g>
			<polygon class="st5" points="252.99,76.89 231.11,69.42 232.57,65.64 254.3,73.15 			"/>
		</g>
	</g>
	<g>
		<g>
			<path class="st6" d="M110.47,123.85l-2.3-60.95l5.61,12.89l22.32-13.11c0,0-12.48-28.12-24.05-35.99
				c-11.58-7.86-27.56-8.07-27.56-8.07s0.2,8.82-10.51,8.47c-10.25-0.34-10.44-8.47-10.44-8.47s-14.33,0.21-25.9,8.07
				c-11.58,7.86-23.9,35.99-23.9,35.99l22.32,13.11l5.61-12.89l-1.2,60.95c0,0,8.53,7.53,35.13,7.53S110.47,123.85,110.47,123.85z"
				/>
		</g>
		<g>
			<path class="st7" d="M87.38,18.79c-1.8-0.16-2.89-0.17-2.89-0.17s0.2,8.82-10.51,8.47c-10.25-0.34-10.44-8.47-10.44-8.47
				s-1.21,0.02-3.21,0.24C60.8,22.77,63.12,30,73.84,30C84.9,30,87.01,22.5,87.38,18.79z"/>
		</g>
		<g>
			<path class="st7" d="M13.74,62.68l22.32,13.11l1.35-3.1l-22.3-12.98C14.23,61.56,13.74,62.68,13.74,62.68z"/>
		</g>
		<g>
			<path class="st7" d="M136.26,62.68L113.84,76l-1.32-3.07l22.14-13.26C135.54,61.52,136.26,62.68,136.26,62.68z"/>
		</g>
		<g class="st2">
			<path class="st3" d="M41.67,63.17c0,0-0.01,0-0.01,0c-0.15-0.01-0.27-0.14-0.26-0.29l1.3-29.59c0.01-0.15,0.14-0.28,0.29-0.26
				c0.15,0.01,0.27,0.14,0.26,0.29l-1.3,29.59C41.94,63.06,41.82,63.17,41.67,63.17z"/>
		</g>
		<g class="st2">
			<path class="st3" d="M108.17,63.17c-0.14,0-0.26-0.11-0.27-0.25l-2.74-29.59c-0.01-0.15,0.1-0.29,0.25-0.3
				c0.15-0.02,0.29,0.1,0.3,0.25l2.74,29.59c0.01,0.15-0.1,0.29-0.25,0.3C108.19,63.17,108.18,63.17,108.17,63.17z"/>
		</g>
		<g class="st2">
			<path class="st3" d="M73.84,30.27c-12.97,0-13.74-11.02-13.74-11.13c-0.01-0.15,0.11-0.28,0.26-0.29
				c0.16-0.01,0.28,0.11,0.29,0.26c0.02,0.43,0.75,10.61,13.19,10.61c12.44,0,13.19-10.18,13.21-10.61
				c0.01-0.15,0.13-0.27,0.29-0.26c0.15,0.01,0.27,0.14,0.26,0.29C87.59,19.25,86.81,30.27,73.84,30.27z"/>
		</g>
	</g>
</g>
</svg>
